<mxfile host="app.diagrams.net" modified="2024-03-24T21:04:02.775Z" agent="Mozilla/5.0 (X11; Linux x86_64) AppleWebKit/537.36 (KHTML, like Gecko) Chrome/123.0.0.0 Safari/537.36" etag="tQ71nWIrQUS4QpQmbL1g" version="23.1.2" type="device">
  <diagram name="PÃ¡gina-1" id="QnGLqEb1Za5tvUvLj0JT">
    <mxGraphModel dx="2220" dy="1963" grid="1" gridSize="10" guides="1" tooltips="1" connect="1" arrows="1" fold="1" page="1" pageScale="1" pageWidth="827" pageHeight="1169" math="0" shadow="0">
      <root>
        <mxCell id="0" />
        <mxCell id="1" parent="0" />
        <mxCell id="ZQ0ltY4m0GD8ktAkjm9W-62" style="edgeStyle=orthogonalEdgeStyle;rounded=0;orthogonalLoop=1;jettySize=auto;html=1;" edge="1" parent="1" source="ZQ0ltY4m0GD8ktAkjm9W-60" target="ZQ0ltY4m0GD8ktAkjm9W-57">
          <mxGeometry relative="1" as="geometry" />
        </mxCell>
        <mxCell id="ZQ0ltY4m0GD8ktAkjm9W-63" value="Text" style="edgeLabel;html=1;align=center;verticalAlign=middle;resizable=0;points=[];" vertex="1" connectable="0" parent="ZQ0ltY4m0GD8ktAkjm9W-62">
          <mxGeometry x="-0.0728" relative="1" as="geometry">
            <mxPoint as="offset" />
          </mxGeometry>
        </mxCell>
        <mxCell id="ZQ0ltY4m0GD8ktAkjm9W-60" value="" style="rounded=0;whiteSpace=wrap;html=1;" vertex="1" parent="1">
          <mxGeometry x="-280" y="-10" width="1090" height="550" as="geometry" />
        </mxCell>
        <mxCell id="ZQ0ltY4m0GD8ktAkjm9W-50" value="" style="rounded=0;whiteSpace=wrap;html=1;dashed=1;" vertex="1" parent="1">
          <mxGeometry x="-260" y="60" width="610" height="400" as="geometry" />
        </mxCell>
        <mxCell id="ZQ0ltY4m0GD8ktAkjm9W-42" value="" style="rounded=0;whiteSpace=wrap;html=1;fillColor=none;dashed=1;dashPattern=1 2;" vertex="1" parent="1">
          <mxGeometry x="-190" y="247.5" width="520" height="90" as="geometry" />
        </mxCell>
        <mxCell id="ZQ0ltY4m0GD8ktAkjm9W-18" value="" style="whiteSpace=wrap;html=1;aspect=fixed;fillColor=default;dashed=1;gradientColor=none;" vertex="1" parent="1">
          <mxGeometry x="390" y="60" width="400" height="400" as="geometry" />
        </mxCell>
        <mxCell id="ZQ0ltY4m0GD8ktAkjm9W-8" style="edgeStyle=orthogonalEdgeStyle;rounded=0;orthogonalLoop=1;jettySize=auto;html=1;" edge="1" parent="1" source="ZQ0ltY4m0GD8ktAkjm9W-2" target="ZQ0ltY4m0GD8ktAkjm9W-7">
          <mxGeometry relative="1" as="geometry" />
        </mxCell>
        <mxCell id="ZQ0ltY4m0GD8ktAkjm9W-9" value="GUI" style="edgeLabel;html=1;align=center;verticalAlign=middle;resizable=0;points=[];" vertex="1" connectable="0" parent="ZQ0ltY4m0GD8ktAkjm9W-8">
          <mxGeometry x="-0.0109" y="1" relative="1" as="geometry">
            <mxPoint as="offset" />
          </mxGeometry>
        </mxCell>
        <mxCell id="ZQ0ltY4m0GD8ktAkjm9W-2" value="Database" style="shape=datastore;whiteSpace=wrap;html=1;" vertex="1" parent="1">
          <mxGeometry x="590" y="290" width="60" height="60" as="geometry" />
        </mxCell>
        <mxCell id="ZQ0ltY4m0GD8ktAkjm9W-3" value="" style="shape=image;html=1;verticalLabelPosition=bottom;verticalAlign=top;imageAspect=1;aspect=fixed;image=data:image/webp,UklGRjYsAABXRUJQVlA4WAoAAAAYAAAA/wEA/wEAQUxQSGYJAAABsML8/6Ta2U+MGDECMWIEYgQCgUAgECNG3HuL6EKak5MT0pAb0mwnDbnpguiC6YJAILogECMQiC4IRBfECET3IroguoxAIBAjRowY8e/7vmfl/OH7+70bETEBdPT/0f9H/x/9f/T/0f9H/x/9f/T/0f9H//9vabdaa77cHQbj8PJ5EPS7z536BVO2bK/Vm3y9Vre7/X7y9mnFFCez8tz74Vbt8s8ftz1TOgz3cvuWCs33l5m6k9nXvZrFOo7rlnzf9yuu6xoasautt4NwtVbXjKNlOBl2W4+X7asVnpts1N1O5y8XuMWqnHaG06+jVF13Gy1mo26rVrLukF1/e7ZVt5/8PO23qhaZtWGk9Pj722UucepvzyK1g5vFqFMv7px1Mlyp3Y4SpdPV63n2yDeDSO12+v2o7Vm7Yrfmmdr7n58YjFF+e6nu6nLUKt2a2Zhn6jDcvG7zROHt39Udj6edqnFzxfdjdUCmwwI7GGeh0mM8PS/eiD9Th2YWFFgh19konUbDx61r+KE6RLOgwAa5bqy0m37eci4rh+pQTfs5FjA7sdL0op0nIidQh+z2BQO/eqR0vjg/j9WB+30FPHem4M/6FnIvJIoDIw82e6aYMOsbmFXXig+/LyD2bKY4MTmBy+grbuwbWBkfK36c55CyQsWRqyJO1kLx5NZDyfhccWVyAtJE8WX2DEQ9xZqPAHqomPMRPOWUO9QjcHKR4s9nsJkoBs1OkDlTLJp4uNgxj6htEZaJ4tJVDpR7ik/nBiTGilFUH5JzxapngFgbXonzeHQVs87gsGJuUTU02opdl2AYa35RdSzOFMPOsQg5RhWQKCqW7SLR45mfkVjzjHJxuKeY9jkcRlwzwWHNNWsYqoptbRS6fFND4Wu+aYNgZXzzPgh1xbefg9BjnJ9BWDDOFgMjZRyFQVlxbh6CJuu4EAxYpwzB56zjQ7CWPktJX0n86uLXFr+++I15x0UgFL+fecdGIOIdQlCxbiJ+EQIu7yzEbyp+IwR83umKX1P87olfQfwM6fudpO9z8Xtf/M4hKLBODQKXdRzpiwlCk3NCDIhzBiBsGKcFws+MUwbhc75JDRBGfPM9gfg637yPQoNvGihU+aaIgsM2McGYcM0Mh++5poPDhGt8HF5nmtTE4WmmCQnHEtN0gTAynvGBoJ9ZJjWRmLDMnJDssEwHisdZpgJFnmO2hOWWYcZgzBmmAUafYWwwGvzyNYFZ4pfX0aCEXcpwLLhlTXAOuGWIR4Nb7uFRYpbEwIMSXhkToHNeqSPSY5XERKTOKmNC1GGVOiS0ZpTExORjRhkTpm1GqYNS5ZPYBMVM2WREqC7YxIelxyVrgrXOJT1cclxSxIVWPPI1ATvkkeeQabBImkPGZZEJQRtxyD1sAgaJCNsmg3TAcfkjc8ChiD0+JnQD9qjB0+SO3wlelztexoci3khzAA15Y0QAn/JGGSGbNRYE8ZIz6hj1GCMyMLrHGG3C2EzZIs6BRJ+zxYBQfpkrsjxMRa4YE84RU5SBGvHE5wT04zzhI2WlHPE1QT3niDpWbYZYEtYFhqiDRSt2WBHaPXZ4CJfHDb8bcBlbZnhIeI94YWUAVueFOgFuJpywJMinnFDHrMEIC8LcSvnAB41mbPA5od5igzJsdsYEAeE+54HUBa7BAz0C3ko5YJtDjqYccE7QnzHAysDOTPCrEfhj+D4n9O+hlxXhM9bg9Qj/PnabHAOUsHuGOPB75BbEgufAZSUesFPcenTLNko0gW1t3ZRZOR8uIqWUylaTlg2QD1udbtB9/OXxMlNXT4M8PBSBtm16rnGRU/BP24PpMlU3mzyEpwPaTnfRsVP2UC+AQxP+SIvgVPlDTcGhJX+oAjgtBumAY275YwoOvc0fP6PjpOwRoUOBlgal92McfoanpKMxEZln0xSEGTw01c/UoAvN2mCZAdDDx9POwqIrFmMA7uFDoWZWObpicaMO/40BkK+XjUOXGw+3CsA2IRzqJC7SpfnXI4Xg2oTI10ji0b+a/ttLBeLjhHGojeyEKFfrhqmCcUQge9oYtccrBeXSQommuoBz4xDMxYwlNkUCesgRmyIhbcf8sCoQ1m12CG0C2/iZGd43CG6PFZIzQnzECF+7BHluwwXpywaBfsIE8wLhPuaA9Rkhn4vgi7smYe9l2KUDh+DvIJcOHOLAGWzrTo540FpBlo5rBrFhcQvXdly3iBW9BKl41qkQP9az3dkkh9w2HDRKxJQn2a5sisHh03p9FiXXiH8Pg7dbnk2seZLtxqZI5YMno381Xc+/sOLmiUm9ZBfWRSIaHzq/X8Cyxd9v73uHiMheHzif8w1Z09sKTLqwmhw2Q8YhehjfRnxCl3vJQdNhHcpPbm5s01W9zSHT4B2i8vRmpmW6Zj68G9vOXvC4h6g02F5n+36Jrm+8FO9e2s+5e8HlHyLD6843F23nPd+gm7UH6W5lQYGI9gKxsem6rmvRrTr9eHfiQZ7+dR+kfLSbZnOe7UTYNOnidA9EvEZEdiOIbiedn+fpipFA/atTf3sW3ch69rpv0tWl6kKz9Hir+37wcRiGYRD0Xj6t5OgG98GS73Z0sQdC4Qj/DeZj8QuEY7wHRsIR7IHuf/w1hWOwBxrC0d0DvvhVxM8VjvYeMIWjqb+EpC+Sjqf1F0qHr7+J+A2ko6S/l6XD1d+pdDj6q0oH6c+RvpTEM9Ldz+I3lY9Qd335mOvuOfkIdFeVj4HucvLR1dya5LOpuZmAPK65twWkorm6gOQ1lxcQ0tuGJDTS2lREFlp7WUTGWquKyOs6SwwROdXZjES0orNzGbF0VpAR+l1fv5OQTvXVl5LX9eVJyT1trUlKrUxXfTGhr3VVkpO3NfU9yamnqecEhbZaii1JeV9LfZJUT0dZXlRoraGAZHWgn6wgLJ5+hiSta90kjrgMdNMhcS1rZmXICy21klVJYM+10ieJtWKNLA2RoYE+4gLJrJPqIquR1A508RKJrRProU+C29HCgCTXWGpgQLJbzu5a9oik99Edix8n+f34Ti0LJMDW4u5kfYNE2Fndle8rJMXO6k5snjVIjq1w9zZtk0TZGOzY6jmTxLm23p107JNIW710J9JpwyKxdgbJba3ef9wk2c6df39zy+GpQyLuPjfdXGs1ff1ejkTdvtfqDoIgCPrd1uMlk47+P/r/6P+j/4/+P/r/6P+j/4/+P/r/6P//bQtWUDgg6CEAALCmAJ0BKgACAAI+bTaYSSQjIqEh0pkAgA2JZ278Z/nEvQcpf//O/t/dBYg9T/d/Tvsf+K8h/ad155ynkv7b+j//z70/836jv0b+tfwCeer0E+YD90PWG/4fq3/tO+t+iT/HuqX/y+SP+Uv916Se8L75/Yf7L1ifoL225aEVP419xf4P+L9sP8/3j8AL8f/pv+w/NLyT+1Xm69QLuV/w/8V6zvw/mZ9jf+X7gH66/8zysPBa/G/9H2AP5t/cP2F9gz/4/13oM+qP2s+Bn+gf3r0uv//7fP3I///u1ftp//xB7GPeQ6YI8h3Yx7yHTBHkO7GPeQ6YI8h3Yx7yHTBHkO7GPeQ6YI8h3Yx7yHTBHkO7GPeQ6YI8h3Yx7yHTBHkO7GPeQ6YI8h3Yx7yHTBHkO7GPeQ6YI8h3Yx7yHS8HkGWai7/1rBMh9+0NARonhz0pnYVnvQj+OJTXX/lOTDCXAQZXtLd1MZ5GMiCHZB6h4+9g0pr9oVnQ7hzd3ocm4NsvuJAm49neQ6YI7ZN/LTF+OAW6MwAxUtmUoRZM0DIhXdYqqa/YPyqDe3+8RFs/sZ9woFQ2DboLdxASsajytY6xj3kIytkxPYFj9Y0oAFsYFl5vUSYjFm90EHGbSiTMaGLzkOIvX8hTtY6xj3jKHTKDNTts/P1oGoyRQGj6yse61sm91HTyvfttSn5c5Duxj3V5R0x/yeEq4BbySyNjB7sY9GqVx2mjHOEe5IobNyHdjHpY6cva561CFu/1C/6Vn+l1pxha4x8605wOt0juKTPN6pMwfBA7+ZskvLV99rLtJ1Dhlaq2MUDIwYlYHVId2Me8Zd1NzaE5pYY/IMB8jWxA7ZcRYFXUso52VygEgg9UHfpWXpyof6b9lY+kHAPXl9qJBz9b1CXHyO2mCPId2ALLH89hfYHLH4clsgbrVPWQQ2QwjuMWTZxuL/v/w95IY0yvT8h0wR5C3MB4xBVZ/WV4J/L8CrTKct0d/nIgah3+vtVQnZ9mtBjS+vczvcQ6YI8hb46XGXRAKaAH6yq0kL8uOgK/V9NHP30qgC8va+VXV+EU+6rAN8sfLNsJ9cVpm4jyHdjHpb3V2fqaLxKZzknNWumEkxb974M5VA2A4rGipfIxcznWUAhpOLhrS/Q9gROQ6YI8h3X6b3uP+TyQka4510140HxUqHfEfEvYUZcI5cQh0gDrRj7J/Q+/warQeutgxDpgjyHc7LYF5jqI40WHJcBtu07mOdPg3+l+Ax/IHZPkV8SkgoYXGhMEYABt41t5jbRDIr9+eZfKZ1DVBFFYkP/PqCi/msQiNctQ6YI8h3bjLaHl+GClmyEED4NsPiwwWC+twhkOoOv/++7fLM7bmRtIkSHWUjhh442VabVr3DlDeeLE6BXZndKUxu/CwyqhkJpO8h0wRdswAljSs1uHuABaMTn6a5Nn0ID/xFEmmw4v6gNQfU/T+6AY9XBpx+/D9+UPROQEeQ7sY95DrqLLgf4qgG2bwn+mM9e8h0wR5Duxj3kOMZwDRUawUC0sLW/wQEeQ7sY95DpgjxxC0loJpbA1Ad6OgVfw7iHTBHkO7GPeQ6YFpJN4/opjRF8cWPglhplz87viyrCqaTvIdMEeQ7sY9L35FhbL647GJNjyYJm2lpgCFcRYmbLpE4on4RwhjHvIdMEeQ7sY95DrlLdsQ6YI8h3Yx7yHTBHkO7GPeQ6YI8h3Yx7yHTBHkO7GPeQ6YI8h3Yx7yHTBHkO7GPeQ6YI8h3Yx7yHTBHkO7GPeQ6YI8h3Yx7yHTBHkO7GPRAAA/v/MFgAAAAAAAAAAA98eymIAeUFgJai8iin5zXX/Itd45TX3r1jxB80ggDND1WnIcDMoSKSJhwXm/YktDZhQX/flQP0XK6S6dSDHijAs1qYFemIAT9qk9ehqEzSq1Cf9WEPupcVED6OZmLnPFnNfonkOI4o6xdm71CcWXL/DXPT73nsOA9gJgE1qMQdH4duJWCBZu4mL0PFuTo2zPH3k6QDq92kbWJDFSGiajp+lTAO34ZRR/5Axq7Kb+vgMrW5jAq9VRn1x6uCd1Ih5/SrTs/TgJthT5TlsX191nvWdYh/nOP5Sbi+eW12P5pTZNCiof7eHc/b06ftwyD0RKoRjrOfike3lbpYMIf8ggH0zFsILFiXx/HRPwztXKTrM5hpnqsayCWo3vYaJ+IE7B5rnIP5CQwnPBqsDxLeUp60c14gzBQCsBj/XlmqZupPZEpGE9nmiYvZ/TUOFO5Zf7eq3ozBIx+Zyp9T8HQPSvO14eDXua2gevlj3g2xH+rAi1kPodl266Dd3DTyQhrnNVu4e/u5oCSqK9VmcphT36N2LNfhoQrnqZNMywBLyK7M/3tVTwQ8ncj3rsAjqYl27TYzkgaI/m66O3CHa1occhzpodknj/+KxvCACHX9q8xLmY1VQEUt1kZQAyCsdWE2xOppz/Q6SOfCpCB1pCjd4R3Rqh5+8Lxmhn0N7tuHGI9Rza2a6EihA3vOop5UbtTk189aLprZcz4WsJ71R6oNYv/rf3wLr8UIrXMV0xQxVUfIpN+f1gX1TqKE0uL1LR0jv0Rk992PY/nIIs04UdwojhQU7b7zLmJHLrjNSGU7652jp57f/87ypERzkoJhl9fnB2KntR21E9Yr/T2QCnsL1wjF2QgZmNTQFGP5IIMx1b1Zv4hA9Ga2Kps7LzM7jjrYfWswS0AVdBTPg6eB2yiB0zrzOEJcdhoXq8niJRm9U8brTlxU6NTxzZ56XroEWYKfbdGw0/l7Hh7KEqM9I+BFIHDLNb2Q/C78wy+y4Beay+j/RtuAWcZ0jqXZOENyY9k8FsE5RsG+oKr+miribV77PPZ0CwTChNFjS6sF+yiCyyxPUDPCA4gn5QCcN33arxwCgfCf/5YaBgTzZp8lVX26KSo+WiM2l/HBMSMZ771ipFyJcbP47EEcyvK5CHNWH6HdzjZwOm5lMsujwlPuiwCkPCQFsF5yzQMFoJ+DreYWESuPD2G9SJvPd40Kmzy0rZIV/Xh94rEGJvr8j0WpwA8CZuAr9674OrwFci8SuCpgDgbYZE4QubLb/IWzpKX5wmnGa1xg8U7twtbda7V8ZVpzjTKto1fKU/de6zem4MQ20ibxWgt/RgvHDybJ4geGaiRzxpKqEZpaVmbe1ThILI4evwhvAa0l37X0qYS01Dv32ucgmz6NybioSEN/KLlYLGA05ubTpkd3sHBY2Qjg+uRqTbVbFiOMAiExUACurBPNTqs1631UCd6hHwBbfY6Trr33BDpD2LRrKxSy/+bEXc/ldsZ7lP+JwXVxaArodseuz8gHyo3FBb1+5/d/iNJm54c5rT9ATY//RzKZqfWY2nCHMnE4QyE5MRlWhvztYblgkjV5W53SQXAFNpAIJvCiptyIwXP8iwBeKsgzNy61U5BFRGnlYK/p8p4PXi8dfTonKtTJBifqM8/8ulTuRCGQDBPNZpEufTysBMRBrKiiq+rheLRuZQWUyCYe3kibCvemXYCDHVSA02dgGDSq5FLTE+c3TkliBoZRg8dEkEW6YYEdfJGz8UA8Dkksy2Rz5fvzKvGkNrtE8pwE3r5GV6Vm6prigAfmXmo9TUbTLGuZ+H7wB/NRrbqbnQYofwn0Zm/moYlaRm8G03r4UBcsfYfDm5f2eHv4kkc4NBsicxocMJla2zd+Mc5C79dRGQW1+EAOxO65xUEVCf8n3eHy0gjp/hcMhTQ0MSM2Kveo2avilKaQquepeIu3Fr36Xbj8V9EwuRG74ORwqMAegvdWCjRWIgEioKg3vTku6FRfMYsN4WWbxljBsX/f2gkJ7WElAceee4x0DH/bzrtdTe0A8MJ5hPpjXsSCbPxjx8hrB9Tx85CH+UiY0VFnNX13xsKWvCI7LcjPiuCTGffkizyWuxoc8mgJY10Y2nOhpeNV8gxQzEP/uGiOJ4lsS7d6emBkO8maCWAXrnWjLazg37vDo5NkywrwpplvMGt3ezd/bi0hwjpS66r3kgKz1XfUMHLHcIMymFnrmErWzpwpVo+ScQQN9n9en2LwfP2JlVEdXMLv9JrC98Tme9YxhcflYuMLGx9wZi0xWLkjBYBK8hCLRGbBcyeA9B/kQMOsVeSZXsrFv79Tt4Wo+p3yHjRC7LQWMbc0BQtN1MHo+dHWxGlo8bgtCcjld794MKQlUtZYlGXVicSRuMrNtD+R22JI27cWYNwrtrQAoiCP4KAQMMHm/tOkwXTVBGbdsNsjkMGGUGLjMTzafzZwKzGGB5DoGW8IsNg+8j+u5FLxQP0GBz9ngkiYTk/Kx5ANitem3r9ckIpMG/IqAs2T/naBxq8voUDW/125DuXyYTcRHqA7EdHOzdvXBYumFflXCaK52pR+Ml36ihN76evn2u9pDP/h6ywJIchHEcXTGszGajjjGBu3A59+aKbx8UnnrfZ7MAGcQ0tMI9h4K/+odFQDPNSD44vB6zJsgNRzKJduMbaVECAd4WapqcWP+OFp106ul77iSK3mtdKT3uhXqlnQ7Pg5rcu9l1jb1f8MZuvPKY0QUfVNvA3zfyIBhT23UhXfbtMSRpShRoA95NSJmfm4JAslSur03FK05zKz96k/wr/k7Rb1oz59gqLyCqN/nOWeACfpfAUguUTBodsRcp85Mqmz15g3gnreLhM90Dk6AA1KOtS0qhebguPbPR+/9+AiQ8quTNLyZ7Jo5+mYYxQST7Su7Kln0edQ06uu0YkvBhdBzO0AfumYOCLB3LUj5qQzddU6BTXdtqR96qOTdvGYCTbibF+cbWnGfQxhkzOZNgXXNm717EeG0kJOsfp4gPOqTYYxBsMBGxhhB2Mx1EzOZ8Zb2B7ighJfZIbHKKkMDRXDcAq4+0w/upL/RI5rPfG5dpF0/p11FWvlea0BSFiuzIWotNg9aNFEyfSoFnK/hommIbN3mezFJ/OeafCr5TrMQEDm73O4vcdBJ5pFPhAqemeaN3wQySZZkFtCThPHsxAgi5EdPB3MbHqUPUE0W8SMhTzD+IlYBi5+a6o7SZK+NL87wjy7vre/dzpiGrNAHWaTq9eTCdHO8B13Gth3TH+nJtOx+oKbRh4V7u7umcXzhl7zutuK4g302x/YaF9CyuOvfIiUFmy+to5Qo3mtBpkkMcMuePzDOvSF/OTYa/dEcCJvCAJ7rVjQbrnZvH0jP62+QiGlQ/djCfi4F/Je5WmMrlxhq3RM650xWxaDBk8DnZW11VwOsWMKnlK9vALywa+ifSPVvYX5CWWuo5R6Y4je8RKhVvmhtq7Nf6fpZ/zrzc7YVTYCk+YpyPwOkN6Ee6N0NWOWEu5dpxEEEjpzwIo1pfP/Vt/f2oZKjaaIekSE1CMSQkNelsD+1rTP2oDLCatenQ7b0rOjixCV2vHm2GqzNhS0P9vO4oHPd4f0X+vsBLf/WA8DIEAF3/bgUrlHHeYSv8g0cRIL2VUeLFzRBX26Wb8WFW6jRlKNxgEAdSL3eFuK1ozWLa68Yb3KE1Z0cdlK/+RL5VbEYOhuM2AI9fJ/velktO6ZRgf5iPahJt7/M5fjIC1P2HjJxFbTTo1S8TX42KVQqiFb6SmYekb35Scs5qLOkJetW9MFmYA7nr9wm2w5L7LU49ee2feCfG8pBDJS34/UBk3egxnuBVFmdYM+yj6OezDwo5NeIbdv047b9TYmbi3ULd5i4Oy66pPhOB+lNW41euYXYrOu1a9ZR+f6njUIJpy9fDBIOKBukmkEWn8gJzOf0yAXVaU1llEK03zzbrx1vaYLppiB/0TnD4bpN6nhixn+I2v+LuAbb+7c2dWCGsT7iW9p9ENVTHXvAQowCgi/iEajW0nQVZmGfVrMX0rCFxzcaGJe1A7Kdv2fT+VF7fB17kRqslCbxM/AlUmHcRFpm0JfLVjXdXKC+0H5jYKpJAuK/XC4iR7vmQRcCItdF2ORFwx6OZdTKzjSzOGv4vorcw+5XxiPXCrvud6bFTrIhFPseYrnofEwhxXqH7WqCf2pzL5WfWbQ89sj2kbhYkMfkPViNgQ7rHa+Jv7RrtWQuyvKcPGsx2B6gBOuvpSdahF9kPRqcUU1dH+Cr5OHxmaYDagVQKNaA+3GOHTYZkuS2RfJCij63bxqepl3kjxWS9HLmZSwriC8IqjK3M3zs8VW8IDKnf3qN50OuGiXOc5ANOn6eJj6q/l0LiHGDUlItshJIW1UtgMbfgrm8BAneoNWxMld1GNdDVFg+n/ALIEjRHaSvj9sLni88iFKmLKOSrvRZ0DW1NfZhymERwJ9mCqyqpaaRzOzNGbsMSYAk3Dh3sVJ2NjYJdyqKsWSxSKOSumRQhLXfPVzKG7AKhycQSAkWe2iGKbafmgtr+ZMPomzsM1WlTGU9Em5qglK9C7EvJDpZZd17hsshnNwIUHz+3l35f9RyfWCguBUPbxJ/n+JJF9EGCf06E139e2oH9hQsrK9PqaCWG/ty/IvZ0iWTvL9zWCbx8AZtBbvCLa1PMVb9pnOAx4WnBze11rJv4px4oLrcrBhEd2OTe2IAYQ/gG6cR7DdKmY/vuIcigPmPyaJECEsiw10NeoTbo08aUBxkYsecjgd4LOT6E9KoARlkmYFLZSOgs2p5EvueYdh9trjrGSa7I4db2ykUEsMK3xUuTsoXuHcDlca4LZXjoQYI1VIX5O0Z3B0fgoii1H6ziQDMa8X2ILW4EFBroDdUMEibIN7PKI0RAIUxqJFmSADP1Vvy/d7baedgmGlnWc4M6EfZgtYui+p2x7ZxB3fJe9JHWZClRPD1rGuLIhGgkjE8YdCAfH3IpYFJsovhsfkYTXD7+1r5HvWoyk8ql0olh2dtnyU0Kk3Oc0IZtCfS/jxubPdZRrOsZbfwTjsIXlp8agTViRt0QwQRFA989nnuLmO730JBdBdb2/MFjuI7YkRu5h8pnH6p8fUtdmSgUs5CaqobLDgZYdfKmFhk2sQnDR+awtfIGLXG5X1S39FP3Ezw1P5nPVCcxYjeAjQJGCZHrUxYJjV4buMJwh0KLW5NqYgmonRJFT+9D/ahgEyIn2JHDnt50kfU5zftPuRtAg0LD/9uJbK0BE+seBBxtbYot/vEKgnJuVVAF+rQTi6tVGWg40D72Ev7vLKvfdky22I/vu5CUu9GscpJ/NmbAiBpOpP2I5ajCWpH3DMsMwyMqRhSj3UlOiHkW2jG0CZLOCNU9HjCc2NnLTymkrg3VHSd8WpiAHS8pCPlyS4E/KSdm03as7lMH/6z0kF6Xi114BDwZqa3yXWuWtIC9IAh1zEWQDBRbHpI7NIj/kGAA3OeF57T+QcK90Qp881TNABre275S60g5P4crCGmZzm908W5b0285LrAB/IxWwgcERqhh5HmagZd0iTuJpt0hbgAG1W6An46TCae5mTZ7LiYybBck3Bxe7r/i4Lf3FAyHV6wo5jcKCAZdkLxKZgQqBTMxlEYadZOj18NSLjPXNpt7Z+1/AotH4ECPbj+PPqg0S2grRae58j1vUIwABiXB1t7Fn0m3uSmeG9A2oXGTE8HpA/Hdt7ucR1Z5cz6oqMriNCzFAPhJqSqNG7HkZRWhKGLMD0Se0Bn+gMj2ZlwvhnFq27e/fauTU0fwleoS4x60DUM0X8ICVWGzjhKBQpetXKcJGx12RxV3AucjY3IZRxHOYln+HaEqSGuwrRV6YZfozVW46WRA+x7KzTdliVN1EC1iLQSplQlAXjZF17UhbOeYt7Wgdl0bdnyg2+w0aSX9FyZO57O9gBEmzeZbat1vcSTN5arhz0SO9roiPmzo3wO+mes2qdsLj8dCMGjkh7IovwJgxI/AZMPlThjDkW9Q71W4lRIcCM7o2ZCNLXy4FHbfueqnyU6vq+ibh/WuGvl689m0/1BeIHivS0vuQDgHAjQQb8LZH/HkFTRNYZGkLaLCW8jznP48QuhnmxtHSxoytUtq7eyxLtih0cHQPu7kjxMLGsENCNqGAlkwG28dAFiPTc8xgBN6EhgGTKf4sPDxK8TAwLbukw3DacpF51mH+XezzfHtoWxd8w7DtYQAVdsxZ+jwq0gknBJ+b+m1NgXpGxfp8hw7y2W9tT3K5LTz2fAg07E0ZudYGEa9rHadt9DtuS3jQO2aNyV/arEuu25RNuwmo37w/SmNSSB9Kndobh348kEvp6KKCYgnyBki9CRGpDi0Th4HWZuI9EnieoEBVpwdmSa0Y4vJmB7iQNgxs74llSJoFPvvPCPYoHl+JsSjWpatD2JZxcxkO9QiI6GFBRn8bi4SyF6aPtiQYlbMtHkG83WlAPIKD2DC2S9BFwzAk0A7l4vtAGJbWgKctl1YF6OvEYtGA7vZUAO/QK7aYLwrpOS8JAamtiMdxHZ+Pkncw4z1Iso2zj4DzxkxdShnHHKL6MuSToBiK/ISZv0EKSaNxCT28S32qrbMGD4OCxPUQ9DFiOliJeHopcABgtFmctUVANOLSNMTqN4sxw7v8FMb0390+4yMFOBiXm4zAaKbxXASMLGh1PwA8JbJXo/Wj6hm8jntKPr2Z0A6UiCLD59X21CnBuDt58W5WOSuLCJYxo8ZRrIMKNqQFLm5Y23wVHnFKX8WLFolgAF7mEvztDLSsGngbME86mJYqVXI7eoatdsR6IRFKPw544ntTX//6bABwJ/0hW7wNpK/eC2mxawGXl5LoA7d4V2AjdH0/1wF5vUIMArOj0ETSfOLkQ9h0nMzMuyg9Bb+97WC4o2dHDho8OKJ2YeY+wJ7aXz54+al5+fW+0oMnwQTBA3hxzD8Zg+WbyuVpurzVCYT4IKLIAce2BoWGbONJQQ3bSglMPu2vOhyZkYuBFUiBqP64Uk2ym4hVbtLrTl8UD9ToYMxOVPpyPjOTJDHOJHJtcHH11xW9Fa2Rwn+io7x9vwZXwpuDL10g4DcESyCzu6hEWNq42ro2SRLZz7mI+7c/2FUYi0vco9IiLW+dv8XilTJSI73XtglRmxYDicC++zfKObS26Vqag3SXpx+zrsBJMxBJ3w8PW2evS8YKQWhWBj3aejN01gFt9vu0js+xmO2YpBhDNbcaE/o0Cjpxk8Z75F+0v3PVie08Cj6x7AQ2OMBBBwY9jriqN7XCyEZZ2ySp7/1xwfm2vz+Zw+Nj2EUCwUZ6AguQexu89jSjspKDfOz9m2gsg6/8SWjZAeTnc6Eot+2SKZq6K9AZlJl4DdbR2rsExpKqBTXRFyETIW13TXH4nXU5xQQLkbWc94aEAESJ47/59BEly7mjrxfOSZX8PmrEh6NIgTNh8q/kvkbC+dcXrXXry9Sou/O39OshfGE9fr1kGHTn9LYjiRcU10w6NM8zjUilsPDkDBKsOrpVNxNTlF5iUnqXdBSLZ5oH8SvzUumfKZnYOsZgj5Kn919vZ36ktLKzLG1M5sH+io8Xbw81FZSrNESzfKHACbrAJJv7yQHV7dAF1wbgev4GbsFxZPjA7UaxnOHyV4w5B9DRRfDSqveGRt79nL3GiiLWrQdBYHkMtKZcba8geGAtFEFJF5/fAT7EMqO6U0Onw/P1nLcZf3iY9b+Pl8Il7fG8Tk83w3S4qizllyKjoKxGIHWjbmHhpMLLJQyHAnFu6YS4WhxGIyXn7ZQYPG3bb7bdfVkH5REEzcp0J58PwJHOcY14gcM8/8HCtd6EXBqaYiAoV0SU+OhTkveu/tgMK52Vr4vIi2q93uOVE6Ndp3O6bFVP2xyEEKU9EVb3EhMhJXmFwszhq9GvlrXo4+AEz3g9+vwc7U2TTrDZIKzcaq5kf7w6FVc1qUVKbQ1xyXo6JScbFVeGk7O0/D6ViVw07Jrzq5dRTrJaLrpY5PR2gbJl3luqMIqhP/8k3G50B5bBP++E9olqrj4Zj5z9HRD2jL1iS9DCTEkGa1WjEui/tde1I6lyFkbntJ/8gyeesPUZQjFgpec9PXIXnQb4GurMB5XR7x9+8dyLFZCkyXC3bwbg9mnPtxpWeSQt4w5hnVNG84J3pXtvqN/Egw7t5gREdDEZlPVwzVK+IbitbrMh4Bwq7NK/U7d1MSiNZq0ZaYto2V4cay2f/iYMmGuCxvLKKAq9ju2uzY93ytA/T3QzaUHFm2ES+iJ4rT27ECXDC9oBmScLAxK/rcl9pnOkN0DDexb4NUYyyB8rOg4Oiw/ECmoyqZ8uRwFG2oFmCUoxJFjD+UjvyplP07EscAEhQv01kbKlVXf+fI3X5TAg8VXGWwegF60FwK4TwWclPqjhMv9uAYtGoQo4eYTbm9D27wa0EVZG+EgtAC+CjUeRbAMFN+1Hyt6403Zj4H0+SDXUUhk/Nmhn/4R9ZPoWQw30s7lez/pkUm9qyRJAOEqSC2VKYTMU/ZsRMgWtF/9ddoYiQSilq1GLwJFbn/MeA6CZyYW1QgMZAh9FfqgcLroTaCSx6ztHFtJYSJmTSqefvL943t/eBCec5Oy+PAuaVHUzUSmrgwY1tNDEx6rTJP3qRMbhZYeBJ0hAY+Cn+eBR+K8UZkyu6KD4FUSATAajny00qoGI4iY/kbs4U56QZe+/Q7TjGK8ik4cgfp+zXWPlqO1iyuuTJUhFnPj25IAJPXUNrxEQUOAAMC6SKP709sWDMAAAAADkV+uXsOsmD1UBUUnSgIYbDvnAdetZ1nVynnXrOs6qXeRqHOr4JkGxJD6lcDALVZHqRYKgkymI70Y9TmJmylysLI1kHcYDWF3TPke6xQB/faT0u0eYU1lXxfdBDgGhiVC5Mb7NLW/F7//whNrIMQZnWFgIbz4qfdyZ1hMYq7KSCz6eon2+l8PHk5+e5qHv1JmYcOSmpQ9XxywQ8GVcHskYhXoPANVRRbQOBe3jjJyOmYZUAJJ5R0Lw+ngRFfMbHQtTB/wIC2xC51+XC8NoaOLJtcSoMBNsCsvB+VbkdN97DF46JzGrJMtMWY8kOvoNq1JU1N8SBppLkrG0pkvL2d96iDMEr4V9Nnlwml4DMcJ6/8t6QvylJxCZmpVllB+dN/66n5tGfLP9W3+YqqSw23ckUjOwtQoAl8Ufqo4SCiEC7ujLaP4Ix0kHxNvPescJpP6Myy2I/khqAmwQKjRKpepd4x3QNFq9TVnoB7I967GD9dMCsehwBCpnVLq2Tjsb2vMgyz0DTggmT8PnnZRQScEw+zPVVEg53FxpUH+nJhOL9x7OnLxLGcAXowbcEyGb0AgtmhzmyIr24pN//7aUHD7KCFBXbunDVoslZaSa11OcQgANHsf5vG0pQ/LCgivQ2sO3VHL9iYx/EmWAwetxMZN/2r558iy0NhoOdN1G6KtXo4fJtqBsjiIN/bcfAT/G2xk+DC8z2zhW7Rs6KMkqYpR832ZtJPW9GVKb+L/l90SFwDsXHfjXMAQOywNbke+d8498m9YVF9su+cpw/e1+K0fLOnscX0Qd2YSryrLAx+b5NL7vdYHLRKFilGC+JzxMx/DBu4XnFDu6ADAxt0SG4t1HpM9c4K/prZt9p02023iuae/I5hTLBJT7GMYVEfPPYy8J3xh14A186CXdBn7CfHnM1OKgswcONBKmP0sCV8JHNS3RgYtSJzZ9lOD/FvAs6aMlz/Z9D3AAAAAAAAAAAAAAAAAABFWElGugAAAEV4aWYAAElJKgAIAAAABgASAQMAAQAAAAEAAAAaAQUAAQAAAFYAAAAbAQUAAQAAAF4AAAAoAQMAAQAAAAIAAAATAgMAAQAAAAEAAABphwQAAQAAAGYAAAAAAAAASAAAAAEAAABIAAAAAQAAAAYAAJAHAAQAAAAwMjEwAZEHAAQAAAABAgMAAKAHAAQAAAAwMTAwAaADAAEAAAD//wAAAqAEAAEAAAAAAgAAA6AEAAEAAAAAAgAAAAAAAA==;" vertex="1" parent="1">
          <mxGeometry x="650" y="290" width="61" height="61" as="geometry" />
        </mxCell>
        <mxCell id="ZQ0ltY4m0GD8ktAkjm9W-5" value="PostgreSQL" style="text;html=1;strokeColor=none;fillColor=none;align=center;verticalAlign=middle;whiteSpace=wrap;rounded=0;fontStyle=1" vertex="1" parent="1">
          <mxGeometry x="711" y="305" width="60" height="30" as="geometry" />
        </mxCell>
        <mxCell id="ZQ0ltY4m0GD8ktAkjm9W-7" value="pgAdmin" style="text;html=1;strokeColor=none;fillColor=none;align=center;verticalAlign=middle;whiteSpace=wrap;rounded=0;fontStyle=1" vertex="1" parent="1">
          <mxGeometry x="590" y="150" width="60" height="30" as="geometry" />
        </mxCell>
        <mxCell id="ZQ0ltY4m0GD8ktAkjm9W-10" value="" style="aspect=fixed;sketch=0;html=1;dashed=0;whitespace=wrap;fillColor=#2875E2;strokeColor=#ffffff;points=[[0.005,0.63,0],[0.1,0.2,0],[0.9,0.2,0],[0.5,0,0],[0.995,0.63,0],[0.72,0.99,0],[0.5,1,0],[0.28,0.99,0]];shape=mxgraph.kubernetes.icon2;kubernetesLabel=1;prIcon=api" vertex="1" parent="1">
          <mxGeometry x="430" y="296" width="50" height="48" as="geometry" />
        </mxCell>
        <mxCell id="ZQ0ltY4m0GD8ktAkjm9W-12" value="Django" style="label;whiteSpace=wrap;html=1;align=center;verticalAlign=bottom;spacingLeft=0;spacingBottom=4;imageAlign=center;imageVerticalAlign=top;image=data:image/png,iVBORw0KGgoAAAANSUhEUgAAAMAAAADACAMAAABlApw1AAACSVBMVEURMijx8/L///+ImZTV29mPn5ri5uWXpqFSamNccms7Vk4gPzU9WFBacWp0h4GElZCJmpWeq6eZp6OQn5t+kItofXZJYlslQzoePTRXbme7xMHs7+7m6eiyvLn5+vorSUAvTEMqSD91iIK/yMUTNCpTa2S2wL39/f0VNStrf3nc4eBVbWba392uubbp7OuAkowUNCuhrqqrt7Ojr6z+/v4nRTzr7u2zvrtYb2jc4N/4+fiKm5Zhd3FEXlYwTUQtSkExTUVFX1dgdnC+x8TK0c9kenMcPDIYOC/z9fTf5OJWbWaWpKASMykhQDb6+/uqtrLd4uEaOjBOZl/j5+YsSUBZcGmHl5Kms69sgXvHz8w/WVHg5OMdPDPu8fD09fX29/fn6un7/Pzo6+rY3dy5w8CImJObqaXN1NF8jolQaWGTop33+PcoRj3S2NeyvbqYp6JPZ2Dq7eyFlpHL0tBDXVb4+fnBysfJ0M5bcmtNZV5LZFxme3WaqKT8/fwWNiwzT0aVo58iQDfh5eRKY1t/kYt6jYd6jIZtgntnfHaWpaFwhH7Z3tyvurYyTkbv8fG4wr9QaGDk6OcfPjWfrKjb4N5jeXI5VUzGzszM09Hw8vLCy8iksa1pfnfAycens7AuS0J5i4ZIYVo2UkoZOTBfdm80UEeRoJzDzMkjQTicqqZBW1M8V0+Lm5YpRz7FzctedG28xcK3wb41UUmMnJd4ioXt8O+9xsOCk45ieHE4VEuksKySoZzy9PPQ19U6VU0XNy1sgHp2iYM0UUjYlPdOAAADzklEQVR42u3b+VeUVRzH8S8fS6TRNAKBMEQYGwYwJ0JBVrMYNKcpM5gkF4jKcqEErERHWggrS1u0PbNskcrM9n3xL+unOtT53uEgD888387n9Rfc93PPPefe8z2PEBERERERERERERERERFR1uVAMUcmuSxHcbmhgLlQ5DKAAQxgAAMYwAAGMIABDGAAAxjw/w+Yl6e4wlCAjgEMYAADGGAyIDR/wZULF+VelZ97dUHh4iJTAcUli64pxb8tubZsyoCl5YqQ+GxZRWUZVFPfhbK/R+Hl10UAWA2oilYDsBtQUwsYDihaAVgOmHc9TAesjMByQOwGwHJArA62A26E7YCFsB1QU287YNVq2A5ogO2ARtgOqFoDt6bK5pbWtmXta29a13xzUzADonC6pSMuk3SuD2JAuBoOG0qUN3HwAm6FQ11cTAQ0QLcxISYCbktCdXtCbAQUQnXHJjESUAfVnWIlYDM0lWIl4C6ouswEtECzOmYmoBualJgJSEFzt52ALdD02Am4B5qtdgK2QbFd7ATsgGKuoQBoNlgKsL4DESh67QToS+oL2wm4F5qldgL6oamxE3AfNPfbCXgAmp12Ah6Epn7tpQZs9jvgIah2XWpAjt8B8Qg0u/dYCZC9UA2YCXgYugorAY9AF+kwElC1Dw6DMRMBsgsuQ8PTD9jvf0B5BE6PtmydZgD8D5AVyCD5WH7F4weGRw7kHVx5aCA91fIOZyNgtM+7GVkoGwHyhHcBT2YlIP6UZwHlWQmQp9NeBcyHZkxm2zNeBYxAMy6z7pBHAV3QHJFZF67zJuBZaApl9iWe8ySgAJo88cPzZR4E6J9hufii5+jMA16AZlj80TmnaaYBQ9C8KH5pT6VnFnDMMW7wT1v++hkErIImKb6KFx6fznHu6z8o/3gJmpfFb690vHoUU+o70dB88rXDMskgNK9LNhQ1jqXeeBOKbdVvvd39zki7Mkt+F5pTkj2d77V2RaOnxwcLxk9Hox0L3v+gKCZOZ3bD9m9OH0J1UqwYgOojMWJPEprtYTHiY6g+ESPO5kA1KEZMQPep2NCThmpfWEzYVAvdRjEhcQoOn4kJn8Nhp5jQDZc8MSA2AZe9CQm+c1/AqUSC73wpnL6UwGu/ALf9X0nAFX+9Axl8I8F2ZvxbZPJdQoIs9H0pMqoNSaD9sAYZ9bZJwIXPD8FtyagYsPg4HE6Mig0//pSE4kKxmHHu51/wH2VjCbGkuKAXk/36m1jz+x/9+NuxP6vEoETjFgBAcuKsWNU6UJ9OjYplFy8KERERERERERERmfYXMpu6NVdHOmEAAAAASUVORK5CYII=;" vertex="1" parent="1">
          <mxGeometry x="402.5" y="127.5" width="105" height="75" as="geometry" />
        </mxCell>
        <mxCell id="ZQ0ltY4m0GD8ktAkjm9W-13" style="edgeStyle=orthogonalEdgeStyle;rounded=0;orthogonalLoop=1;jettySize=auto;html=1;entryX=0.5;entryY=0;entryDx=0;entryDy=0;entryPerimeter=0;" edge="1" parent="1" source="ZQ0ltY4m0GD8ktAkjm9W-12" target="ZQ0ltY4m0GD8ktAkjm9W-10">
          <mxGeometry relative="1" as="geometry" />
        </mxCell>
        <mxCell id="ZQ0ltY4m0GD8ktAkjm9W-15" value="API Gateway" style="edgeLabel;html=1;align=center;verticalAlign=middle;resizable=0;points=[];" vertex="1" connectable="0" parent="ZQ0ltY4m0GD8ktAkjm9W-13">
          <mxGeometry x="-0.2284" relative="1" as="geometry">
            <mxPoint as="offset" />
          </mxGeometry>
        </mxCell>
        <mxCell id="ZQ0ltY4m0GD8ktAkjm9W-16" value="" style="shape=image;html=1;verticalLabelPosition=bottom;verticalAlign=top;imageAspect=0;image=data:image/webp,UklGRlBAAABXRUJQVlA4WAoAAAAYAAAA8wEA8QEAQUxQSM4gAAAB8IdtmyK5zf/dT1X3rKRdscWSmRlky2zHzCAzMzODjLKTmCExvsYkZmZmjjFm2WLJKLBY2umueu4/drUD2u6tfj+QiJgAdFSNjUsNnTo3DV51i132OvSEs0dedfN9jz3/0utvvv/RB5999/3348Z9//3nH374wZtvvPTi4/ffevVl556w365brbtS3y6dO5UiKyhSTdypS1PPlbY55NKbHn7+w/EzlfWfTP3mlftvPP/Y4cMGNHVpiE0bpDgQWYht6Npj0EYHX3zH69/NYBtVvddKK9IKvfeebZz940u3nb/fsIE9mhoErUvoExG0NF169lvzgIv+9fF0ZavqnPdeW3LRVFXvvXdO2fqsD24/eZsl+3TvZNBSJMyJCFqabn2X3vKsez9vppLU1DnvVdmOqnrv0tSz5Yy3/n7cugN6NQgAiEhYEyMA0NB7qU3PfmIClaRLnHOqbLdVvUsSTypnvn7NXqsM6mYAiBEJYyIGAEr9Vtr9L6/+QaWmSeq8MhPVuyTxpHLCP49ea2CjADAioUuMAYBeK2xz6YdU0ieJ88qMVefKidLzh9v2WnVABMAYCVdiDAAzeP3jH5lOMiknTpnV6l05UWr5vYs2XTwGYIwEKbEC2CEbn/uOJ7WcOGXWq0ubHZX//vOWyzYAsCY4mUgE/bYc8VZKJuXUMy+qK5dJfnXtjksBMFZCkjFA4+pHPbWATBPHnKkuSUh99/RhvQGxoUgiI+i/8/WTybScKvOouiQhZ95/4PIQiSQERRay7JHPzacmqTK/alpW+k/PXiuCiST0RBGiNc//TJkmTplzfZKQ467YrBE2kpBjI5jVR46hpokyF6cJOf1/tusMGwUbsQbLXPAdfZoqc7NLlVNu3jhCZMOMjdHr9M/pnWO+9qnjT9cPhYkkvEiEht1fdupT5m/nPCeMHILYhhYbYdk7f6VLmc+do/tg/0ZEElQsSkd8TZcqc7tznHb/KijZgBKjz50z6B3zvLqUPx7bBTaUSIStP6V3ypzvPWff2xexBBEx5rSfqZ4dQOf4ny1hJYCImLvmq1N2CL3nlHMbYIKHoOEJqmdHUb0uuKMJJnAI+r5KKjuQ3vON/pCgIejzMansUKryq2UhIcP0+JgdT1WOWxkSLqJOb7GD+vOakFAR4Rl2WH9aEYEywpWu48Lxg8OExRFz2ZH9okeIMFjuF2pHhm8bCQ8R3mBH93aY0BDjnGZqByc5GCYsGCw+hsr613zFP1aGBIUS7mGdaivqknLi2FLzFD+ADQkWwyZS60FJJrMmv3zrxaccddplD37xx1wlqfkpuQg2IJRwH5W1V5KzvhoxVLDwbsMf+bWZqnlJOWVNmGBgMWwsfe1UOeuZrQxgrTUtbSSCXpePK1M1H5F8DnEwKOE61qFq8ydbAbEVtNVEERa7dha95iPlrD1hA4FB94/paqac85cmRBYVSxRjoy+997mIys8QSRiIcdB0aq08f9sNkUVVpYQhD1A1J80+ElEYKOEOKmvsOHEzxIJqx+h6C73mISr/jUhCgEHTu3Q1cvx5U0SC6kfoehdV89HMQxGFgAhbTqCvjbJ5L1hBLSP0fYEuD1H5POIQEOP4+dTapBwJCGobY8Mf6fLR+KGwAaABf6dnTVO+MgQWte6E0z01B5G8HqUAUMKjTGui6vZGCTUXaXyWLg95vgsrHT6R6CW6miR8sCukdijhkFnUHKScvC1sh8+g9zu1UaYHIkYdio1epMtFvAKlADDko9qkfHkITD2ghHMdNf/Q8wXE0vFb6pNaXYoIdWkxdBR9LvpqSZiO34APauI5bx/E9SEWr9Plot+GI+r4dXuzJo6frQ5bH2jALdQcpPQXodTxa3qjJimf7g5TJzFOmEvNP/T8Bxo6fl1rk/AuGKmTCDv9moscX0IkYaPMGxCjTi3WG0ufi97vDhM6rkJD/az2Y076cjnY0HFlPa05Ohd5jh4WPq5DXD/rj89JE7ZA1OHr9mZNEt4OK3USYbufc9LErQJA59dqkvKJJpg6iXHsHGo+2rLDJ+j0ak0cP1oBtk5KuIo5adJWocNzys6I6kNivEDHXPTjerBhgwlHIK4Pg6W/zEtfrRA8Uj7dB6YuYhw/j5qPvlw+eHjO3B1RPUiEZ+lYEDHhbYDUQYSdfqEvjDynb4+odhLhfjoWRkz4QDeYmsU4bDa1QFLHY2tnMOQ9OhYnYl+qFT1/3wK2NiL4B1MWSnT8ZBXYWojBJVQtmJjwlRUg1RPBGSmVRRMTfjIUkOqIQXypqmfxxJQT9zSAkYqMgSx+H1NlEUXn/PXLCGCMLEzECNBply+YME8HFXrH0ScvVwIAY1sKANN7k4eYpiysyMRzzFWbL9sVC437r77fa/SpYwFj6oe+rMpv7zhzzy0333jz7Q7/ywvTqWnKvB0GDJ5nWi+kT1K2WcuO+TsUvEBXP6S6pNycpC4tN5dTZR4PMq2qqjK3h5t8/3/beZ5p4WbxbCH33P8XzjOF3NP/RU2EJ/+/7Z5gohkd8GI8wZQd6TAQ4fY54yZmdBLssv2HkGdsZo8NeRk+5r/++98Ncamu4ziyRgqgRdE0xFYKHYMjzj39jBqfufAzzjzz2P22HToAAkgpNpknxlobRVFkc3ReiDGGyjp2syZ+9ca/rjx8g+4QRLHJKhPFpYaSIIePzg2j6bWO2XrzqJdvOngwxJRs5oiJSw2ClnG/ldbddJttttl6/VVWzc0/5zP13rnUkcrZH997cB9IFGWJ2FIsEPTe+JDL7332zX9/9cO4SZMmTRrzzbe5Oc0NY6isf/Wpo3LmR39fA4ijrDAlC8ESB1z9wmfjZygDarvRUp0j/fiHto8R2wyQOALi9S9+8dtpypY+dc7n7/xHUp0qpzz6J4NI2jkTW2Do1e9NTkjSOa/KgNrekHSq/P3R1RDZ9sxEFn1OePO3hKR6ZXBth6helb9e1x2RtFdiLRa/aew8KlWVIbY9IumV5VF7GTHtk7VY7cHfmklVZaBtp0hVnXtvE0w7ZCIM+ufMlKrKcNtuUVX1m01h2h2Lnjf+llJVGXLbL1JV55xppH0RmP0npqrKwNuekVR3f9y+YKmXvDIAt3MkPx/cntjT5qiyCOHolduPvk9RGYYzgFOGQdqHrX+isjDhrK0g7UB0NpXBOBM4c3OYRa7pbiqLFc7YDGYRG/AmPQsW5R8bwixCguXHUFm0UDl2SZhFRrDCRCqLFyo/6iFmERGsNZHKIobkk8bKImGw7hR6FjNKvRHRomCx6k/0LGjoOeMQxPVnseTX9Cxs6DhmDdh6M+jzDpUFDh1f7yJSX8Y0PkNloaPkNYjrSiLcxKKHnr/uirieSjh0Jj0LHqZ8uydM/cTYaDwdCx8q/4q4biwGf0jHAshz0jaI60Qs7qJqEcSEz3aG1EcDjppLz0JI6Y9DqS4irPIlUxZDTPnmYJg6EIO76FgU0XEE4joo4fD51CLp63Vga2ax0idMWRwx4VUwUqsYVzBlkeQ4eiPYGkXYYhJ9ocSEf66VSOkOJiyWHEetC1uTGPuUqQUTy7wIphYG/Z9lwqLJ8Zs1YWsQ4WimWjixzDNhqmcw8FmmLJ5SvroETNUsDqDTAooJ90BULYO+jzFlMXV7E6RKFrvRaSHlOXND2OoIevyTCQsplnkmIFWx2EK9FlSOHy8PUw1B6SqWGbwdv1gKJnu0zF2rY7DWRPoQ9umgLGLC6ztBqiA4imWGsI/6ZJLjqBVhKhMMeoVpEHu3KZPYzF2rYbAlEw1ib8YiWZTw5kZIJYLGvzNhEHsdJpM8J60IU4nBSr/Qh7CUzyHOJJa5G6QSwa4sM4Q73o8GZFLKmxohbRN0u5NpCFPyOpSyyfPbJSoxWO43+jCmF2UVy9ywEmBnlhnGFpyCuJKxWZHwbIM2C7rezTSIef66M6I2SYRxWeH40mKQti01TTWQ/bAGbNtsaUJWqFuwXNuAHVhmEHf8qItI26Tv5Kxgmbuh7V2uYRrKnkcD2myw3C+ZkfKmRsjCBP0/pQ9j5M2VbTA1Mzw/7te21ZlqEFPOPhZx2yx2mZEZmnKFtgCHMGEQ9xwzDLZtEY6ZlxlMuBPa2nQvXSj7wFhpW4zLU2ZmyisaFiYY8LtqGFP+Cw2o5B/MTs83ekFaA4YxYRBXzjkRcQUlvEvNDHXNg9tgTmEaxjzHrgbbNonwfYYw4WZYeOP9dGFM+SpiaZvB0hOyJOXpZmG9x1DDGJNLEKPtFjtNyxLHezovbGmmDOLKSWvBVBDh7AVZ4vlJz4XtGs5eR4wKS7iPWaqu3A/SSnwFXRBTzj+nshgfUzOECddG640v0QeyMd2MVGCwxJhsSXnwQnrO8RrE6G5EjAoj7P1HtjheE7e2IlOGcOVvq8FUUsK1zFbP1xpb24MuiJGPIkZlb9FniurUHq3YS+hDmHLKmjCVGCw5KmOYckArpYfCGPkwIlQa4chZ1KxZv5XOn1OD2LRlIBU14AEqs9XxwFaamj1DuL8BFpUa6f4pfcZ4jjAtlqALYj/GBhVH2HcqNXPuiltsTR/CmneGVNaAu6jMWOVbnQDI2WHsERhUbNDjE7rM0V8aAUR3UgPYuB6CymMcOpOaNXTsAaD0ZghrXg/VjPEYHTNoNQCdvg9hJ6OaFuv9SJ89nrsA6DJLGbiV96GqJVxBahYdK0A/+sCl/KRUFYNBH9Ixiy4xwJqhS/ldb1S1hFNSagYpb7bA9tSgpfx2SVTVoMuLTJlJT8TAsUFLlV8tDalKCccsoGbTRw2QP4cs9fxiSQiqadDrRabMpnGdYO4NWN7x7UEQVDXGiSk1k6hzu8C+HK6ccw/3gEFVDZZ+jymz2bM3ov8wUKvjlMubYFBdi8uYMrNWRzQhUKUpvx1urEF1Y/xpIn1WKbdCPCtIeccFz6+IWFBdg6YHWWZ27YFODNCapvzx7J6IBFWOcAKdZthh6BOeNE057f41ERlUO8YGo+mYYSdh2eCUpiy/sV9XRAbVtujzBMvMsgtl3bCkSUr97LQBiCNUXWAuZ8JMu0q2DUk+Saj/OXdZ2EhQdbHYs1k12241+wQjTcuOzW+ctgLEWNTQYu3RTJltD5ljw5CmZaecdff+QyDGopYWy37KhBn3gj0rAPm07MjyK+ds0hMwFjW1GPwqE2bd23Zk2FGXlssk01dGbDkIAmtQW4M+TzNh5n8Z/TnUqHdpuTklyQkPnrjJ4gaQSFBji96P02n2jYuuzFvqvXfZnqZJUm5uTklS9asHz9x6lV4AYI2g1gY9n6RTZv/46G95SV2aJOXmxDMv+slv3Hn+zuss3QstrRHU3qL3y3TKHDgpuikHqXNJWdn6nJ/GfPXBB68/l93PP37PDSNPGb7hasv272bQ0hhBXUZY8XN6ZR78Pb4t7/g08aRy6rt3XXDUrsNWXmaJIYP69+/TO8N7du1SErQuRgR1KhbbTaIqc+Gs+N48oz71VE5/7qLdV1u8b9cYOVKMERFB/RrYC/9gbpwV359ffOrI2U+fvmH/nhEWKnkR9S4W/V8qq+aG+fHjecU75ayHh/dvMmgpIoLcboDhE0hlbnR5RZXpCzv27SQAIMj3Iljy2QXMl/EL+YTT/7p8LOgYipw3i3mz4cVc8vMR3SN0EMUc/KMydzbmkZ+PbhJ0EI3sP5p5tNvjuWP2aZ0FHUMxi50yjvk0d6RPL44OYhStddtcak7plDPG7I6OoS2teN7Xyvwa358jNHm4KySnScvWbJfe653/hZKqucXF9+YH/eNIgaCupdV80HrU2GvAxue/NJOq3jPHzo9vzwnq+c1KsKhbERHkRLFRqVNTzz4DF19j30sf/9FR6VPvmWtnxTflA/V8rhcM6lLECFqNu/YZtOTya2yy/R57ZfeBh5905ojLr3/wze+mUknSJc4z906N/5YL1Cd3d4VBHYoxaNnUf7mh+19091s/zKAyJ2qaJKnzyjw8Jb4mD6jzFzVAUHMxACC9V9jolNs/bmarmpTL5STT05bOe2WOnhxdnQO8Ty7sBEGNxQiArsttduZT00jSlctJ6rwqA+zYaGT2eefPicWgtmIF6L7a3rf+qKSWk9QpA+630dmZp46XNMCgpsYIGpbf545fSZbLqWfo/Tw6LvNS3tYNBrU0RtB7k0u+9tRy4hl+le/YfbOuzKf6waKGxggG7/PPWWQ58QzCymftdhmX8JMVEKH6Yg0GHPZmyrTsGIqV95ph2eb4+2aIUH0bof/RbyRMyp7hWHmjrJppqjwBBlU3Ebru9WrCNGFQVl4uS2VamXd1qYE1WOfeqUwSBmbl6eiRZSm/WB0RqiwRep41ikmqDE+HIM4wZXIoYlTZRFj3hcQnnuFZuQviWdmV8G4LqZJFwzGjmaYM0crNEE3MLMfRGyNCdS163TFTU2WgWhv2kwy7HDGqa7Hk20wdA7XnINhnqNnk+PYSMNUxWP8res9QrWkjzK0ZpepORQlVNdhuMp0yXE/qDLksoxxf7wVTFYM9p6hnuFa+1wAcl03K9HSUUE3B8OnqGbQeioHds8nxnd4w1RBsP0M9Q7bntRbYMJOUvBQlVHWVX6kMXKcKsDR9Bnl+vTJsNaT/d1SGrr0ANKpmjypvRglVNPHbVAZuxw0BdP6N2ev50/aIqmDwd4Zvx8EAGj6kZo7j64ikMsE+SQDzaVcA0b+yR5lcgBIqFizxO8O38psuAMyl9FnjOWpl2MosnmcA93yyBAAHZdGzKKFigwMWhLHLbIv16TJGOe9kxBWJ6TaZIdzxYLTsmzmeo1eAqSjCLRrEUg5rpWmGata8jRIqFSzzGzWM9Wml8xfMFqW7DHFFMe5nEFeO7d5K6SH6jPltS9hKDNb5nRrCPJ/v0oq5IHO+7y5SSYx/Mow73lBqBTvRZcyLaECFBoMnUINYygPQ+pJMs0RZvgBxJTGuSBjGU66ykB5TVTNl+i6wFYjF1/RBTPX3PgtpfIU+U8b1EakgwiF/UIOY5/PdFlK6gS5TPkcJFZbwCAO548XRQnAE0wwhH6rIoNfX9GEs4Y5Y+FAm2aEsj0BUQYwjZlDDWMplIK0I+pWdZsjMPWArKOFBKoO457d9FwL0eJc+Q6asC9M2ka6f0Icxx3sasfDSlXQZMrGbkbZZbDORGsYSHoS2bs8kQ0YhRttLuCAJZJpyJchCBEsyzQzybZQqeoKeQdzzw35tWuxz+ux4AHHbDLp/TBfGUl7RGW3tcitdZvgbEbXNYtPx9GGszG3R9kOYZEZ5RCUxDptJDWLq5y4LaYNgVaaaFfOOg21bCZcykDk+07uC/p/TZ4NyzoGVNOBBOgbxhCeiwk5/YZoVs4ZXIBavBjJ1ujakbfgTy1kxYzuYNhkM+jiQOb7WvwLB0tNVM+KPbSqwWOt7+iBW5vGoUND9PqYZMWPbCiJsMymMqfNDYdoG4DCWsynG/tOpIczx5QGQCgzWZKoZdeKCMFbm8ahYMOAtukwqYQSDmPrmYTCVADiB5Yy6IoylfLA3pCKDtZ3TLGrAdVSGby1zTxhULOj3HNNsupk+gDl+vHw1ABzJ5my6hy6AlXkWIFUwGDpPtajynL4BLKooWOwRppn0ANPwlfCebpBqwGA/lgsqTTkcFlVa8XO6Yirl0/1hqiPAeSwXUpryQESossUm8+iLqJTPD4KplqD73UwKKHU8AhGqbrE3Uy2eUr62BEz1DBZ/mWnhpI7HI0INLY5hUjglfKoPTC0MlnqDacHkuWAfxKipxalMCqaEd1mR2his8CFdoeQ4fnNEqLHFeUyKJPW8EjFqbbDc20wLpJQfLg1bM8Q4jl4LI88Z+yNG7Q16PsWkQLoFMeoxxn5zqQVRyo8Wh6kLMfgXk2LIc+qeKKE+I2wyhq4IUvJKlFCvJVxAaiH0fKNI3Rg0vsS0+HH8YQVEqN8IW42nL3o8f98ZJdRzCSNJLXaU805GCXUt6PIKXaGjTP4KizqPsOoougJHyXsjK/WGGAf8QV/kPNdkDOo/ws2kFjXKd/qIwSIopvOzbI/DmPLVfmKwSBr0+YxayHi+1FsEi6jF8hOoBYzn0z1FsMgabDqNWrh43tkVgkXYYNtZ1GJFPU9rgGCRNthtDrVIUU13EwgWcYPh81mgeI5aD+2hYKd5xYnn/3RH+yhY77eCRHXOfoL2c8UJhYjnC0uiXR38ZvGhOmk/g3bW3OS0wFClm39rT0h7Axw8R1ULCVWqb350GRi0vwbLfZCoauGgSqZzXxoKY9AeGzSMmEalFgmqSia/P7gajBG0z2Kw8gtzqKoFgaqSOueHm5aGtQbtt0W0/7fzqKqhT9V7kjpn3HN7N8JGBu26idHj/G/mkeo7BpqjW1FV9d57tnRTvn/68AEQEwvafRuh54VfzSK98x2AXK2qbOP8X75746odegCmFAmyUOIYvU985eeU9KnXnKe19blS2aqfP23S95++dufp2/aDwDREgsyUOELnP936n5kk6VKvmt/uHnlZLUfmyUuvuOXOO++8/drLTj1wyxW7A4A0lKwgWyWOBP0PvPO9yY4tfVrXCadukxuWQz4vNcSRQRaLLRmgx9YX3vfWqKme9a2cuTNsTtggLuXmhpalUhxZa5DlJm4wEHRfb6/Tr7770adfeOmFun3lkbVhcsJQhFiJGkqCVqVzY+f67WTQ9qIFgJgoLjWUrGARLmAWKmLqWgqiRfu//qvp+lGc0ZGEvJUQ7rPs/muvy+RrbzpvCEy48xmd8ru1YcNdVnuOWqeQW/v/Zvfjev/13LAibsyG//VfITFukyJu/OaICrjN/g8rdWlSLpfLSeq0KHPlRLnwtJxqAZamqpz82j3XjBx51R0vjiaZJlpwpc7zqz/vts6SPRpESt2GrLHDiLepPimyNE354vBlY7RZhmxzr7pU62TCn4oXn/Cj3XoCMMZIq8ZYAI1bPMnU1ckWhYvzybX9BcYI2izGAN1PmunTQirl5AMtjEEVxQBbfcekgHIcsz1EUGUB1nqfSeHkOGknWEH1Ddb8hGnBpJx9BCJBLS02mUxfKKnyakSoscHBdFqrSVsXKY6vdYeplSD6O5OabVOgeE7dEzFqbjF0FF1x5PgoIqkdLEYwKYw8p+yBCHUx9Du6osjxLVipBxHcyHJBpORfUEJdxthnPn3gKOHRfOT501aI6sNipQ/owoYYvECXjz7tKqY+BOYeJoFDSq/kI8eX0IA6jXFJjSZv2+Ez6PxaLlLyVpTq5yiq1uLnHTp8IvHLOcmNrKe959KHDYvnmOaiBWchrpcIO08NHCjh0Zw0/4x62uG30NGAe+hyUfm8etppSugo4S+k5iFejVK9xDigmRo2Yhw9Nw9R+QAa6qWEU+kCR4StJ9HnIMe3EUudRLiSZdbipwBgsOTndDnI8+ulYOrDoOdjTGvy6y4dP4nwYi5STt8fUX1YbPgDXQ2U0/dH3NFDA64nNf9QeSdK9RHjBDqtyYyDAkCEfafmIsdPB8LUg6DxPiasoee0fQOAwaD/0OcgZXouSvUQY9c51Nr8tB2iDh9KeICag+j4Xm+Y2glKdzJhbUatA9vxi3H0DGoOUvICdKpdjL2cak0cPx4A0/ET6fkZfQ6i4+hNUapVhGXeZcoaPY9IOn4o4RbmY8eX+yKqjUHnG5mwtspb0IAAaLH+RGoeUuWtsbG1MAYn02ttlDOPQBwCEOPJfESl/2tko+oZiyPnqWdtPb9dETYIWGz7OzUP0au7vhviakXScOYcdayx44uIEQZLeCkn0Wvy+PIo2WrYGD1vnqeeNVbOPysYWGz+OzUXUb2O3t8gshWIjYE/fZR6z1p7fjkIJhCghPuYl9Vz9kubAja2Rlo1No6AVR+YSlXW4Z0oIRQKBv9MzUdUVc549bBGCCDWCgDYvR77nUplzZWTN4ENBrA4dQFzsyo595cXL95t9T4NpV4rbX/OY5Nmk1TW5f2IERAjvJqfSCXJZNa0X3/++depM5tJUlmPyp82gA0JgqWmUXMTqco2q7Je/wcxgqLBQQuYs3WhrFvlmN4iYQEWN2jOqnvlvGMQITQavN6xIR9DjADZZ3THZlRvkRCBJSd3ZP7YAAZhcq2pHZcFR8IgVG48o6Pir4BFqBQM+7WDcjsswqVgjUlU7WAo+SAsQqZgpa+p2qFQ+rtgETYFvV/03ncgPJuvgUHoNOjyt3mq2kFQ5fSzxCJ8GhMf9zO97xB45bhdYRFCJcZq7zjvNPep9/xwJUQIoxKh1/VT6FzO88opN3eBRTCNrOz40QJ6zXHqHL/c04pFQDUx+l40ns5pXksdf719AEoGQVXiCOs8OpMu1TyWepbfGh7DIrjaGN0PeW0unctdznt+f14vlAxCbBSj3wnvNTNNNUepSx3HXL0iTCQIsxJFWOK0fzu6xOel1CknXz/UIrIItyayWO7UF+bRJy4H+XJK/njNpiVEEcKutQaDDnxwHpkkmm9c4uk+GbFOjChC+LWRQe8db/zeU8tO84pPEnL248cvC7ERwrCJBKU1j358LpmWneYPXy6T/j8jt+4LMZEgGEskQL/NL/iYZFpONU+4pJnkr3ftv6IFjEFYFmsALLf9xR+QdM2J0zzg03KZ5OS7D1qnByCRCMKzsQCw9JbnvkmlJmWnmeZd0qwkR92171o9AViLUC3GApDBGx197w/09M1J6rNIfZqUleT0587acsXuAMQKgrYYC0C6L7PJGU//SiXTcuo0Q7xLymWlcvpbV++6aj8AMEYQwEUMAJjFltv8lLu/SUhqUk6d13ZOXZqWEyWV4x89b8sV+ncCAGME4VzEAIDpOmilnS97drInSZ+kqfNe2x1V79IkVbac+ORl+641pKcBADEiCO4igpZx7yErbX/WHe/MZKs+SVLnvFddxFS9c2maJMqW+vsH943YfoXBPUtoKUYEwV5E0Krt0mvgCjue9rfHP5vGhapLU+ec996rqtZOVdV7751zaZo6Zev6x2cPXX7YpssM6N1k0aqIIPyLiKB109DUs8+QdYafftPjb3w7Q9lmVe/a6lu6Nqsq2+5/+vSZWy44YvuVB/bp0RhhoSKCYlEEbTSlzo1de/RefJ3tDjzzylv/8cTrH349YXrCWrp508Z/+fFbzzx828hTDtlh2PJ9e3Vv6lKyaKOICIpTY6O41Klzl8amrt36DByy5PKrrL7OsA0333rrrTffeMP11l591RWWW3Jgt6ampi6dOzWUSrERVCit/W9vVlA4IJoeAAAQogCdASr0AfIBPm02mEikIz+hI3O44/ANiWVu8mDXmYBJzzLtigBa4B/sf3/zogQGADuVC0KT+Gf6Af0BFq3N/r9dp8D/cv3D/xPyX19+qfjX+y+6z0Q6y86Pyv9U/5/+P/Lj51/3D/l/1j3Gfor/wf3v4AP1O/43+T/IzuF/3D/oeoD+Zf3T/vf6b3cf71/3P9d7jP6v/tPyM+QD+a/4z/9e0X/5PYQ/vP/U9gj+Pf2f/u+zZ/x/2/+CD9tf22/4vyHfzP+9f/j/S/9X4APQA/5H//9yf+Afv/7r/Wr+x/i/+z/l1/rfyF/bXmmP2d6Esk+4L2N4MB6LzGK85DsoH/neB99Y/5HsAfyv+o+jfnA+wPYB/lv93///rneur9vP//7kX6v//oVZKNxs7OiYFIIOetyKGsujEW47Rs3hvPjSrhQscHt+fOyN4+UKPnVJJRuNsPR0vEhLddVUeN9nmzt7OlJcQk7wXH140U9swB3OqRe/dXgJYU040Z7x6S5NWNs9j3exlYFvnJ/IaD9f0FPbMAdyC/8N0i+WB57KWo3+OKksbKr/pIngrybFyXkuQeF/oKe2YAyVeIwe7cZsOhdlR21zvNUvtOi0wsDqlLVw5RjrVJJRuNrzrnrcvLNdqurBb1NKWfu2fJRBfNG42w9sv9+h/87DCXAOwxzHINbpKNxth6W2R0gkOgRMv3RGFn2uHJ5V4/5fYHWboViHgnWBwRItb0IrJeRUS4juGyino6Xglk9KwIT0HoHst/sOTz89uSrmwAucv4pS3YERvYY6HFAFN75vnZq3+/UAmig5VJUNf6AbFyzFOQYva7HC9sPYqG9qem1blJMe46ja4ZgDubQMTNY1aNxlv9v7gMC5Q8iErSYyqFglkPO2+ZuwOtBMEko1RhwKkJELwVMFzK+ifG4UJUgJb7WHnYQdz/wOwIaQdJjigTpOVqCsgpYTIoS+iNsN/cZmntl/qKTAuDyn3HKilGvALcDQQKeo8ZTduNvk5CrjMpjWuzm2yo1HsADYHWZEFVDAt/oKbysPRwLugweKsyxYa+r2WySFtCjGXaFGJPMlE7iYNYyHeUAoTvFnBdahxzAzszmRJyAO5HCktjgN/31oED0R9Qr1Tr5SfqjRfJn8Lk/nCloVIbJ4uG6v/6A5h/vJ29cdkhzylAZJvmbz+a6L7Z3OoJcqCT4VsPRnJeNwAg9b6Pvw3MU3rOwxNgdhPIKZObgUxZc799Bz6qeaed0YfJQXmfdkqshO80uBc364AmFp7nc/mj/8PJHdupz9cgYuOPuHpdgvg9Q94tPyNsN/TbpDQaGm5W8ZX7MTLhIX/uMXvcjf41bUfoN7VfPapNkpX+VkTZ2+WWGRkPKAccSSab1MnHVvzXaMPZO9u3vGintzCGdapVpr8BUGMlXvsg6y9LvQ2cOmU6M0tphrJuHaPGwp7ZgDMO4Q7J6GSPVN7W2E0wO+iV6PUFG42w9qjpi+I0b4i/VGDLsc7SyapJKNxth6U1SNaO6zBkzoTR4DI33Uew1XQvxNuaOcA4e2YA7nDi7pRzTqQ2jD42ZMLNcbHF79LyehiimAO51SR53Lur0Ew625imfAlMOwPQ9BtZ39SaSSjcbYe2RrbRQURtTBnPPYIAIxrmHARpOwv8DudUklG32nWNC68Aypxd0ocuhgc4NeCG16UBqXbolM35/j/rc/8R9SSUbjbD2zAHX9V4kP4nkHPEmhnVm7ZgDucIAA/ua4AAbye8roqi4fh1yN2XIkmmZuEr2I5ITow5EWfMZNS53BP5nhLCXYh1PR7AVrx2uhTOiwXFAZ1h8/kPKVr2ugpM+RDU5Qz1vRrPJUX/2+HbubniQdx3mRzFet4+vOaa8ynaAzeNvAIHNN4qhAFqTEidX3FwupgSTG8sLIJPBXh7odpq22jujoWeNW76uPsQkqUFUHhCPaYxt9SeJWkLgMUEvSaB8Aky1sAOE09W93VXeyIWKoZk++uxaNUg9+3TOmqRyz0f3AibsS5iBSz0v0h9dVbTYbcnh2z+oCBHjSd4sGkVYXb8iCuSecNKLEIr0hapWM8AeLXQYV+x0Q4gJ9L78aryd+db/04NrqIqQ2UNwlvepR98AIY6YWc7q1H0/bGHwDa+WgAmH2kw2vVggumRznHGt3Z8xe6F0OVDCYbM6GSuQqsGfobl/0gLv1j/KOJ2M8ohiUsOfRwmmBN/FaI0bbZk695KLU5U0hsmqZpx1Fwxd7ODFgVA9t0Nw7yi+sW2pt6ZSy00JhCMi02XNTVmch6lH4AAAAL2CVKOWucGIF+6mg1X14wi2y9DwHzT5R2flR9vHcMqmQZJQFdP2WzkvddgNhv/6OezmY8lR0gXeJRlD/7JO9YvFXSbTSkNFkLcz9ah6+7HTFvww93oH65k2UE3xqW2dX/1lzSiE98uOPgqmYDo1Ua8wXTIbgRNDTIMcWvcHxWIMMIbfKZNDGIPaM8YPORt1cUKDrLrQiVJRMzN+7EXdfbTpvF+70q2HBAspXAAAAJ7QnIBbqOTdaWy4ZKBLLNUPMMMu5lRZUrDceqZcMmPnV+4KPFA4vWQfG8Zqo7U4SWN5rswrQ5zk3lZaT20Ld9/Uo6dWgfB0dkn+A2BBYJwiOSelx/us+YNQ4P1HDEHVos8ANEEa5C3TMb5lR6rRca4gNZPCzPzK3vFhHOEHxLODevSfT546nFej0IDhk4vv7fNZdTOIw52B32BEFtX3r1TJ49bf3su/zMdTJ8AxMNQByBotvl8y//G+u7OzEYE/ITTGTvfnc8AAAABUoT72+rk/1SSCiIP5po4IUqxBdj6kC719T6NIJDouhtnlXh73MmzkieDZY9WLnNpJkpuBhZwacP9ldoFlOb3cxg1Jpkk25MbOtyczf61praXP3jPgUdE8zIprr9YJrAO3ksTSvg34/nqanCROi91YUfOWsUg2fyhxEFWF2uWMIQDtvIuGLCTVQGIRd7DAlxhQvQBbcSZV+b+T67WJ+jgGximzLSikZmdzXAOygDZ67sJf8ZsTT/7tR88GwiAAAAAyG7oIxKUnxIeuVqpbPNzNAlHU2swEqpTFYvmkMycICVX0nniYOiyAn4wxvgNqiv3pS0Zb1umFuxotBpTCUnC0UbaTW+SJJ/nS3bZklla83c8SVGVfVqwewdm0iSSk9E5anrsOdhcBHoy3P2w/0ZhOo56AT1ZG6lVYL5EAiynjmOYp6MDMrUKsXO/RlYIB71iZWy4elMUj6Lgo92VG5Clc/KdwhRPycMd9safBcNE/C73zYi2+UfRjJhR9930peI4XvXU26NC5fOtgUvKizFIgRK/8+VuL1NqLrP7miAAAANqoA5YXSpwPzzjOZV631aHGSh3x1QhrxmLY9b4fOijgEspeovIxRxx4Co5yR5uakKq7svFkAhX04FnBiVvAQNioxUoqm/XjAh17wiN1aQn4gAAAsfMROwkzVtK8xqarP28aGLXVtV3fuR76H9IR30WXNOxafwsPCGFWqY5sP8/oAABW9jCCnAG+wUVeTctEhGXNsAaNdwL4MViWuFhQQ2u+NG+x72LpPPpzvMCAQ/1YYOdYorTjEOpIsroUkpm7EEXRYVEZsiH8wIgEOXAWcwB/FtWTE2tcycRHRi5CB44lg5enW72KUDxDOlrM9IJprlVgi3+x6aY5IrberqSxX/MKRdwjcC3PrDsWsQzucbgBiGt1sBANBwGO+YGXSMfJOcy0oxTQ9O4RQpxvFMCKNCdLsqoNaZlUR/9PBDVYgaVSK45YHmXTHmxWL4edkUfy7qTlKTcAdemooCHErKK6iKmHTCf2Mroi5rSCRJuJrj1qco3EV1mJvLOVXCCuw3hfT7HDO/2Deo7FXGD5Sn1Wlltrob5bWvKCaz9oFmFTEmoN5paw+PHBfE0+lbToRUUVhXMNdOdj4OWYb5Jy9+MHTU7QQw4Qf0034ULD3WNWpbwomAG0g8K7ImAC7Owybv8NskGXSOHHFK6XZL7cbHqw9KoSAOhuhGXCXk/YjokSRfppjSbOg7WpZWvoYJQWU2pYx26FcYVbFb9zV76Qrya0dQDdr1+2xuM2jADGGwAQ/lly3SGzAVv8hIdq5s6xPmo1MMSdB3ry8WbNaI5CKWjV3bBd0D64SVrUxkCdZVpBmfavcun/wNkDkcsHZfOt1RMWjQNFAxLSSK1It2l0gdtEQMXeeZV+23L2y07oOytrSNOJJ3woBkPhMPUHW77nOqGPUAi+y5pQrnP2uXO+6X4TTc24rxl1zYePMuROE/Y0FDPW+ZR5eL6nBu1zGhqaqbF3VJkSwCFlWOULn6LLflHgNlKi8ZbiXVpXm9Lzonh8Xy1mFA2aKEdS1ekrPUqiwbGGWYEktst4uxfxV+l6Q0uFeEdeBb4cfHyjec0jXOO+V8g0kEQYEhBYFIhQ1zV31gI7clN0RDPgZNuMfGzN/6t6dYFFqSRLzQ+28JBFlPOX7o3rltKYt6E8uLmyldxmnuvC8cNgdhzpzdWdgDBTn0YkNhL+VTTMZl+sT06w6MjNO9DX6SX5gJApGoNDIMu4vDV50RJSBmpaP8GuhY3TZ61fP0ljRg0twCwyZ/O4Ah8Kuplcfob2t/3qn3FYP4anQlIz/7unBLleaztLMqxWdXe83fDItPbILy4RqTmkNEqpnMpNHMA5pUMLkEItwe72WfDePlDFWR7+r10KFdeWGs+a7/S4+LGTOdQUtSYloMAD/hem5B85yJN2trD0WLe9MC+VPBxT+GARqrYMg2rxr3+0iXPhEmCp2moqremPxB6InrKrNfLsuSvsEMqbo8KBn+pOhrcDKm1V4WZKTZSZ6En+BtbRTphlQVLILh6sqEiqiz6boiE1ONnLEssIJqivhF8B2SRuANL4Cv5J6KUWcEmg5dMK7oa5jSbVbWWbB9jjzHbB/pItlS7AOlMYxGi+Jn7FYs1m3ku1CaBBt3EgmeTI2oDZAe6Y24eg4amG9pk9cDvbVlw9vnOqE808yzRqvEwBqlp9Jnn9AKNxOFmt7CETiwy/6yGFu/xMESMekiS05VWGeP/QjE/FiPZoKyJAMC4Fps40djGFgLPkkMe8WDb0TlHYOWBXa2K9lwevKJMtKRhQa7IUckOLnCYaTsyqN1DpsN20nr6hM9GX4STkqTrjDLfSkNMTShHJ4cZJDnzn5PHANR1GlGDZ6rzgd/90AYDOPT81VhoVC8iInM1aSvH/sUmjj+tU3VcOe7ynmHbTatGpwnG0cjfsT7OunSRYT93/sQOVWG7CjjfagcGzDAr+MJ83Z4vGhYeyUivxdxDUb60UxnwgW0AbAEZr8fgQUbDC+F/j9QLPHv8KwdRjvTVkVnAHSc0Vt+7Rp5KXhOA1Lmkv3QIcwcints2z5i7G6RII//o76hY8Om2wkv0Wc8SJuzEUxBcYHGf9nzVUmtp8BAPC+6swAsD8fxtkHUw5INEH4goLEbgD1PDDidpoN95eCe7HV/8durTHFvhpxeM8D6IAq2ep8rMuJZtCAbSi0kwfdVKuy7nHqWwu39IlfWX6wfm9nDZyVVF+SYXuuwNMDt1R6WDBY1xEXEPNy2uRQmRsmioXtOMNQKUlaUvdNHY6HftoUKKOBqVGAEUWPE2D3dHRlwC3RaFlrYdz//2GPpSdcZd/6/pehLlgnrLzigoLzdl9OCYUf7UwymJpUa1OfldKh4BwCAhky+fld6NlChtebjoVfFaYADLy8U/Wq2OW8PIVSz8JeUwaHByTUBX/Pqs3RqpImPh2kNdCsHLWnhCatxW6c91VDt4As9yXPkPKOJ6eohsMqOEw5PgAR6ZDaJezClPgQRidCK0nkp8qjNZB4bFc+MF1MecYVQ6dy25WChSD4uGSy8pet1vRtpJQKv3DY5g0Lh4Jj6gyER/m8GQsFrakNlZXcGeTqFdGiXc8c3taa6beuHLWy4uNlr4KoEo5csBb1o1dGAK5zK9I/iw/vukX8eLdbQOqbF98OtE5ck2u/Rk/b9+OynMiexfN6AInz9MCdLB1kizrCen8ktkdsjCJQuGkOy99TtfmmhI4PBVY3y/Reak7MvCH4AYrvZ1NN3YNXswC7LN+r4A4gDfWHhBjciZFmRefKjgYVMv4zPQm92UmmwNNgcjr9Tau7ue7qc08VESinA7vKUBxvEiqwT3UaLiimoZrgQSwqRQUMFBrStDyEOjPGKme0/pklWJRsDxvY6rx1gNETWatLKtnTwC8blMBvGDVsT5qEnsGpq3Ifspi2nvX4K8cOH29SfoOPpqDIIu8Dkm2rCz2aYgxjMg5QZ4SY3ufZybbg2ARfyTah5wIyS5ZKYlGG8Oes/9lYUMQ82+EKxF+9uQ/G1mFs7567ly2oZWRlpBQVyP6IH9QJfDz1E9E3vQhCrFBy3Gel7uQYOw1xKotGwpEHoYD+Nsg6maH1JAaLsvCEJCwViG2JfyRWQwnyeVR+nvsdukQVQFU8k+HD2NWD4ZEC6298ikttF+0sn22JopdFAOQqWu2ehD90saQmGyBLVHGl5Dykfj7vnLeUG9ExZJMoPaK/b14eA47m6fSnLBtgmKVyh81x2LNaOwPfz8RWZtIFbmji9qWylzx+wz2YnmDUMhe34EKIGLZV7uOFuz/sv6fNGY+l2JpGI26RJNpG8Taz9pGQd8UGXNFTmJFjONI8eOx1vEBYxMC2cJl+0RW5GaJbL4mLc0QpvhngMouudf3y9tqLL8AJB+NWV2ZnObRrJgSxbByTLVNlFnsA3LDeuPYe+4IQKClB4vqB1Q3mEAuJEu9ohdaxn5j9seapRqL+tGzqYzLs1yTrDU7FNyk960I4iMMt6q0JvX2Vdd3E852LNpWBTbc1A+LeBFPsBe9xLyciXaiue6u8tTrOUVzwA8F/cz46EIwg9HANKDQ5HQG0T9uI8q2e4dsGyEyD1usXm7fdbWPEBbbu3bSYKfk1wPCl9hYKeGgeDls4sa3w7h1TKDsPB01B9wjEbA0Zr/DnkzhUCNFfmfBmhgdxx/4O/Xx0D5OEfdD5tUVE9Puiet2KAk55tZsNO+6frDMvyOmhuaXVAoD5GVlpdvYabg+fRUJWTKvTl3bUZc6vBtuijHEC+QjMuV8eba+EfW7l8MWUBlUsPFzeWoSEnyVd0GVebpLFofadd7v/SPngaILa4IBS+2Il1DrKvI2u7OejzO5ztp0pcLYbzecoa1dV0P4YB+FexF6jDWNy4LQfIE2Egajy3VUsTx+rA+E0fktTI6HseQD+Ej2C2+6qNzyx3nwoFkfHk43P//kjMJhJ8gqUGCszYvpnxsEkHAnMveqcuPpsJ6aTHVIui3WW9QyPe+8BvUT7/gV6/mBiXoFDnPX/3SL+t1VGow8rqON9yqBMpc2FxufMjRxIQnMCMyXMl44Cou8Cdnj4b7wLcRfACp3kZKMqEYsPnbUmBnn9g61fOF43ANkbLVacGATZLBx1B04nwWQggKmSWJ5AppvnQs2pteNQwtEdrogwcegHtFSQIvsi+KYDPu7+RiDVy3igtEmBcN9OzrFZ7fLxqV9hS2FUIqQ+zZHKLTXbaFVL2F/3Qn1d2LpK2j3DuPjfVU9OJV6qqNhOUQgh6sP2ImhL6gPrKGVGfUrAWSYb1Cg0e4cBiYWBQmHW1DRIHTMOi6FQmsYbrrVoyxH3g9CyniJwCFD8ZIdy2bVYr0Ry63fSKemxMpAeJqBdnsboh8tWJvqG93mueJz4arkVBPZ+KkjdjUP607WfZNjgOGU5vN7TU+MszUvvBPl7eciMwvv8NmrutIn08bZyY/a7z8wJIbP7lFYbyDMhTdJ7G6x12XS5s90UONr1l4haXovfoWwo/41V4jQLE24Wrued28nM30g9mFm3m48ibssU96LG3eWW8VRoPU2Iu8qFOZnjENKaHlDraWKBfYfJpR6jNsWUFyno0+uEQTrOL/byeuGbQ/dT6/HpAqUuhrw4uTzNYLZiCGXc1oWgKuUfBvlZPrUFh1ueKctcWCqVPXeaHmcuhqfDe5JHmwWPK2Xn/sjkAYfZtbVLBdB5aUO1PD1oAoQBuJRJ1qWWgip6UfGapwGrlmqHpdyhHzhQjDxvSSCWoDkIYCOboBfiIxcocF8arRM78/Sl7ioNwQoMtg+6+Pcz5iwcSDQnXww52epfSHHWZNG8LwU9zQo+T4SItalR3cA/LKU84J6yjAba6FjApiuuwz//o9A8uVtoKlXVKwrV4XGIe6B/KC0mZc+/T/A0qmXtjnrz/Mm3UOjIIfq/BYwJGSNOnfVKa/kBpNf31l1rv3NITA5Hi64KucOHuMyqbKgZPIG44tkd77dORM0M6RdWZbZVGv++g8wNuhQuuRgjgR7aKgAN1Zl++Jytp9sN0A0xaXIJYuY99v4QMIsZ1wJZu5xGpXQg6zPbch5rKVazgcHmiL0VZBaOedvSMJRii4s1Pi+VlnBpFgVUU0e1M5X7k1U6X/jsWkS1MOB20vVXI0U3wdlvH1i/jkaNCgNwt5j+kigHJAsqF4rKI8nuLEyXO/2VuebpVCNJ3yzWgBt1VeRe5Kmy57sHXUkQ7RWjIrUMe9wnMuQHAn/IxwgGObPb6uieqJi+OAAZ4L812515Fsjk6PzppCMvrnrQISbNdpycfnAAAAdej94FaCkEUN7dYjAj7nhiUxsDg/I5M4hCAbLwk3rko1piT0nuI0TYkc8s1xrLwUuOCTuZPMGoH9A1IAAAAwIxpBk7gxXp8DGzZ4APGI4Jnoq1d2pOzo7YX/94UaoSto0xPc/ggAAAJ+qXkkgOSc2tuvAIRwvbA0ydRKey8WYaey37pOePjSKNm1MfWyp0u0pF3jwnndqeR43sD/tmETswJ4qoqVANUn7YHLtbho7YEKF2Pnq7+wowU3F457c1xAafM2vc8WeLlUJK8ki1LqhqyuQptD1XR4R/+Z7sqX6/fhcJN2F8tFtbdpB6bg8qNcd1vl+5LHUp3TjmLuEaB9cmoQy9drqSoWvGd4Wz32x3isNJ2HH4Awrf0AyO5SE+LIVgQByniQIToOF7OIJgR3AAAABHusGpONvtNtGCebev3g3iUykNLGhJ15OxNcccqc9aaBtdXcsh/19Le0+POXPmFB6v/tI+buSzf/CgCnQ7WjvCwjgUQ3ghY7yO9uvQohpvKR74AtKXd8+PcgP59NeRozngjtp5vJVvI+Bhjf2YAEdbxHFLfvKv5OD2QpTFsWLwAAAAOv4Pky5LkhDXuz1EoAi8EKi2jz4On8lGlJmQ0DH6pJYxkzJS0qsdiszrymlntNYhK2L8i7Mogjdx27JtrbPa/JBp4no/oPtsglZr4QQN9Wfkv2qtRQ2bLcP4ETRX6XjuNnnB82exhIuBJjoGd85W3ICXQt2mhDHveYcgjSQNI1Xt5UPqYjFv/6AlaEG9FBM8FZBKOvYAwT2sfvWQOo3PueMKDYkqqEzNzNsRQ+rWGk24baIKrosmSn2AuTRk/O4TOui5fGS6LBROPsO3PVrr7fe4plP+gdQnAR4Y0ak+UCdF/N3hu4fBtW07OThPTONlgAAAAINK4yRa3mNBMi8x9u/dMd+BYNaUxKmb6xGIHdCu9hoBCtriXVW4dWii3JoHKail2e2fgutoBqQVRaZyPfXInqt40bQoEwSLfgsCVIRSJ+Vl6V3gWx3vjHUUndonYSpj18ZVUlEyWUt9cxBqJgjDOJAOTrBxtaXaUSnsTdirnDstBQfBdH3pONrY8yzFjZwtgAtp2uHeZai5w8BEq0EqPVGoqfch2rPme8nO2gAAAAHHRxXrKaq2Bz+cVs/oIiIg1ShpthkPzoaJsQssXy2YJbEiaYUtwCZZetsS3NCwA4iAXJuYqDI8IRl4S12vEc14QE17YwvetEMayZKg1oOGd7KyOhcJi4NzOEps/O9TaWhzylgysIezOyRrNiqrJv1LGUDgyOIgmnkUjq4q3Y3e59uWSVxht4M6oKyCpNL4mnjUfA6ooKAH5YbA+Ut9K3YZ3Oc/aXVTSeLgM5C304Zo1x/w0p6+NJveZYg/qGC/SE2JVQOLvhfv3jl13HtDqJkgTQKQYZQbLQOG6C2l6j9oTYg0jGfVFIczEsjwN/DVNJ2en7fUnnPn68PRNujaQTMLdrVG0QwwABRirswjISkSFQ8a7cW9PFFeLY68g7/bPD5MJ5mDeAiU8K6zF/mK1aJGO97BkUnx5XcVTzhzv1GBD+7erSLmG2TkNFwQ7lE9ZFCzrx6r92ZbZTr0sysazYtxGKhFFLHCylH+VRCHGiKAfWQ0TSfeUcHvbhmbt8ziAAAAAAAAFye1ZwXIzchJURjdnGiGK5L43ZxoTCyUq8DFE2iMmEwBCDdEltIwVSROxN2MXOAWsmJ0da9T9VNprM6Pd/lg9bfTP7h0bzf+oqq7JvUL5dEVEGnu8BPoG6fNk78i6Kpv0mZsHBQxg2gqO7ep4RQZ+xM4lAAAAAAARVhJRroAAABFeGlmAABJSSoACAAAAAYAEgEDAAEAAAABAAAAGgEFAAEAAABWAAAAGwEFAAEAAABeAAAAKAEDAAEAAAACAAAAEwIDAAEAAAABAAAAaYcEAAEAAABmAAAAAAAAAEgAAAABAAAASAAAAAEAAAAGAACQBwAEAAAAMDIxMAGRBwAEAAAAAQIDAACgBwAEAAAAMDEwMAGgAwABAAAA//8AAAKgBAABAAAA9AEAAAOgBAABAAAA8gEAAAAAAAA=;" vertex="1" parent="1">
          <mxGeometry x="442.5" y="100" width="25" height="22.5" as="geometry" />
        </mxCell>
        <mxCell id="ZQ0ltY4m0GD8ktAkjm9W-19" value="Backend" style="text;html=1;strokeColor=none;fillColor=none;align=center;verticalAlign=middle;whiteSpace=wrap;rounded=0;fontStyle=1;fontSize=20;" vertex="1" parent="1">
          <mxGeometry x="570" y="60" width="60" height="30" as="geometry" />
        </mxCell>
        <mxCell id="ZQ0ltY4m0GD8ktAkjm9W-25" value="" style="curved=1;endArrow=classic;html=1;rounded=0;exitX=0.995;exitY=0.63;exitDx=0;exitDy=0;exitPerimeter=0;entryX=0;entryY=0.5;entryDx=0;entryDy=0;" edge="1" parent="1" source="ZQ0ltY4m0GD8ktAkjm9W-10" target="ZQ0ltY4m0GD8ktAkjm9W-2">
          <mxGeometry width="50" height="50" relative="1" as="geometry">
            <mxPoint x="580" y="370" as="sourcePoint" />
            <mxPoint x="630" y="320" as="targetPoint" />
            <Array as="points">
              <mxPoint x="510" y="280" />
              <mxPoint x="580" y="320" />
            </Array>
          </mxGeometry>
        </mxCell>
        <mxCell id="ZQ0ltY4m0GD8ktAkjm9W-27" value="query" style="edgeLabel;html=1;align=center;verticalAlign=middle;resizable=0;points=[];" vertex="1" connectable="0" parent="ZQ0ltY4m0GD8ktAkjm9W-25">
          <mxGeometry x="0.0085" y="-7" relative="1" as="geometry">
            <mxPoint as="offset" />
          </mxGeometry>
        </mxCell>
        <mxCell id="ZQ0ltY4m0GD8ktAkjm9W-26" value="data" style="curved=1;endArrow=classic;html=1;rounded=0;exitX=0;exitY=0.5;exitDx=0;exitDy=0;entryX=0.995;entryY=0.63;entryDx=0;entryDy=0;entryPerimeter=0;" edge="1" parent="1" source="ZQ0ltY4m0GD8ktAkjm9W-2" target="ZQ0ltY4m0GD8ktAkjm9W-10">
          <mxGeometry x="0.1446" width="50" height="50" relative="1" as="geometry">
            <mxPoint x="580" y="370" as="sourcePoint" />
            <mxPoint x="630" y="320" as="targetPoint" />
            <Array as="points">
              <mxPoint x="550" y="380" />
              <mxPoint x="490" y="350" />
            </Array>
            <mxPoint as="offset" />
          </mxGeometry>
        </mxCell>
        <mxCell id="ZQ0ltY4m0GD8ktAkjm9W-30" value="TailwindCSS" style="label;whiteSpace=wrap;html=1;image=data:image/svg+xml,PHN2ZyB4bWxucz0iaHR0cDovL3d3dy53My5vcmcvMjAwMC9zdmciIHdpZHRoPSIyNTAwIiB2aWV3Qm94PSIuMTUgLjEzIDc5OS43IDQ3OS42OSIgaGVpZ2h0PSIxNDk5Ij48cGF0aCBmaWxsPSIjMDZiNmQ0IiBkPSJtNDAwIC4xM2MtMTA2LjYzIDAtMTczLjI3IDUzLjMtMTk5LjkzIDE1OS44OSAzOS45OS01My4zIDg2LjY0LTczLjI4IDEzOS45NS01OS45NiAzMC40MiA3LjYgNTIuMTYgMjkuNjcgNzYuMjMgNTQuMDkgMzkuMiAzOS43OCA4NC41NyA4NS44MiAxODMuNjggODUuODIgMTA2LjYyIDAgMTczLjI3LTUzLjMgMTk5LjkyLTE1OS45LTM5Ljk4IDUzLjMtODYuNjMgNzMuMjktMTM5Ljk1IDU5Ljk3LTMwLjQxLTcuNi01Mi4xNS0yOS42Ny03Ni4yMi01NC4wOS0zOS4yLTM5Ljc4LTg0LjU4LTg1LjgyLTE4My42OC04NS44MnptLTE5OS45MyAyMzkuODRjLTEwNi42MiAwLTE3My4yNyA1My4zLTE5OS45MiAxNTkuOSAzOS45OC01My4zIDg2LjYzLTczLjI5IDEzOS45NS01OS45NiAzMC40MSA3LjYxIDUyLjE1IDI5LjY3IDc2LjIyIDU0LjA4IDM5LjIgMzkuNzggODQuNTggODUuODMgMTgzLjY4IDg1LjgzIDEwNi42MyAwIDE3My4yNy01My4zIDE5OS45My0xNTkuOS0zOS45OSA1My4zLTg2LjY0IDczLjI5LTEzOS45NSA1OS45Ni0zMC40Mi03LjU5LTUyLjE2LTI5LjY3LTc2LjIzLTU0LjA4LTM5LjItMzkuNzgtODQuNTctODUuODMtMTgzLjY4LTg1LjgzeiIvPjwvc3ZnPg==;" vertex="1" parent="1">
          <mxGeometry x="180" y="127.5" width="140" height="60" as="geometry" />
        </mxCell>
        <mxCell id="ZQ0ltY4m0GD8ktAkjm9W-35" style="edgeStyle=orthogonalEdgeStyle;rounded=0;orthogonalLoop=1;jettySize=auto;html=1;entryX=0.5;entryY=1;entryDx=0;entryDy=0;" edge="1" parent="1" source="ZQ0ltY4m0GD8ktAkjm9W-31" target="ZQ0ltY4m0GD8ktAkjm9W-30">
          <mxGeometry relative="1" as="geometry" />
        </mxCell>
        <mxCell id="ZQ0ltY4m0GD8ktAkjm9W-36" value="more customizable&lt;br&gt;approach" style="edgeLabel;html=1;align=center;verticalAlign=middle;resizable=0;points=[];" vertex="1" connectable="0" parent="ZQ0ltY4m0GD8ktAkjm9W-35">
          <mxGeometry x="-0.0811" y="1" relative="1" as="geometry">
            <mxPoint as="offset" />
          </mxGeometry>
        </mxCell>
        <mxCell id="ZQ0ltY4m0GD8ktAkjm9W-31" value="PrimeVue" style="label;whiteSpace=wrap;html=1;image=data:image/svg+xml,PHN2ZyB4bWxucz0iaHR0cDovL3d3dy53My5vcmcvMjAwMC9zdmciIGZpbGw9Im5vbmUiIHZpZXdCb3g9IjAgMCA0OCA0OCIgaGVpZ2h0PSI0OCIgd2lkdGg9IjQ4Ij4mI3hhOzxwYXRoIGZpbGw9IiM0MUI4ODMiIGQ9Ik0zNC41MTY3IDIxLjk4OThMMzEuMjE1MiAyMS4yNTg5TDMzLjc4NTggMjQuOTI1OVYzNi4yODAyTDQyLjU4MTcgMjguOTQ2MlYxNi40ODMyTDM4LjU0OTIgMTcuOTQ1MkwzNC41MTY3IDIxLjk3NzdWMjEuOTg5OFpNMzMuNzg1OCA0My4yMzY2TDM4LjU0OTIgMzguNDczMVYzMy43MDk2TDMzLjc4NTggMzcuNzQyMVY0My4yMzY2Wk0zOS42NyA2LjMyMjg0TDQ1LjUwNTYgNS44NTk5TDQzLjMwMDUgMTUuMDIxM0wzMi4zNjA0IDE5LjA5MDRMMzkuNjQ1NyA2LjMzNTAzTDM5LjY3IDYuMzIyODRaTTkuOTY4NTMgMTcuOTU3NEw1LjkzNjA0IDE2LjQ5NTRWMjguOTU4NEwxNC43MzIgMzYuMjkyNFYyNC45MzgxTDE3LjMwMjUgMjEuMjcxMUwxNC4wMDEgMjIuMDAyTDkuOTY4NTMgMTcuOTY5NVYxNy45NTc0Wk0xNC43MzIgMzcuNzQyMUw5Ljk2ODUzIDMzLjcwOTZWMzguNDczMUwxNC43MzIgNDMuMjM2NlYzNy43NDIxWk04Ljg0NzcyIDYuMzM1MDNMMTYuMTMzIDE5LjA5MDRMNS4yMDUwOCAxNS4wMjEzTDMgNS44NTk5TDguODM1NTMgNi4zMjI4NEw4Ljg0NzcyIDYuMzM1MDNaTTMyLjY4OTMgMjUuNjQ0N1Y0Mi4xNDAxTDMwLjQ4NDMgNDUuNDI5NEwyNy45MjU5IDQ4SDIwLjU5MTlMMTguMDMzNSA0NS40Mjk0TDE1LjgyODQgNDIuMTQwMVYyNS42NDQ3TDE4LjEzMSAyMi4yMDkxTDI0LjI1ODkgMzIuNjQ5N0wzMC4zODY4IDIyLjIwOTFMMzIuNjg5MyAyNS42NDQ3Wk0zMC44Mzc2IDBMMzAuNDk2NCAwLjg0MDYwOUwyNC4yNTg5IDE1LjkzNUwxOC4wMjEzIDAuODQwNjA5TDE3LjY4MDIgMEgzMC44Mzc2WiIvPiYjeGE7PHBhdGggZmlsbD0iIzQ1NUM3MSIgZD0iTTQwLjM4ODkgNS4xMjg5M0wzMi42ODk0IDUuODU5OUwzMC40OTY1IDAuODQwNjA5TDMwLjg0OTggMEgzNS4yNTk5TDQwLjM4ODkgNS4xMjg5M1pNMzEuOTM0IDYuOTA3NjFMMzAuNjA2MSAzLjc1MjI4TDI0Ljk4OTkgMTcuMzQ4MlYyMC44ODEySDI3SDI3LjQwMjFIMjcuNTYwNEgyNy42MDkyTDMyLjM2MDQgMTkuMTI2OUwzOS42ODIzIDYuMzIyODRMMzEuOTM0IDYuOTA3NjFaTTguMTI4OTYgNS4xMjg5M0wxNS44Mjg1IDUuODU5OUwxOC4wMjEzIDAuODQwNjA5TDE3LjY4MDIgMEgxMy4yNzAxTDguMTQxMTQgNS4xMjg5M0g4LjEyODk2Wk0yOS42ODAyIDIxLjE5OEwyOC4wOTY1IDIyLjE3MjZIMjAuNDIxM0wxOC44Mzc2IDIxLjE5OEwxOC4xMDY2IDIyLjE3MjZMMTguMTMxIDIyLjIwOTFMMjQuMjU4OSAzMi42NDk3TDMwLjM4NjggMjIuMjA5MUwzMC40MTEyIDIyLjE3MjZMMjkuNjgwMiAyMS4xOThaTTguODM1NTYgNi4zMjI4NEwxNi4xNTc0IDE5LjEyNjlMMjAuOTA4NyAyMC44ODEySDIwLjk1NzRIMjEuNTE3OEgyMy41Mjc5VjE3LjM0ODJMMTcuOTExNyAzLjc2NDQ3TDE2LjU4MzggNi45MTk4TDguODM1NTYgNi4zMzUwMlY2LjMyMjg0WiIvPiYjeGE7PC9zdmc+;" vertex="1" parent="1">
          <mxGeometry x="190" y="265" width="120" height="55" as="geometry" />
        </mxCell>
        <mxCell id="ZQ0ltY4m0GD8ktAkjm9W-33" style="edgeStyle=orthogonalEdgeStyle;rounded=0;orthogonalLoop=1;jettySize=auto;html=1;entryX=0;entryY=0.5;entryDx=0;entryDy=0;" edge="1" parent="1" source="ZQ0ltY4m0GD8ktAkjm9W-32" target="ZQ0ltY4m0GD8ktAkjm9W-31">
          <mxGeometry relative="1" as="geometry" />
        </mxCell>
        <mxCell id="ZQ0ltY4m0GD8ktAkjm9W-34" value="UI" style="edgeLabel;html=1;align=center;verticalAlign=middle;resizable=0;points=[];" vertex="1" connectable="0" parent="ZQ0ltY4m0GD8ktAkjm9W-33">
          <mxGeometry x="-0.215" y="1" relative="1" as="geometry">
            <mxPoint x="8" y="1" as="offset" />
          </mxGeometry>
        </mxCell>
        <mxCell id="ZQ0ltY4m0GD8ktAkjm9W-32" value="Nuxt" style="label;whiteSpace=wrap;html=1;align=center;verticalAlign=bottom;spacingLeft=0;spacingBottom=4;imageAlign=center;imageVerticalAlign=top;image=data:image/webp,UklGRpibAABXRUJQVlA4WAoAAAAYAAAAWwMAfQIAQUxQSCNWAAAB/yckSPD/eGtEpO5hjdq2ZVei637ezaYbBBQQRFFRdMRuB3vsFrt17BlzxhpjbMaOsRW7u7sDG7EV6WZ3fe99Xz/GAfZ3P/t9v2/7J6L/E4BStCSAdBq51eGX3v/+9wtJ1v486dUJFxw8dsVuAELAHzglCHpueNwdnyzgktq8j+89ft0+QCJ/2BDBcodO+KWBZFpI1ex/zNK0kJKs/+Gx44cDkD9iCATLnP1+Lck0VeOSaiGlseGzK0YAkD9aiEAG/20OjVTlUjY1kvOv/VNHiPyxIkHvQz4iacZWNaNx5jkrQsIfKCTIWhNqacZiNKZv79cFyR8nIPtNMlMWqRkX3jIc4Q8SggHX1FGNRWtq/HznAPkjRILRz5PGoraUc8/ph/DHhyCbfkgzFrux+a6hCH90EGz5DZU+nx2B8AcHbPsDjT6V76wB+SODYLspVHpN+dHmkD8sSMBWPzClW0v5/fYQ+YNCgrU/o9KxGSetgj8oCFZ7m0rv76yG8EcEQb+nmNK78vURCH9AQLicau4stfv6IfzhQHBQLY3+zfSSDpA/GASs8xWNMTTTPf9oIBj0DI1xNM7ZCPJHApFweks0SL4wGPIHgoCNplMZz8KFQeQPA4Luj7PAeBpnbI3kDwTHUxnTAt8fhPBHAYz+gRYVU/4D8keBztcaI6v8eS3IHwICtpnB6CpvSvBHQEHPRxlf47yd/hCQ4NAGWnRofKo/pN1fwHLvM2WM6w5BaPcn+DvNYmR8bwBCOz/B2j9QGSeejaSdHzrfSGWcU/64JkI7v+1n0CLFlDd0hLTr6/UgjbFWTtuuXV/AfnWMuPKRfmi/H7DcZ7SIkQ2HtONLcAbjZnxvQLu9BKO+oTLypyNpnyfoeBXN4mb8YXmEdnrbzqQy8sabRKQ9Hvo9QmX8pm2P0C5vr1pa9Ki8rw+kHV6X92hsC6r2bYeX4Cy2jSlfHwhpZxcw8idam0DlyWhnL6i4nm2l8dfB7ewSbPorrY0geSlCezpBz/uobCuNM7dEaFe3b3UbQuP9PSHt5gT9X2XKtmT+Pgjt6I6lsi1VPjcA0l4OQ3+lOTEnZjyu3ZzgahrbVuUPwyHt4hKMneam8MMiJyzwArSLF3S/m06Ns3a/34tx6nqQdnABey6g+SjwKoydQXNBckIXSLu3gEGvMaXLlN+tjORKqpe5eyK0exMcZWYujHoKOmDkd1QfxqcHQtq5CYZOZkonbw9FEPyNak4aj0TSzg34F1O6NFbvh4CAQe8ydcGUn41AaNcm2Gw+zQc5oQcECNhrPs0FC7wEIu3YBD3upVPjjC0gAAQ9H6BT5dT10L5ttzk0H8orBb8bsOMMJ1Te2hXt1wV9X6TRpXLqqpDfASpuovkwzt4B0m4t4OSCE1OeAMHvC1b6ieaCxmeWgbRTC1jhK6Z0qXxjMML/AXAS1QfZdBRC+zQBzmdKl8ZFh0Dw/wWD3mPqw/jJEIR2amN+pHp5ot9iQXBoA82H8TxUtEtDt7uodGmcui0CFq/P/VQXVE5ZG0m7tD3n0bxchSUN2HYKzQVT3tYJ0g5t4DM0ujT+sjJkCQSV1xToUzl7h3ZoCY5qptOUZ2LJA0ZPpbmg8sE+aG8eMOwLmg/lh8tBlggB59Bt/QHtzSTgChpdGusPgGBpdv+U5sP48XKQdmUBG/xK9aF8pP/SERzURHNB43lI2pMJutxMpUvjnF0QsHT7PsbUy9RVENqV7TjbC3lTB8jSEWw3k+qCxush0m5MMOBpKl0af1kdAUur03U0czJrB4R2Y8BhDTQf5NlIsLQTjPme6oLKh/pB2o0t8zmNLo2fDEIrBpxH81I9Du3FE1xAt3YoWqfP1zQXVL62LKRdWIK15tB8KB/r1yoI2KeJTpVntg8TdLydRpfGObtAWgXo/QzNBzljBUg7sICdZnhR3ta11bDjHJoTXtUeTNDnESpdKn/dAAlau+sdVB/GaZsgtPsCjmmi+TCeiwq0tmDNn6guaHykD6Sdl2DIh1S6NE5cFqH1BOdQzcnCAxDaeQH/pNJp85EIaP2AoZ8xdUHlC0Mg7boEw6fTfBhfXAZFWYFjCjQXZnoc2ncLbqfRpXHuLihOQfennVD56wqQtkdEgogIREIQac8RsNMcL8rbOhUJAraZRacpr0RbK0mCJa5IpJ2GoO9jNLpUTtkYUiRAl//SfBhnbgJpQ0JFBwDo0n/onzbbdNttNt58pcH9KwFIZYW0xwg4oNZLyktQPIJNptFckLyrM6StkACg0+i9z7nrze9/nTFj1uzpM3+a/Op1/9h1dGcAEqS9RcCw95jSZcovhyOgiM+n+jAu2BehbRAAXcde8tyvKZfYpjx13pbdAUg7C+AfTM2FseUoVKB4Bct+xtQFja8si9AGCNBh9ClvLSJpusRGY/U7p6zRGRBpRyFY5RcqnTzXD1JECDiaZk5ajkcSPQnA5tdObiHTQmrGJTTTgpLpD9dt3QWStJ8ArmJKpwv3haC4+r7E1AWVk1ZGEjcJCKMv+5WkGZe6Ksnpd20RIKGdhGDLOXR7V88iQ8Du82kuWOC5kKiJoNcZv5rRjK1rJKuvWAEi7SIEvZ+gU+NvG0JQ3IKON9Opctb6kJghGfsyzYxFaGb89pA+kPYRh1R5UV4cUPQBG/5Ic0HlnV0Q74AB5/xGVRapFVj7wDqAtHsIWO5Nmo+Uk1eCFB0gl3gxzt8VEikJWOWxRhaMxavKL/YIkPYOCU41J5byRAg8LjuZ5oLkswMgURLBRpNoxqJW44ILeyJp35Bg9Z+pdKl8tj+CCxxK9ZIejxAjgey7kMaiN+pDKyBpzyAI17JAl8Y5eyLAo6D3a0x9GL8cjhAfQedjZtLo0FK+OQbSrmHLOTQf5N09IS4g2GMR1YfxPCTREVScUk2lS0v5/jqQ9gvoNoFKl8apWyHAS+97qOaByp/XQBIZAY5voNKpKSdugdB+4eAqmpf/QOA1YOMf6IMpb+sCic3BtVS6NeXMv6BC2iUIhr5Jo0vj90PhVyS5OKVP5YJdIhOw1wwqPaecvDaSdgkBp7XQacqT4TlgxS9oLqh8ahBimmCzyfSe8sN1IO0QAlaaTPOR8u1BEEcIOJZOjQ0HxyRghbdp3qh8bRjaH0rAtVS6VC7cAwLfXd+kuqDxi6GQWAi6PkilezPevwykvUHAlrP83NPTHXaqprkgeQGSSAiSs1vM/NHIKzuItC8Q9LqfSpfGKVsjwHuvCUx9GKeOQhKLXWZQGUNl/cFIpF0BsN9Cmpcbgog3wVZTqS5ovDaIxEAw7F0q46j8aR0k7QuGvU6lS+NPIxHgr8PlNHMyayeEGCCMpzGWymeXg7QrONHo9u9I4D/BKl9SXVD5xACIP8HuDYynmV3UEe0HBSt9R/Nh/LgvopjgpALNhbHmcPgPWO4zajxonLE9pN1AgvE0ujQ27484Crp97ITKdwdDnIngQmNUja/2RnvBBOvP8aK8v1ckELBbA50aT3EXMPYXWlRInoekfYCg6yM0ulRO3RISCaByAs0HuWAkxJWg36NUxtU4Zw2EdgEB4+Y5MeW1HSOCLabSfBivczeuJjo03lYJaQcgGPw8lS6VP62DBPHsdAXNnMwai8SRYMCbTBmfWTsitAMAjmum+TCehwrEU7DG91QXND7YB8HTCVTGV/l4f0jZT7DKt1S6NL7XExIRCE4yMyc1h0DcCFacRYuQseEotAe8nCmdNh2IgJgG9H+XqQumfHMYxAvC9Yyz8sPlIWU+werz6dT4aG9EtgPGNdJcmNkJ8Bqw5TRalKg8C+V+wR00H8a5OyO2gm6POqFyyhCIC0HP+xhr44zlIWW9gHGLvCivrogOAjadQacpr4HPgINraJGi8dbyXsByz9PoUvntmpDoAJXjzYlxweYQBwFD32HKeM3ZCaF8J4ITGp2Y8jxECWt+S3NB8uEekOIT/I1q0aLxsf4IZbuAFT9iSpcpPx2CgCifTvVhXLgnQtEJhv1MZcwW7Ve+E+AipnRpbDwUCWIs6PcmUxc0vr4cQrEhXMeUMU/5znCEst06VVQvj/eGRAkJ9qaak+aTi06w1VzG3YxnoGxfcTdTOp35FwjiHNDzEaoLppw8EklRCfo8xNgrfxsFKcsJdlxEt7d3QbQDtp1NdcECLwakmALGVdEiR+XVKMsL+j1Dp8Yf14ZES9DxGjo1zt24qAKWe4vG+M/ZElKWO7bei/IsxDxgzUlOqHygG4pXAv5h1hbwiT6QslvASh/QfKT8cnlIxCA4S52QC8cVUYJVf2TKtnD+fghltwTn0nyY8ggExH3gJ1QnfGEApEgE4UqmbAuNrwyClNkSrDONSpfKZ/vFTrCXn8ajEYpm7DxaG6GnICmvCSruYAtdGmfvgIDYdX2MqQ/jpJURigN9HqOybUz5/SgkZbZdqmg+yFu6QiKHgK1mUn0YL0aQ4jiwmtZGsIVXAVJOQ79nqHT6y0YIiL2gy/U080Dl1PWQFIFg0Bs0tpXKGZuW2Q5voPkwXgxB/AM2/JY+qLyjC6T1Ak5RtqHKB7qgfC4Y+TGNLo1f9kdbKIIzmunTWL0PWj/BqOnUNsRYvX8ZLeBco1PlYWgbBUM+prmg8rnlWk0CbqKyLTW+NBBSJkuw1o80Hylf6QtpExBwIJ0a6w9vtYA/z25jyOYTEMpjEnALlS6Vi/aCoK3s/DLNBY2fDoS0iqDH/UzZthq/GoJQFgvYaaETU97SpQ3B2AU0FySvRNIqwKE1NCcLPqH5YMrrkZTDBIOepdIHf9wQAW1nl6tp5sI4c00krTLsHSqdXrfhb1QfypmbISmDAUfW0HxQrxCRtkOw4TdUFzTeVQlpjdOUXmetllymNBdU3tEVUgZb/i0qXRp/HI6AtiQ5T2lOZm2NZKkJhv9E82G8IGCtSV6M83Yrh4XzaPR6NALa0oCh71JdUPnMAMjSCriVRpfK94YjwcnNNBdUvrgsyt2CtX7zYny7M9rYBIe30FwYG47B0g748wInxrojAUHPN7yQhWPLXglup9GlsXp3tLWCiledUPnBsKUU0ONBGl0qnx0EQcBuBTo1fjWszJXgzwu8KO/vDWljELBzA50az4Ispb3nOzFW7YUAAB0fpPogeQmSclZAr8dpdKn8dXMI2t5Ot9B8kPNWhCwFwbBXqHSpvCeB/A82mUnzYZyzNkIZS3B0vRMzXtKhTcLa39F8GO9cKpBTUzMXxt/WRYLfrbyIZi5ovK8TpGwlWPFNKl0qv1oZCdriDv9KzZzM2wHJEglGfUel038jwe8KRn9C9TJzN4SyFeQ0NXNh1L8jQVssWOkTpi5ofKgXZEmA/9Do0vjVqpD/IzilQHNB5ZMDIWUqweq/UOnkgx6QNgkBR7bQnFQfskSC9RbSa8sJWMyAgW9RfRjrj0L5+mYqndbsiYC2WdDpGaYumPK9FSGLJej+JJ0qXxywOKjA3g00F1R+uiKkLCXYvJFOjff1RJtdge2qaS7MeDoWP+DAhTQXxtp9sdgiHR+nV+VFKEsLKh+hU+O0bdF2i3S8h06V00ZCFiNg6Ks0uizwoa6QxYFgi1lejDNHQcpQCQ6spvlQXlXZhkGw8VQnTHklFlMEJzc6US4ciwRL2PFqLzTeUo4KWPFtGl0qvxwFacMAnKNOyIYtIP8nYPRkpnRyKRIs8aiJNC/zd0coN4ngtGYnZjwJgrZ9lYk0J3y4F+R3BMlVTOnSOGk1hCXDKc1mLmh8fBmEMlPAmt8wpcuU7y2D0MbhGDNzsmD/xdhwAc0HC2dCZIkEQ99k6qXmSEh5SYDLmNKlseEgJGjbBX1fZsGH8ZXBCP+DTg9R6fTtYRAsecC+TTQXTPnW8ghlpo1MzcuETpA2DhXYptnUSeEfEAEEB9fSa81+ECxFQYeHmPqwlOehzNz1MSqdTtsKgrZe0OG/VPPAlN+PRoBg2Ot0qnyiG5Zugs2n01zQOHcUpIwUMK6WXu26zsiAARv9TB9MeZVABKc1OjHWbA1ZOiKV/6FX5VUoIwsGv0Gnxl//BMkAIuFiOlXOWQcJVv2C5qPAWyqWFgRjvvFCzt0SUkY6vcXP35ENA1b7zAmVD3WFXEv1ofxhLQQs/ZOb3PDxXpAyUcDor2g+Ur7bD5IJIDi+2Ymx+iD8eR6VHo2FMyHSCsu+TvNSezhCeUgkjKf5MBbGISAr9n2V6oLkC6vdywKdvL8yAlpzzwaaD+ObwxDKQgk2mkelS+UTPbODYGc/tQ9W0Xyw7jgEtKKgy0MseNFTkZSDBJ0eZAtdKmdsjYDs0PEupk6qflng5rmekNZAgk3nUl0w5U+rIykDAeOazXyQV1dCMgMCNviN6qJlVs3sFvqs3xoBrSoSLqWZC7bwWkDKQINfodLpd+sgIDsKOlxkNA9V81g1x4VyAlo9YMxXdKKcs3lZ6ORmOjWeB0GWDFj9cxeFmS202Q0OlPPWhbSWiJzdQqfKB7uh3CtY7XOaD+MX/ZExA05pZNEbZ9fS2LRAi86UFwS0vmDIO16MC8eVe0SSa+jVuAckYwh6vkIrMmPtLCWp8+qLTvnBSEjrQbBfgxMa31keUtZJsNkcmo+UT/XIHAjYocBi19l1NJLN89IiMzb8TYoC6PAo1QdZOB2hnCOSTKDSpXLOdhBk0CeoRVa3kL+/oKboXlkOAcUo2LyW5sP4zSpIyjgBu1c7MeN/u2YRwSZzaEWVzm34Py3TraiMtfsgQZEk1zB1knJ8OUcw5HUqXSonj0GCLNrh31QrIqup4f9vnEMrIvIBBBSpYLUvmLqgctafEco2CCc10XywcD5Esohg9ERqEens5sVI5zWwmOetBykeOaOJ5oIp7+sJKdusOpFGl8avhiIgm8jpTbTiWVDLxW2cmxaP8eqA4g0Y9qYX48J9ULZNLqDfwxGQTQOWf4daNC3zbLF0UUPRKCevhWIOOKKe5oLKZ5ct0wRsMs+L8sUOyKwJdq2lFcvsJi6usXFeWiTGphNR3CJPeiH1FCnLiOAxmg/j/G2QYQWPFE11DRffWF1jxaF8fRikuLBeNZ0aJ68IKcMk2L3Wi/Kmbtlmk1ksznRB4xKQhVnFYaw5GAFFLtdSfZAcj6T8ErDMS1S6VP6yESTDAJX/oRVF1SIued3cokj5bCdIsWGN76g+jLPHIJRbRHBiA82FUc+RjIPRn1GLoGV+y1Kw+U1FYJy3KRIUfTilheaCxvs6Q8otGDWRSpfKiSOQIOP+vdms9aoX0paMjfOsGG5CgqIXDH2N6mXhvghlFnS4gGYujM1/RYJsKxj6FtNWa1nApVtT02rGH9aAFB8CDqmmuaDyhSGQsopgzDQanbzZBZJxEHBwE6215jUtpcaF2lq0cwQeBd1fYOrD2Hwkyq33U+m0aicEZF2R8DjTVqqr4tKuqmkl5bvD4TPB2IU0F1R+OgJSRhFsZ3RqvKUzMnAF/jyH1iq6qGWptcwrtIqx4Sh4TXAzvab8N8qogr6v0Knxx42QiYNc3Ur1tVzaxprqVinw2d4QJ4LRP9B8kAtXg5RNAo5t8KJ2YWU2Eqz5Da0V0kUtS43GOc2toKz6CxK4lX8Y3d5VPglY7ROaD+WnK0EyEYDTmtmKtbVszZZ5rXI7RPxgxDtUH8b5uyEpjwgq/k3zYca/IiArD3qdttRa5qWtYtV1S83409pI4PmAOpoLGl8aiFAWCVj3RypdpnytT4bC/i20pWRVjWzdpvmFpUW9IAlwLOj5BFMvdcdApAwiqLyZKV0a6/ZCBbKyoOsTLCylpmpa67Cudql9uhrEExJst4DqginfXQGhLLKZmXm5rwskMyHBtnXUpWLzW9jaLfPTpdT8NziXgP8y9WEpz4KUQdDrVRqd/rweBNlZAsZTbWnUN7C1jTXVS0X5ch9vCBj1Lc0FjfNGQ8oegqNa6FUvrkCmDlhrEpeGVje3GskFzUvB2LgrxBsE/0jpNOWNCcqdgpU+olPjF6siW4vIOSmXYnUdi7FhoS1Zgfd2jMLwd72QC7aHlDdE5NwWL8oTINkKguHv0ZaoUKNFwbrmJVLOG4uAGB5R54aP9oKUNRJsMIXqI+WbfTIXBAfWc4kXVdGKonmBLoEZL4VIFLo8SvXSdBxCOUNQeSvVXBibd0GC7F35CHUJGqtpLM76uiXhxFEIiKFgi0U0H8Z3RiCUMRJsVU2lS+V93SDZS7BJE22xrLqRxVqoXgI2nQ6RSFTcwoKX9EwEKVsIuj7GAl0qZ2+FgCxWcQsLi1VbzeKtXURbDOMHgyGIY4J1fqO6YMqfVkdStgAObTbzQb2kApLBELDWd9TFsLqWItLaFi5u0wEIiKQIzlGaCxZ4fYCULUZ8QqPTL1dDQBYXCWcVaP+voZbFXL9oMZSPBcQzYNg7XoyLtitfJOe00GvhJAiyecDIdxZDa7SoWN3wf4xVm0LiAcFRVXSqfKwfypOCtb6jU+OHfZDZA/5aT/u92gYWd3ON/V7KmztFpu9zXow1B0LKESLyX5oT5Y6QzCbo9hx/v6nGioz19b+jnLQ2BDEVbFPthOSbQyFliATbVXlJ+XCXDIeAzep+r7aZxZ7WpCSNzWeGyAC4kepFz0AoPwR0epYpXSpnbomADC+4hUqyqZ7FX9/wO++uiIC4ClaZSfVh/GE0kjLEgU00F2a8ugsk2601hUqtLTiw+gKNTccgQXzPpZoLKq9GImUGwfC3qfTBr9dCQLaXs2lsaqDHlloaX+kCiY5gxXepXuaORVJmQDhLzXyw6VQEZHvBiLdYqE5dsLmJDWMhiK/gsBqaC6Z8tCekzLDO11S6NL47EJLxIDiyrr6ePgu1vC0IIhzQ/wkvxkXjUGasvIZGr3sgIOsH9HuiWZ1Y4ZsNEOcEOy2guaDy5SFlhYDN59Op8vkOyIEVOM1oPlJO6BEpCO7wQuoJkPKBoOJVmg/j3M0g2S9ghQ+o9Glc8Jd4DZtJ82H8aRVI2SDB/g1OzHhtV2R/QfhnC80JjU91jRSAc72QvBZJuSBg+XeodKn8en1IHhjzBZV+CwcgxEmw4sdUH8b5GyIpDwjk9CaaC6OeF/IAKi6jmh/j+wMgUQLkuAaaCxrv6wwpE6w/mUqXyjeWQ0DmF4yto9GzXoAgURIMeJLqpfYAhLIAulxNNRfGhv2QIAdWPE2jZ+M36yFECQE7z6a5oPKF5SFlgU1n0ejk+UpI9gvYx+jbjFd3g0RJUHmnF2PTcQFlwaeodLpwKwgyv2DA2zRfVM4YGykkWGMWzQWVXwyHlPwE+xudGq/pgBwY8M8Wuk/5ZG9IlJDgfHpVXoGSv2DAhzQfxu/WRQ4MWPtLmjsaD0SkBUMn0nyQ9WMgpT0RnNlCn2bpuUkOEHS8jBaFj/pGCsBR9TQnvC+BlPQCRn9K85Hy05Ug2S9gsxlUxlBPRYjVci9QfRgX7IxQyhNUjqf5MDYfjIDML+j8EFPG8ds/IcRJsNNcmgsanxuIUMIL2GY2lS5TPt05H+xGZSyv6QiJVKebqV7qToRIyU7Q9VGmdGlctB0qkAMHvBUN49StEaKEBOv8SnVB5cerIpTw/kKll5srIdlPcFILo6m8tyskSkhwIdVcmPI8Qem+17s0J/xlfQgyv2DNL2jRMLaMQ4hTwAqf0geNc9eClOgEpxu9pucJsr9I5VWMacr3B0KihICD6+hUeXcFSvMBq39Np8aJI5EDE2z+Cy0iTHkaIi0Y8LQXctEOkFKcoOLS1IvyaEj2E3SZQI2K8etRkQKwx3yaEz7TD1KCS7DRFKqPAl/olQcS7NREZWSvCNHqPIHqw1h7KELpTdD1UaZ0qWzYGgkyv2DgW0wZ2xlbIsRJsNZ0qgsaJ66KUHJLsFcLzYUpb+4IyX7ASalZdHhfV0ikcD4LXuxciJTYBH3fYIE++NOGCMiBoz6hMbbGur1QESUkGPEVUxdUTl0LSYkNODJVer20QiQHdLhYGeGUr/VFiBICTmiiuWCBN1dASmyjJtO8fDwSgswv2GQqY2zKU+LV9ykvxoZtS22VVyi9Nh8PQeYX6XgX46ycNBoSJQTsOpfmgsan+6GULtjoFzo1vtobObACe9TRokTjlZWIs6DL3XRbd1gpTVBxF52acQdI9hN0f4kpY/XrxpGCYL2FbvjuYEjJrAK719J8pLyjYx4IONHMIkXj3d0jBeAcqhc7B6FUFtDzLRboUvnzhgjI/IJRnzNlvBt2Q4iTYNBkpj6Mv66JpEQmOCGluTCmF1VAsh8qLzCzeBlf7wGJEgTHtNBcUHkTgpTEBCt9SqWTz0cjIAeu/wuNMUuPQ0Wsln2e6mXu5khKYuh4Bc18sOEkBOTAjrfQGHPlVyORRAkBu82luWDKx3pCSmKbTaHRpfGNvpDsF7BDA+Nuyis6QKIk6HILnRrrD0NJvMttNDpt2RkBmV/Q4Q1a3Kj8ZYtIIcF6U2kuqHxreAksYMdqOlU+2gE5MMHhzdGj8tZuiLTgEi+kngopdQk6vULzYZy1CXJgwMhPqIy9cdGusQKWmULzYfxpNUiJK8GJBSdmvKBDDhAk/6ZZ9Gh8s0e0cJQXktcjlLYCRn5CpUvlxDUheWDjH6lsA82ORoiTYNmXqT6MczdFUsoSJP8qmLkwFk6D5AB0vp5qbQI/G4oQJQj2Xkh1QeP9XSElrY1/oNKl8s3lEJD5BZsvpLFt1PMhEqne9/lZuC9CCQs97qLSpbFhD1QgB3Z8g8a20fjLWIQoIcH6P1NdUPnWipAS1o41NC+PISD7C/Znm2nG23pCoiQBl5Dmwth8aoLSdfIqlU7nj4VkP8HQj9oOKufuFikEDPnVCZWTVoeUqAQHGJ0ar+6A7C8BZ7W0IUz5XG9IlJDgZHo1jkeJOmDoJJoP5cRRyIEBG/5Ia0OoPDRWQO9XaD7I+rUgpSgRXFigT2PTKciBgu430doU43eDEe2dF9Cc8NGOkBJUwEaTaT6Urw6GZL+ArWdT6dPMB8lzILHqdbcX46K9kJSeBB2vo/kwpochIPMLuj7ElG3td2sjxEkwdhbVBY3PD0QoQe2ygEqXKR+VINkPGEel08ZP6mlOeHs3SKRwAdWcNJ4aREpMgh4vMaVL49wtUIEcOPhDP2+u9TgLPoxzd0GIEhIM/5KpC6b8cjRCyekgKr1cl4hkP5GzCvRacyT+UkV1QeWzAyBRQgWONZoLU16SQEpL6DeR5oTfrgVB5g9Y62s6VT7XBx3u9mJm4xDiJOj7lhMa569aYhKcq/RaOBM5UNDpWjo11m6PBOv/RnXBlJ8NhEQJAXtU06nyHkEpOWCd72k+jG8NzgMJtptL85Hylg4QkQtSOk15LqLd/R4vZNNukNKRoPMNdGrWtB8k+wV0f5BKl8qp6yCBYJVPvBh/GgOJk+DP02hO+OIASMkowTYzaT4KfKp7Hkiwu6q5MOoFAQIAJ6ZOSF5fiVh3GE/1Un8sQqlI0ONJpnSprBuLBJlfsMy7TOnkg5EI+N8+r9K8zN4eIU6Clb6n+jBOXAWhRBRwGNVcmPIqEcl+wOlUOq0+EoL/FYxtofkwPtUbEiUEHMPUnPACiJSEBAM/ZEof/G5dBOTAP31D8/LMgMXoeCdTL02HIYnVwDeYuqBy6rpISkLAP6l0WjhbBDmww5VGr3U7IOD3Azb4jeqCKT9cDiFKSLB3Dc0FC/xvAikJjf6W5uWDlZADBJvPoFPlhAr8f0GHy6nmwlKeFitBrwfo1NiwTWmo0w10W38gBJlf0PVpmg/j/FUh/w8BK31EH1T+ui4kSgjY9FcnVL6yDEq/gm2me1E+3RU5sAJ7NDgx5QWCxRacXE+nxms6ItYVV5oTsv7o0o+gy0N0amzeBpL9Anq/wZQulRNXgyzBwHdoXmZsHSvBKt/TnPCDlSAlngrs30jzkfLWynxwrJm5MDacAFk8BOyc0qlxQo9IQXAcUy/pWaWegEEfMaVL5eQxCMj8gjW/o9LJMwMQsKTyINUHmR6EEKvebzD1YfxtbSSlHBH8k2YujC1nJ5Dshy7jaebCOH8XJFhSwVozaT6MEwchRAkBu9XSXFB5exAp5WDNyVQ6eX9lBOTATafQ6PSBgKVZeRnVnPB0VMRJ0OsuqjmZvy2SEg4qrqTRpbHhRATkwE4TaHTasjZkKQjWmsTUBZXfrY4kSgjYahp9MOUTPSElnO1neSGf6QrJfgF7N9Op8d9YqiI4sZHmwpTXdYRESSRcrvRpbDgaJdyeD1PptP7PCMj8gs4TaT6UX42ELA0ELPuaEyqnbRcpBIz6iuaCyvdWKtkEjKulU+VdyIMJjis4MTadgKWdYN9amgsq7++DSAtO9kKm/wglGkGPd2k+jNPXh2S/gBUnUulS+drykKUkgue8GGt2ixXQ+0uaD+N3K0NKMglOVSdmvKADsr+gw6Vm5sJYNQ4BS1uwwUI6Nb7XL1rYq5HmgsabEUoxAWtNptKl8sORkDzw51+pdHJ3JWSpAbiU5oPk6QhxEnS/l+pl0dZISi+CjlfRzIWx4XhIDkCP26nmwjhvYyRozdW/oPowfrcyQpQg2GoK1QWVT/ZAKMGMnUKlS+XL/RGQA3esp9HJ9Qho1XBaC80FyasqRCLV+RqauTDWHlqCQe97qXRprNkRCXJgl7dpdGn8cSVIqwiGvUH1Yfz1zwhRQsCYyVQXVL4xFFJyGddA83IvEmR/wZF0WzgJrR2wXx3NBZX39oJECQlOLtBcmKWnBpRa+31ApdMZ60KyX8AKX9J8KF8dWgSdH6V6qdozVoLeHzmhcvJoSEkl4CR6NV6SIPuLhH8V6NNYdyBavwJbLqS5YMpX+kOihIBxzXSq/A9KqgEjvqb5UH4+GjkwYOPvaD5SPtwT0moicr0XKo+JFdD9IaoPsnYMpHQiEq6lU2PTsciBgp530HwoZ2+EBK0vWPVrmg/jb8MgkcIWU2k+jC9VQkomAVv9QvOR8qUBkDywyzwqnVyPIEUAJKc30+0Vglh3upxmTqr3R1IqEfS8m0qXxpq9EJD5Bb1eZkqXxu/WQILiHP4GzYdx6uYIcRKMmUR1QeNrgxFKJrtWe0n5CETywEFUOrV/IqBYD2mmuSB5V3dInARn0MxJ/QkQKYkI+r3FlC6N0zdAghw4eLKfVwZDikTQ7VEWfCgX7YUQJQT0eYOpC6b8ZjRCSQQ4nkqvFyMgD15k9Fp1EIo3wRaLqC6Y8pUBCFFCBfZvpLkw5ZUVkBKIYMT3NB/Gz1eFZL+A9b+n+TA+2reIROQmqrkw41GQOAm6POqExgXrlEguodvCmQHZX1B5PZ0aF20JKR4EjPmJ6oIpJy8HiRIE28+jU+VDAaXPgD//5kX5yjLIgQl2mkPzUeBVKCoEnN5CpykvRrQrr/ZCNu4NKXUIut9Jp8a6PZEDA/o8x5QuU/4yGgmKWTDsbS/GmRtBIoU1v6Y54ZsDISWOgL0W0Hy08IFOkOyX4BCauTCm/4BIUQE4uM4Jybu7QyKFM0291J9U6gjo+zyVLpXzNkOCzC8YOJEpnbw3AgHF3uMZqg/j3J0Q4iQY+D5TH8aPVkEocRxFNRdmvBIi2Q84h0qn1QcjoNgFmzbRXND4Qn9IlJBgPzPzYbwigZQwBCtMZkof/GwVBGR+wTo/07w83hPioOJ6Frw0/xVJnARdH6a6oHLWJgglDODfTOm06XQR5MDON9Ltom0gKP6AMb8wdcGUXwxDiBISbD2T6oIF3tkRUrIQbDyF5uXt4cgBgi1neUl5fYBHkXBeaubCUp4NkSgJOl9Hp8b6nUsXgm530W39fhBkfkG3x2k+jLNWhXhAwErv0weVU9ZBnBCw1iSaCxpf7IdSZcCei7wo7++IHFiBw1ucmPJUeA04vIbmgsq7uyPSgtMK9Np0fKlC0O85mg9j9QaQ7Bcw6GOmdKl8fyUEJ4Jez9Kpce4usQIGvUtzwo9XhpQkKnBkwUvK6yvygOBUmrkw1h8NgdeArZqc0PhMv1gJ9qJ6Sc+XUIoIGPwpU7pM+c0YBGR+wRrfUunk6QEIbgDcRvVBNh+KEKuuT7Lgw/jbOkhKDwJczJQujU0nQyT7oesNNLo0zt8OCfwKVplB82H8YihClBCw2SyqC6Z8IIiUIDb+heblzRUQkAO3nemFvBUC1xXn0MwJL0KQKAk6/YdmLpQ1OyApOaDrf6l0aaw5HAE5sOsjNDpdNMqZYJWPqS6o/PFPSKKEgPW/oQ+mfLoXpOTwlzk0Ly93hWS/gD0a6FR5HgS+BSc00lyY8ppOkCiJ4HylT2PdISg5DniBRqc160KQ+QN6fkXzkfLjFdwF9H/GCZXzdo0UBMu9T3NB5ccrlRgSHGt0qrwReTDBmerE2HgU/CfYYRHNBZVPDEKkBfuZE5LnJyWFgEFf0nwofxwNyX4Ba0yi0qXy6eUg7iC4m06NDYfFCkieo3n5eQykhJDgPDo107MSZH9Bh0vVzIVxwV4IiMFa85zQ+En/WAm2rqP5MN6BUDpIsM7PVB/Kt4ZD8sA2v1Hp5PZEJAIALqT5IHkBQpyAymuo5mTRVkhKBYLut1Dp0lh9CAQ5sO8DVLo0zlwTCeI48mOqD+O01RDiJFhvEtUFlc93QygZ7DzLi/Lp3gh5YJ86mpdLkSCWx9fTXJC8qQMkUuHsZjMXxrojIKUBQZ9HqHRprNoGCXJgtw9odGmcPAISCcHQV6k+jNO3QYgSAoZ/THVB5evLQ0oCwOEtNB/k7QjI/gEn023TsYhnwO4LqC6ofKQfJEpIcFAjzYWZnp2gNLjslzS6NE5ZFZL9AkZ9R/OhfH7ZiAg63O3FWHcoIi2C551Q+f3aJYGAf9Hv2YLsL0iuUPo0zt8LMU2w/nSaC6Z8fzAkSgjYuopOlTclkv8SjPmF5kP54QrIgQGb/UTzkfKebpCIQHAZvRrPQLQ7XE/1QdZugpD3BB3/S6fG+qOQAwW97qH6UE7fCAniMvIzmpeZK0AihTHf05zwiY6QnBew82yaD+VTfSB5YO8aKj2a8UIkiO0xTXR7s0QLpxdoLoyNhyPkO0G/B6l0qVy0MxJkfkGvt1igD369coSGvErzYZyxNUKcBCu+y9QFjW8OQ8h54+q9pJwAkTxwFJVO9WQExHe/BpoLGh/oBYkSAo5ooTlp+LtAcpxg2Y+pdGmctg4S5MDB39K8vDIEEh1B53tZ8LJoX4Q4CSqfZuqCyq/XynlnMqXXcxCQA5Pr6Hbh3hDEN8GGc6gumPL9oQhRQgW2r6K5oPK6SkhuE4yeQfNhfH8EJPsFbPYrzYdyQjfEWAIuoZkLU56KSIskN9OpsXrjHIdwHZ0aG/6KHCjochudKuduAYkRAlabRB9U/jwcEiUI1v/JCZUPB+T1gC1neFG+0j8PBOw0h+ajhVdC4oSAv6d0mvIqRDuc74Ws2wOSzwQDnqT5MC7cFpL9Avq9xpQuU34xAgniLBjwrBfjvC0hkcLy79J8GD9YDpLLAg6t9VLgnR3zwbFUc2EsnIiAWAv2q3VC8qHekEjhiGYzF2TTaRDJYQHLv8+ULpUzNkCCzC8Y8gVTOnltcMSAro9QvSwYFytBz2dY8GGcuAZCLjuWqbkw4+UQyX7A+Uzp0lh3BALiLdiikebD+HI/hCghwc5NNB/Gf0MkdwlWnU6lD360EgIyv2Cz32g+yAe6QGImuIQFJ2anIUiURHAD1QWVszZByF3ocAOVTmuOgSAHdr2DbmdvBkHMA1b9iqkLpvxuFSRRQoK1vqW5YIH3doLkLMFWM2leXhiYBwQ7z/FS4HhEXgSnttBcMOUVAomSSDivQJ/G5t3ylqDHg3RbuzsEmV/Q42maD+W0FSFxQ8Dyb3hRztooUhCs+CHNBY2v9kO+Dtivxovyrg7IgRU4OnViyr8h/gEHVNGp8v4eiLTgiEZ6bf57vgoY/C7Nh7FqDCT7BSz/OVO6TPnqcgjRE3R6yItx0X6xAjo/Q3XCL1aD5KgEZ9B8WMpLJAeI4AKquTBWHYyA+As2rXJC40uDIHESjG2gOeGlFSE/JVj1e6Z0mfLrUQjIflj3ZyqdPNWvTQBwM1MfZPMJCLGqvJ0FH8bf1kOSlwQynildGptOhkj2Q7dbaHRpnLMdErSFglV+o/owTh6BECUErPMD1QWVt4tIbtpqDs3LcwMRkAN3mOuFvBaCtvJkM3NB43gkEiURnKU0F8aG3ZHkJPS+j0aXxgX7ICAH9n2SRpfGWSu2GYIRb1J9KKduihAlBIx63wlTvtgPkpP2rfLzQEdI9ktwSCOdKs+EoK0UHFpNc0HlnV0hUULAsfX0adZ0LHKxYMDLNDqtXxuCzB/QdyLNh/KDYW1IQN8nvBjn7Y1IC/q+7ITKj1fORQGn0KvyKuRACfg3nRrr9oOg7UywxSyaCypfGxIpCLaoc0Ly4oocFDDyR5oP5eSRkOwXsM4PVB/KRwe0KQi4kW5bjokVgHuoXn5ZD5J3JOAKGl0aC6ckyP6CrjdR6dI4ezcEtKWC0dO9GL8aComTYINpNB/G2yCScxJsMZPqI+VbwyF5YPvpfm7rAGlTIDiH5oPGS5HECai4gGZOFmyDJN8I+jxApUvjgr0QkAP7PMyULo1TVkFAWzPsTaqXuesgiZNg5LtUF1S+2hsh1wD7VdG8PNgdkgcObqH5IM9Hgrb38GqaCxrv6QyJk+CoKpoLY/2xkDwjWPZFKl0a52+EBDmw90c0ujR+PATS5giWeZzqZc7uCFFCQP/nnFD5/ihIjgGOKdDt3UiQ/QPOoNvGI9EWB+w8j+qCyqcHQKKEBLvU0lyYpWcgxwqG/0LzYfxlBCT7BYz5heZD+Xi/NkkCrqf5MDYfj1gH3OWExp/WzzVX0OhUT4Eg8wsqb6RT45wdIW0REqw+heaCKb8cAYmTYO2pNBc03ppIXkmw0TQvyreGIwcG7Did5iPlHZ3bKAScT6/KCxDt8C9zQtaORcgngi530ejSWHsocqCgxwQqXSqnrocEbbNg+Gc0H8bZK0IihVUnUn0Yn66A5JRx87woH+4NyQPjGmguzHgRKtB2H1lPc0HyjnjhmDqak4YjkOQRwfKvUOlSOXtzJMj8goHvM6UPThyC0Ib1e5Lqw7hwN4Q4Cfo+QXVB4wcjEXII5IRmmg/jdQiSB05iSqeNRyKg7RbsNJ/mgsYnl0GIEgJ2nk91UjgngeQOwbBJVLo0/rYaEmR+wfCfaD6Mzw+EtGmVt7Hgpe7IWIngXqYuqPxqDYTcAVxIpVM7GwF58Bo6NS7YA4K2PMGYqVQXTPn+CghRQoJ1Z9FcMOU1lZCcIVh7EZ0a3x4CyX4B286k+VDeVok2PsHZNHPBlBcCEiUE/JtOjQ1j84ag8910aqw5AjlQ0OchOlVOXx/SxgWs8DGdGOesESvBShNpLqh8qgL5MmDXuV6UTyyTBwL2XEDzUeC/Edo6BBzbRKcpb0S05cQmem3ZDyFPBAx6hubDuHAHSPYL6PcaU7pMOXkkErT1gkEveSHnbg2JFAa+QnXCtwZBcsUJjV5S/ifkAcHfmJoLY8vRSND2C3ZZ4MX4XB9InAQ7VNGcpGdDJDcErPQ5U7pU/jwaCTK/YMVvqHTy7DKQDABU3kH1QVYdEa+Od7Dgw/jFWgh5QYALmZoLI89BkOwHuYJKp3P3QkAWFKw7i+rD+M4whCghwXozqD6Ml1dAcsPqc6l0MnEFBGR+wcZTaF7u7wzJBBBcxIIT45lI4iSCy2nmgcrZmyLkBHR8kEqntYchIAf2ephOjdM2hiAbBgz/mKkLKqeujSRKCBj2CX2wwMe6QnKBYMdFdPt0f0j2E4xb5CXlv5EdA45poLlggTcKJEoQ/LWOPs10n3wg6P8M3S7aEYLML1jmBZoP5Q/DIBli0HNelLO3iteyLzih8d1ByAeH1XpR3lmJHFiB49SJKU9Dlgw4sIpOjQ/3RKQFe9Y6IZuOg2S/gOGf0nwoZ64CyX4BK37DlC5TPj8AkiGAintoXmoPihXQ4U6mTvj5GpCsJwEXUn2Y8izkABG5mGoujPP2QUCWFGwwh+aCxrdXgMRJsMYcmhNeUSGS8RKMmUqly5QfjkBA9sPmU6h0end3SKYAcAlTH6SeiRArnM/Uh3HqFkiynaDyFqZ0aWw8FiLZD91uo9KlcfZYBGRLwYrfUn0Yvx2FECUErPwFUxdUTqiEZLzdqmhenh2IgBy49wKaD3I8BNnz+IKZCyr/iyBREsFxjTQXxsa9kGQ6DHiRSpfG+bshIPMLlnmJRpfGX5ZD9hQMeobqZc42CFFCwMAXnTDl6wMgme6IepqXuysh2S/B0c10avw7JHsgYJ/5NBdM+UhvSJQQsO8Cmguz5uOznGDIezQ6rVoDgswfsNwkmo+Uby2XSQQ9H/JirDoAkRZ0fJhOjRNHIrsHnE2vKc9HHkzwbzpVVo1DNk2w+SyaCypfGxIpCNauckLyog6ZLWDNGTQfys+HQLJfgg2nUl2Y8p7ekEyCgCvp1Xh6rABcQvUycyNINhPBrVS6NDYehRwo6Ho7lT44ZWsEZFPBCj/QvHy7MiROghGTqD6MEyogmSxgu7lelM8vB8kDu8z2c3MQySgQnOKFxmuRxAmQE1toTmp3QUUWEyzzBJUujQv3QUAOXOZpKl0af1kJAdll6KtUL/M3QxInweCXqC6ofLk3QgYDjmmkebmzEyQPHEWj1zMQkF0Fe86nuaDyse6QKCFg97k0F0Y9CZK9BCPep9KlcdaGSJADB37lxfjuAGRZQZ8JVB/GqkNjJehynxMqPxoFyVzAmTR6HY8E2T/gPDo11h2IbBuw9UyqCypfGAyJEhKsP4/mwkzPTZC1BSv87MX40wqQ7Bewxs80H8on+2YcCbjNi7FwHGKd4BonNP6yNiRz3U6j0/RICDK/oPIuGl0qfxsLyTYIGP4dzQWV368GiRMw6FuaCxrv6IBsnWDrhV6UzwxCDgzYba6XlNdWZh4EnG50qhyPeB/TQq8tO0CyVEDfR2l0aVwwDjlQMPBRKl2m/GlNJMi6gsFv03yQVWtD4iRY9mWqD+PLHSAZSnDQQi/Kh/tC8sCBTTQfxgtQgSx8cA3NCe+JFYB9qmlOGg5Gkp0EK7xFpUvl9I2RIPMLhnzGlC6NH/dHyES9HqL6MFYfgCROgh4TqC6o/HAkQmZC8k8182EcjyB54B9M6bTuQARkYcEWU2kuaHx9GEKUkGDjmVQXxvT8CkhGEqz2I5Uujd+MREDmF4z+jebD+FhvSEZKrmHBS9PJEImSBFxFc0Hlt+tnJuAGKp3aqQjIA9fSqXH+X5CVE4z+heqCKT8diRAlBKz8C80FU15dCclEgi2q6dT46mBI9gvYYZafGyszEypwFmkuLOXFAokSAk42+jTWj81Ggq6P06lx4Z7IgYJ+j9J8KKesCclMAcu+54TKRX+KlWDQKzQXVD7dGVk44JBFXpT39s4DAYfWOrGU50KyEwIOraHTlHdXItr7LqS5IAsHIGSfgCGv0nwY546FZL+Awe9S6TLl58MQkJ0FfZ/wQlbtDIlVzweoTvjO8pCsI4JTWrwUeCXygOA0pubC2HgkEmRpwfZzaD6MLw2AxEmw2Uyak5azRSTjBIz+gSldKn9YFQkyv2D1X6l08nhvSKYC5GqqD7Lxb/HCpUx9GCevj5BtBGE8C3RptNOQIAdWXEWlS+OsnRGQrQWr/0r1Yfx4ZYQoIcHI75j6MF7bCZJxNqqieXl7KEL2E2w1nU6Nt3ZC5hacydSJ8hKIRAkJTlOaByrnbYGQadD5YSqd1hyEgMwv6P0wnRqnjIFkroDlP2Hqgsrp6yCJU8CAN5ww5WPdIBlGcHA93U7oBskDB9V4SXkusnjAoXU0F2zhnRWQKCFg93k0F1Tuk2UEy79Fp8Y5W0GQ+QOGvE3zofx6eUgGEyzzuBdj9c6xEvS8n06N7y2LLHNSg5eU1wXkwASnmvkwpsdCkMUDdptDp8on+yPSgi1m0lyQzadml4ARX9B8KGevBsl+CVb5lildKl8YlNGAijtpPsi6o2MFhKuZ+jB+ORohm4jgeipdWsoTIMj8ArmaKV0aZ+yMgGwuWGUKzYfx01UhcQoY8jPVBclrK0UySYKN53hJ+eZQhDyw5UyaD/KWrpCMBuAfTH2QvFAiBcFJNHNhnLM1kiwi6Hw/C3RprDsMATmwz700ujT+vBECsrpg8ESqD+PUDZDEKWDI21QXTPlAJSSDALtX0bw81g+SB/ao8kJeDEF2FxzZQnNB5c1IJEoIOKia5sLYsgMqssjgN6h0aZy5HQIyv2Dw2zS6NE5ZBlleMOBJqpfqnZDESdDnXjpN+e4gSAY5tUC3N0KQ/ROcQq/GoyFZDgG7zqC5YMrnB0CihICtp9Jc0PTvyJyCUV/SvMxcLQ8ErPQ9zUfKVwdkPEHX2+nUWHcEop1c5YZfrpk5EoynV+W5yIMJLqPRpbJqXwiyfcB602kuqHx3eKwEK0+nuSD57w4ZI8EGs2k+lB8uC8l+CbaYQXVhxtt6Zj4I/kWvxnMkUhCcQPUycxNIlhAkjzClS2P9ARBkfkHPe6l0qfx5EwRk/wFf03yQ08dAYjXgDaoP44OVkAwRsGcV1Yfy8QF5ANh7Ac0H7WKIZD/BEU00H8YJSOIEwf5VVCd1u6MiOwgGPEelS+OcXRGQ+QUDXqDSpXHKUATkgYEvMPVStTWSWPV90AmVr/RGyAyQExpoXm7tCMl+wPE0ej0NAflwzwVUF1Q+1QMSJQRsP5XmwpgeD8kKgtW+oNKl8efVkSDzC4ZNoVPjG92QDwVdbqOaC2PDMQhxEglX0KnyizUgGQHhUhq9no8E2T/gMpoPY83eyIsJNp1CdUHl2ytBooSAVb6nuTCzizsiGwrWnU2nxi+HQbJfgnWmelE+0Ds3SMBlNB9mdpog0gFn0Knyp3UzQsCDNCcsHIkcKOh0G50qp42F5AUEDPmO5oLK71eDxAno+z7NBY23dcwECfas86J8on8eCNh7Ps2FKS+vyBEI+GtKp8r/It77NNBckC07I7R9AQNeoNGlcfbuyIGCwc9R6TLl1ysiQZ7s8xzNB9myGSRWfR+i+jC+3h3S1ong6Govyju6Q7IfcFQzzYWR/0AF8uWeC2hO+GQ3SJwEO8yhOmk8FqHNw8ofUOlSOWVjBGR+wdAvmdLJxH6QnNHjAaY+jLWHIIlVl5uo5oHGD0cgtHGouJBqPoznIUEevIRKpzV7ISBfCjb4jeqCxjdXQIgSEqz+HdWJXdoJ0qYJNphBo0vjV0MQsp/gT/NoXh7qibwpCJf7aTk9iEQJCf5Bmgcqf9qkjYPcQ6XTwrEIyPyCTrfSqXHa1sifASO+ZuqCyq/XRIhTwMCPnFB5Y2dIGybYpoZOjS8NgGS/gL/M8KK8qWMOQQVOJ80FU14ikCgh4KCUPo11W7RlgmVep1Pj/F2RAwMGPU3zkfK7lSE5RND7NS9m6caxAnrdR3NB5eud0HYHnFBP86G8o0s++GuDE1OehIA8GrDbAjpVPtoV0d5yBs0FycMQ2qqAVT6g0aVx6iaQ7Bew4odUukz53rI5RdBzgheyYX9IrDpfT/Vh/GQEpG0SwT/VS4GXIg8AZzM1F8aGg5Egnwo2m05zwjcGQ+IkGPMT1QXZfC5E2qSA9X6m0mXKL1dAQOYXrDWTSqcP94bkFCD8h+ql6XSIRAmC06nmwvj9ughtkaDyDhbo0qgnogI5sNMdTOnSOH07BORVwQrfM/Vh/HpNhDgFDHqHqQ/jjZ0gbdLW9TQvLw9AyH6CnRbQqdl1nZFjBX+jmg/j5QkkSqjAgQ00D1TO2wqhDUK3Z6h0WjUOAZlf0PsROjVOWRuSYwKWe5+pCyrnbIQkToLejzthyqe6Q9ocwTENdDuhByQPHFbnRXkK8m3AuEU0Fyzw/k6QKCFg62l0qhzX9ghW/pjmwzhtQwgyf8Cwj2k+Un7UH5JrBN3vpVNj436IdsXVXoyfDUEbKyIXpHSa8nIIMr8EnEvzYWw6CIJ8G7DlbzQXNL6+fKwE6/xCc0Gm57Q1Cdb+geYj5fcr5oEEa/zClC6VT/TLPUByjRey8eRYATibqRN+vSZCWyKCG6l0aSlPhCDzCyquY0qXxjk7IyDvCkb+SnPCz0ZB4iQY/BVTJxxfKdKGJPhLHc1Hyhf6I+SBXappPmg3dITkHgDHUb1wfAhxQsDeauZCOX9rJG2HoNsTLNClceE4BOTAvk/S6NL40zoIyL+CAR9SfRhnbYIkToK+j1JdMOWj3SBtBnBog5kP8oHekDwwrtoL+S8E5GHBofU0F1ROCCJRQsBOc2gujC37IGk7hrxNpdMZ2yEg8wuWfYtGl8bv+yMfC/o9QvVSuyOSOAk63USnKd/pD2krwvn0arwSguwfcCa9GschLwds8xvNBVO+OQQSJQSs/Z0Tqp0laBsF6/5E82H8cXgeCFh9Ks1Hyid6Q3KSoPKqlD6NLScHRFpwhhfjt2u1EQE30avyb8iBEnADjS6Vc3eGIC8HjP6B5oLGT1eNFbDMlzQXpF7esU1IsPUimo+U7y0LyX4JtphNdWHGO3rlKAScTb8XJdHCIVQnnLYpJH6CTs8ypUtl9TgIMr+g/1NUulT+tAES5OkeX9G8zF0XEidB90eY+jA+WgmJXsDhzTQv9/bJA8DBNTQXRvsXguQqHNhM82F8GCFOEGw7i+qk8QBUxE4w4i0qXRqn/gUBOXD516l0Mmk5CPK0oN9jTL3U7ICKWHW5lmYemPKtZRAiB5zSQvNB3tgBkgeOo9+jEJCvBTvNpbqg8vm+CFFCwIbf04ex+USIRG7MtzS6NP60KgIyv2CFX7wYX+yBvC3ocj3NXBgbToRIlCTgPKV5oPLL0YhcxfVUej0FCfLA9TQfxkXbI38n+NN3VBdUTlwNcYJg2YlOzHh5R8Q84M8L6dT4YT/kwASbz/WivLVHDkPA2UZzYcYLKxHpgEPpVPnbplETPEfzYWw6CDlQ0OMBGl0qf9sCksMEfb9yQuO0MZA4Ad1eprqg8d4OEUuwf6MX5cP98kDAgVVOzHhRkssQcEBKp8Z7Ee/tq2guyKZdEWIVsPyHVLpUztwOkv0EQ1+h0qXyyxUQkM97PEvzQdrWkFh1uYHqw/hpN0icBDi9keblxi55AHJiE82FUU9AB+T1nebRnPDl7pA4CTb6juqkcCySWP3pUypdKn8cg4DMLxg+iUonr/eG5LZut1F9GOuPRIiUhAtp5oHKT0YiRAkdr6SaD+P5SJAHL6PSac1uCMjrgvV/obqg8b2VEaKEgBU+obowphd1gERIMHYhjS6NH/SCZD/BRjV0e3tX5HcR/JNqTvTCCkiUUIHDWmgeqJyyWZRQ+TiVTpsORkDmF3S9j06Nv26BPB8w5DOmLqj8ccNYCTo/54Qp7+gGiY5gtxY6NT7VBzkwYN/5NC/jO+Y6VOCoAs0FU95UCYkSAnaook9j3bbxEQx8nU6Ns3ZADgwY9DyNLlNOWhWS6wS9XvJippvFCuhyK80Fle8FRFYEZxW8KG+uzAEiOLnJiRmPQUC+D9hyHp0q3+iFaK87meaC5JEIcQlY+3OaD+WP60KyX8DIL5nSZcpX+uU+oNutXsjmwyGxknPVifGz4ZCYCDpfYV5Sno8cIMAFTOnSWL0PEuR9wSZTaE747ghInAQjPqa6IJv+FUQiErDRDCpdpvxsKAJywOi5NB/kg70guQ8Il1K9NJ0hIlFCwDE0c2H8Zl2EeAi6PMgCXRqbDkEFcmCn+5nSpXHK5gjI/4IhnzP1Yfx+XYRYdXmaqQ/lbV0gEdmVZl6e7AnJfoI9q+j2yg4oCQYcTjUfxv92hkQJFfjLfJoHKhftjBAN9HuTRqezd0RA5hcs9yKdGr9dHaWCvi8wdUFl1dZI4iTocqsTpnyxJyQSghOa6fbOzsiBAUfUeSnwZJQKA/ZYRHPBAp/sDokSBJtNoVPluFgErP4FzYdx6oaQ7Bcw/BOaj5Tv9IOUCARdbqFTY8thiHZyYerE+OlQRFFQcYXRqfJfyIEScAnVh7JxFwSUCgM2/JnmgsqPVooWRkykuaDZuXFIsMVUmo+UXw2FZL8Ea0+n0sn9PSElA6DicqPXlrOTWAmOUDMX5OQNIP4ElXdT6dKURyMg8wsqb2VKl8oZ2yKgdChY8VuaE04aDYlV75dYcMJrO0LcJdirQPOhfLZfPthxEc0HeW0nSAkBwDFUL7w6iEQJATvXUl0YZ2+LxJug/xss0KVxzs4IyIEDX6TSpXHynxBQShT0eYOpD+PCbZDESdDpRpp5YMrneyM4A04oKL3+tzskD/y1gW5PR0BpUbD7IqoLpnyyEyRKCNj4e/ow0wP8rfIZzcuvmyAg8wuW/4TmQ/l5X5QaBb3uopkLY+MBCHESqbiwQJ8p3x8A8RUuoFfjFRBk/4Bz6NW4J0qPAVv8RB9M+c5QSJQQsPJEJ2b6D7gWbDLVi3HSYOTABH+aSfOR8r6ukJKDSLhU6dPMzgmItOCoZh80fj8G4kekw930cyxyoAjuoNKlcuY2EJQeA0ZNprmgcdJasQK6vUhzQfK6zvBbgT3qaD5SvrIMJPsFbD/fiRmv6VySQMBJ9HtlRawEOzTSnEwfC/ES0ONlpnSpXLQ3BJlf0PsxKl0qv18fAaXJnp/RvMxbDyFWnW9n6sP4aCLiRHAyzbzc1j0PQP5aT/PB9CwElCp3aqT5UL4kIlGCYP1vqU6aD0GFD8Hoz6l0afxxMwTkwJU+oNKlceIASMmix11UH8b6fVARq4rzCzQPTPlePwQX6HCRmflgOj4RyQNn0q0dioBSpWCr36guqHx7WYQoIWC1T52YpadCxIFgzM80ujROGYGAzC9Y5VeaD+OzXVG6FFT+h2YujI1/g0iUEHBaC80DlV+Oggd0vo1Kr8ciIPsH3E6jS+PcsShlBqz6BdUFld+MQaQEXd50QuV1HVH8ATs00qnx/R7IgQm2W+Tnus4lDSQ4IaW5MOXVnRHpgO2b6NM4a6viE3R8jebDWLsHcmBAn8dpdKmcvD6kpCHo8okTGqdvFCugw31UFzQ+0KXoEhzZ7EX5QG9I9hMcuMiJKf8dShwIOEDp1PhovLDRNJoLsnk3hOIKWHkilS6VU/4MQeYXrPQOlS6VnwxHQKmz6wM0H6TtBIlV5YU0c2H8sBukmASVF6uZCzNeUpEHEP5pZi6MzYehAqXPLabTfBjf7weJk2CVj6hO0r8jKa5NfqDSpXLSagjI/II1f6bSyQs9ICWQzuOp5oJsOgUhUoLjm2geqPxiNELxCDr9l0qXRjsNCfLgjVQ6XbAjBKVPwVrfUn0YJ66KECUE9HuD6sLMLukAKRrgL/U0Lx/3hGQ/wUbVdHtTF5RCRXAazZzYFR0hUUIFdq2leaBy6pbF1OkVGp027I0EmV/Q/Xk6NX63LkqjAX3fZuqCyuljY4WACXSa8v4ekCIRHKJGn8YHuiMHBhy8yI3+KymRoAP2baK5YIH3doLESbDBVCfGmp1RpIJhH9CJcda2yIEBg1+j+Uj55SqQEomg21NejC3bxwrocAnNBZVvdS4OEZzdQqfK6ypzgIic1uLElMchoFQasM1cOlW+1A3RXm0izQXJIyHFELDZjzQfyq9HQrJfwJrfMaXLlM90hZRMgI5XeSH1FEiscHSjmQvjpJURWk/Q9SaaDzOeAkHmFyTXsUCXxgW7IEEpdcxkmhN+uhokToL+LzB1QRYur4C0WsAO86l0mfL9/gh5YJ0qmg/y9s6Qkgr+SfXSfGEHSJQQsGcDzYXx+80QWkvQ/RmmdGlsOhQVyIEVD1Lp9NfNICilCoZ8wtSH8aeNEeIkEh5l6kN5c0dIqx1IpZeHO0Gyn+CgOnrVf6HUWoE9qOaCynu6QqKEBBtNo3mgsnYPhFbCkIk0J5y2FQSZXzDkDZoP4+fDSy6C7g9RfRgb90KIkwguo9OUr/aEtIrgHwW6vakzcqDg1CY6TXkCSq8B28ykuWCBr/SCRAmC1b5wQuWhaNWANSfRqfHntSDZL2DE5zQfKd/oAym5CLrcSqdm6aGI92nNToyfLNcagi4306vyDORAEVzD1IeyYVcElF4D1vuG5oLGL0bGq+9rVBc0u7g1Emw3h+oj5QfLQLJfgs3mUenk9k6QEgyAswv0qhclsRLs2kDzwZ83RVhaAb2eZkqXxsI4BGR+Qcd7WKBL40+bIaA0O/QTmhP+sBEkVh0nsMUFyVs6Q5ZSgn1p5iPlM73ywW7VNB/k+ApIiQYHUr3w1iASJSTYeA7VhXLedkiWjmDQx0zp0jjzLwjIgcu+QqNL42cjEVCaFXR/lqkPY/WuSOIkIheT5oEpn+mJsFSAc6h0ajd0huSBk5rp9q8IKNUGbD2b6oIFvtETIUoIGPWpE0t5BJKlM2Yyzct3GyIg8wtGfU7zofygO0q3gq7X08yFsXBErERwSgN9pvxkCGRpdLiKfs9DHgy4hF6Nu6OUG7DJz1QXVH40DBIlCAa+5YTKs7AUBWNneTF+tmweSLDhXJqPlPd3h5RwRHBBgT7N9LwEkRbs0ejE+ON6kCURdHmS5sOMeyMHioSHmNKl8reNEVDKFQybSHNB44/rxwqQCVQXNN7SGUvaAQc1e0n5dG9I9gvYZT7VhZld3hlS0kGCQ+nVeHPnWAnWWUB1QU7fGrJ4Af3fZUqXyrk7QZD5BX2fptIHvxqDgFJv59epPsgFYyGxSq5g6sP4RGfIEvyNZi7MeGOXPADsV0VzYSycigSl37800HwYHw8iUYJgja+oThr3R8XiCFb+nEof/HZ9BOTAgc9R6eStHpCSj6DT1VRz0nQgKiIl+FsjzQNTftAfYTEgpxRoPli4SETywF51NB9s3hcBpV/BRj9QXVD5cl+EKCFg6CtOzPRkyOIs/waVLo2ThiIgB3Z+mEaXxic6oxQsqPi3mbkw1h0DiRMSHFRL80DlxJUhi7FfI90ejYDsL9i0hj6Nc7ZFaThgtS+oLqh8fTAkToLkWSfGxmOxmD2fo/lQvpQgDyaYQKfKyzqWiFCBows0F8b6wxFrwZ8W0qfyneH/R7BFI30aF26HPBiw7G80F8ov1oaUiASVbzphykf7xQrAeKoLsvDX/5PgVvo05X+75YIKHNfiw9h8ppSMELBbI30aF20OidZqX1FdGN/u9zuCXj9SXSinbALJAYLuj9DoMeVHyyGgdNz5bpoLKq9AvJMz1MwD2bgNBEAFDmumeTDTiytyQYItZ/gw1u+DCpSSN/iR5oKcOxgSKcGyrzB1YXwMCSDo8ACVHpWfr4SA7C9Izi54eSIRKSklF5iZDx6LECkE7LOQ5mPmKAQkWOtbH8bCcUiQC3o/RqXL+VtCUEoWrDqR6sL4HCRWgi6PUn3wbCQIOKCO5uO9rpB8sObXTD0Yb+yEEnPAyTTz8fNohEghwcbzaA6ofKonBJ2upblg3Q4IyIeHN9AcGCevjdJTz7eY+mg5ERWxQoLr6FI5dRMkGPwuUzo03tYJuVDQ8SYWWPxm6RkoPVdgz3qaAxondIHESjDia5oDY+FMAFtMoTow/rwh8sLy7zF1kPLdoZCSk0jH+7x8tSaSWAE4qZkelU/2BY5pobm4pCI3rF1FKz6jHoqA0rNgs2n0sWB3hIgNfZPqIOU3a6LiahZY/MqvR0Lywk5MWfwpn+oEKUEBHS41H81nJZB4Yd9qWvEpF+2Lgc8zLT4zHo+AvHgGtfiMC7dBBUrRglU/pxUflfd2jZig24NMi89SXiSrf0ctvpSv9ckRD9OKj7w2ESlJATimhVZ8KT8YihAtJNhiNrXomPKBnhs30orOWH8AunfOiR27/erih807dOlcmu5SMfRdpsWnnLZNRZfO0e7SpfK/HpTvr7ALU3p486VXXs6Lj7TQ45zXX3q5ZP38j9TiM9a8+9LLEX/l+UnG4jfOX/9MavHlzCkFF2XIphZmT+U2NzvR3Jhysg/TUrb5YG2TadRdpDz4EZqL/Gj82Uf50TijnplT+c+Pch45X8tEP1Vnkdu/yn1lYuOPVVnkvj+0TPgDi/HFP7Q83W7sp+rsoZyQ/6xc9FtNFrn3ndy3QMtEsxuyyDUP5b5Z5SFSNYuceQM1501Ly0HGumpmz5R7Hpf75mt5aN7M7GFs2XTb3FceNi6cmz2UP6yx/nxavrOWchDZ3JI9Uj4zYPm3meY7nVMWapqVSS4LnW5mId9ZS1moeUZz5jDWHAQcX6DlOmpLOai2hpkz5eQxwOa/UfNdYw2t/DNnIS1rKB/oCQx8hWm+04Kx7FuoLjBrGpuOhwhOaaHlOja1lH+qp9KyhnLSaCQJNpmS99JC2UdntDBzGm9EEEHl/dSc16DlnubptKxhXLgFEiDBrrW0XGeplXt+bWLmVD6BBAAC3sh5bG4s6xhrFjGDLtgQ8nu71zPnt2g5hzarLnsYb6rE/+12Py3faaOVcxYuZOY0TlwDi7n1TFquY1OhjFOY35w5jI2HYnEr/pWa5Tpr0rKNzV5EyxiW8ubOkP8nWP41prmOzQ1lGuO82TRmzJSfrYSAxQzYZhY117G5UJYx1k43Zk3lrJ2QYLED/lag5TqtK5Rj2DijkVnTWH8MBIsv6HQtc37aZGWYpmn1zJ5N53RYIgj63UOzPMfmhvJL87R6Zk1l3eVdIFhiwYpPMrU8x5a03NL4Wz2zZsr6szpCsBQFQ59nwfIcCwUtnxhZP7WOGdNS1p3WCYKlmmD5p5SW59hcr2UTsmZaPTOmGX8+uIMIlnKCAdfVM9dboa65XKKz57YwY5rxtY0hWPoJepzwK83yG9lS1VIGMVrjrAWkZQlTZfUtKyBpDQiw5USamuU2pg1VWvZgy9xZDcZMqUr7YP8eCIJWFcGQS+fS1HIb2bCwoGUMI61u2iJlplQj5/5nMETQ6iLY+ME6muY3pgsXNVuZwshCzfypzcyUptTp92yCIg2Cngc+V0Mzy2umDVWNjVaWYMvCeTMb1CxDmJFTbtmmMyqkOIBEZNn9H2ig0cwsh5HUlpqqxjKEzZ0+u7lAY0Y0M9L405VbdEFIULwhAD22vHGqkaSpmuUuUltqZjSk9ntW0jP7vULLr1PrGow0ZkBTNZK0xlf3G9URkICiFgHQY497Js5TkrRCIVU1y1P/Wz+rsbrB1Pi/ZmYlNvtfkjS15nk1v/6WMguapmlB+b8Nk588Y0UIAEHxCyAYuus5j3w1s5a/n7a0tLQUcnRqjTMXLZxa1VhV06wkmRZK6kqSad3C2urfpi/8dQEtLbT5LS0pf7dp3g/PXHrI6AT4HachANJvla2Ouuy+l774dVHKvJ7WN9Ca65uVJfZCY12jFRY2MUta49zvP3zs+lN2X3OZCiAkAs8SKgIAVHTuP2r9bXY74Oijjz79ivG5+srxV139nysuv3z8xf84/Z/nXPKf8f+5/prxJfHLLrvqgrPPPP2My6687PLxV189/srxGfA/Fxx79ME7jV17RLcOAkCSBK0PAFZQOCCMRAAAsEABnQEqXAN+Aj5tNphIpCMioSPVSPCADYllbvxWTSFhig3CQ0tg/+p/gZ9C7PE44p/Vn9b/kv2m/f//6esnHviX8z/fv1q/xX7edWD0p90/NH9X/Xj5jf7rus8x/6/nq+N/qv+c/wX+O/YP58/9L1E/1D1BP05/7H92/zvwS/7vqH/tv/Y9QH8+/xX7je7T/zv2v91X9b/137Z/8D5AP49/dP/f7Un/J///uEf3X/lf//3AP5X/jv///vP/b8Nf/U/ar4Ff6V/u/20/4//////2Cfy7+6//j/O/8f/////6AP+r///de/gH/W///uM/wD9//cn8z/p/9c/Er9r/JX/E/339rf7p/4e6f9ie1P7VdBb0T/B9Jezf2I8AXz16AX3PYma5/sPQC78eAZqL5AH8+/ufoz/2vAp+v/8P9vfgA/kf9x9VX/D8V/6P/svYC/m397//vref/L2vfud/+/cP/WL/8C1+Fya1hufUEPkOq+ah04lWgYpKmQ/bmKgh9QQ+oIfUEPqCH1BD6gh9QQ+oIfTJSZ9WZHNAMmRN2TGyYK8OH64BwuTWsNz6gh9QQ+oIfUEPqCH1BD6gCjElfquRp9Mnb/LYh5OlDg2y8/8Lk1rDc+oIfUEPqCH1BDkUqmWsopf/8unh/lVMf4w2y8/8Lk1rDc+oIfUEPqCH1BD6gDZAuPwS/oNOy21OYwHM9V3s9VC3PqCH1BD6gh9QQ+oIfUEPqCH0yZeV3lYA0AGRIdzxy5DVrvpI8ON8SblGeytPPOhUlJojIy2yY2cR/4XJrWG59QQ+oIfUEPqANkABIzDyW52ipvLMTIR80ePohppvLlLn1fkeQAl9spyAMANpAqYyEY+sHr280a/4XJrWG59QQ+oIfUEPkutH8Fh4mIAeV8m4a96NA/3k0/rJtMUDARaHUDYygD8FrZdCVkcj57YkyycNESXJrWG59QQ+oIfHMcuwWfnyoVFsu9qt/eSK07VtcCCjucUakJPrOMwUQqN1iZvzZacFcW8/8Lk1rDc+oIfUEPppvuoUTdH+ZBjBPJQ5dYypPUm1LJtX6iaLFZsLc/eyMKfMKdh6Hl2a61hufUEPqCH1BD6gfjMClSlAFDbD5sVrAEe/LAMdzCJY/U3q2p6ot4PMisNFC+HbLBUhz+ekfJw0RJcmtYbn1BD6gCjMY97DGaZDbPqSE15/3sXJZlIN3Tk/vJRx83JcPWWoc8iwWXExRqkk6SBPm31VqUYhI4XJrWG59QQ+oIfUAHKoelcJjj6wEyiYrWG380HYkqYz3MBHh6fr98X0Y3SA3uXMtZB27Rt4Z/1FXpvsY9svP/C5Naw3PqB+85QErjSWvFJYbnx1Exxw88XyFnoI9niR/XCRrO+V7So3YWDilI4D73Qz2j4YnHZ6rg2y8/8Lk1rDc+S668YqQu/A9iJzNdl9svP++vXyl3xxkjmiEIjl0+yRDJQ7gE2YmPn5XXKqArfjAO2mutYbn1BD6gh9QANGzZ2B6m6hT2yKmITD6gh9QDd/Y9IhvavDvGXp/elcO4jrZG85sWro5ewLopmGnZi9mWAO37b9Ybn1BD6gh9QDS5JzbMZOcDnfaNwLk1rAdtevg4oUola3oEj76L8uLAFTcTWoPDddy/OiJLk1rDc+oA2HNvuWbPQNKTJpwfUEPqAOcfGzvscPFZ6fXPqGXqj+RhUvRU1E84KikbvC3PqCH1BD6gDY/Hg1c/EHMltuIfUEPk8q/JI7Ob7vxfflKdSwCRQigzsi9afASNuNDLx/S/OiJLk1rDc+OqACHbfOUTaevlUlLDc+oAkfXTqwXGzhpfTO++4JvBkareIv8HU6TVcA1c+Jp5+cpVlSOMe2Xn/hcmtSoB+Y42XXXHteKSw3Ppm6Sc9EnIXTcSbWbAYC57rkCLO8AfJ0sR+3amxuVocRlb07oiS5Naw2/uYFYRMaGx9LE9gyuuG2Xn/DK7Hs4qHfxl31ePTliE5tBz6gswlEMkjXiBs1J3QN+EFVOVlSyTEPOiJLk1q/0UCzVi9QfBm59QQ+maLL8lsHooJEVFoGREy32icstrBCKo9kNkxFpvBg3Xgo+8PcQYwJN8CcYm/k8DiScQ3PqCH0032hwbNoFWzPos0eM06gh9QP+Vlw/vRDwnp0R9YApopq3ER6fIEg++ayyKhSq2Y9WGP3Ucoj3dcGdw3PqCHIxEKY1aXBiordPnBtl5+CP3OKBulQt3CW1BAHa7hp08CFNXcOuMOF2yN9ARasItN6vkujxjXePwW5DwuTWpUBPCMOjES+/d9hpRDLhJYbnSB9DB3luxuywhOGiI3jzTh6lDj6Yzel+Xrh8F0oguvnekDsqoW59QPxivQ5L+s0l3NCEPqCHyhQBxkfCP+DJdCWG51VT54ObQClsSoLr1b8LzcXi68q+KsDV9rgLY3PqANkAKHBNtvLef+FyZ5aYKEmAKIRJcmsS+rGqxowYXxUuxo3lUIiYuS9mSoWC7G5OGhUlJgIDO0+EJMud1vvP/C5G98GzjQARsuSOCWsvP/CnSM2UmgsOzjpW0I2hV7vw5kkinJqvdlPihfxmufTItyUZLJ+A43t/0Bzdaw3PkDX2En9M3q6NrGsJLDc+oA+wvZktig8d5WLO8AwpwO6XBvoGBD1NsekYSUzgGJ6f7kBc3mr/oiyTEbhufUA0t35J1+ITJMJfNZmcNESXJstSvKeKuZsJB4OLq52J0KY0cNqsJEdPTr9F+coV8uSGQKbRO8YozHHSWG58fGp2cANOz6gh9QQ+UTms9QVd+TYIn+xAOVOjcnGFsXiwWf6fIfGa+tzFc3zhzQlEwxEAHqdsya1hudBW34fUqQQC8Kf9lwCnRElya1gDKrM+i3NcF0gEZvrTQpe4PuHNDzPlsGNzdJrFWuC6PvJOYJH/hcmsJPYmCXB8Aa1TZodKHBtl5/31vifKd8rfbQXEKQZbywyddchautz87M8b9Ob6BihMwSHxPFOC3SKtw3PqAcgLPsfFYKw3PqCH1BD5BhinQWy5SiqBQYQfyAhu9yJnU3vrpndpwt5abFgqq6lv0yCwHWDi3dESXJm83pc4F+n1636w3PqCH1BAdHyW5qFT8Zjf2HlmxYEokNEe+Z42xpRphsTdy2h0+3Rn6RHKbb0XoNnQqeWc6kkwV+ZU3y/BOi/NoVPLOhU8s6FTyzoVPLOhU8s6FTTVVomybZS1YQLht6L0GpKhlB/OFbAEEiU0X/I6sFF0WzGVf4yHNoX6DktiKo/QclsRVH6DktiJ6mOfaDVfYDYIaGYZD0umJC+g+oIfUEPkPGisA6WG59QQ+oIfUEPqCBKUNdwBD6gfrQ/2hdsqhHBZNTTv14CjRRZeIm/QclsRVHsWXHBCfctTynH+v40IfUEPqCH1BD6cbMvU/1Q2haHolajhvHA6UX9CiWd8JFAAP68GAISUB8WNozrGeJ/A5iu1XluBPzrRhtHu3KJDRgIqLBf1e+OSyNDiRnbSgAM65D76vN3kUfn7x3zP71EyG/ll7c9hA8wbo8g7Pdpu2q/ZUFbeQJpRJPFP2oWgw7JF7yyhTs2Fhi04NqBhGuu8O1xjbH5aoflz6jOkig1wmnTQmUPwocW0gW8UQOuL5luTiDxWHNvY5PdPk606uFZDUdz5jdlrdVPo4L/2VCqa7svjpeDYDv+eyEM+jr80GQH+J22CqqAAAAKuyMBl05aKdbXM+kBlQzczRuXwS4QkOi6N0p3iuwkAa4zhjY2pYoOZqEZz7vpW5hnfVif3xtnHfBLQh91BscNBENySOhAI3EU4JPq0PWe8prZI1airzR1MnDRyT8PseqLhBTGy5jVk1rMGsO8N433fE+zY8mix0Fx13W0rs695/ytAWokYAAAAFi15kRj+83m2sxA3/YGqmJONasod8iL6WOSQkI3OWiqb/pCjmCDiP6r+/nMgQ//ScgiDVvp9R2ir4WsSyx4RXCkj9Rr5TqzdP4A0fkjGR6hIaMO0viiNfqgYcJA6GG2BDgPVNTK2gMxWHgKrEPQt8MqGXCEr1V1qD74AAAAEtwb9Nz5Mn4gcqVCgBPdtspBXkze4q3e3KkQ13XNJ1UEsOeC/Rlyl37dYQK1aEY1xHf3omezLS0S7QRbUGFxiADdeGi2U73l9dOzy4Uno2Bj09FxwnaPbMQ4enjZEtWnGaGIemNeTVXt/KCndK2PCZzLCznz9bd9GalfuphqkFMUrqOW7IRzMsDzwQFCKqjRBZb1vOAAAArPCcSd7k1uDxF2yv81izUNlNsoYToOwnMkuoWHaWS46CDagIjfUPvqvamzJXuXTd+OLmR/7xEM5m+yv1x9+eRbK9RpfkF2eCCPCiD2bZ/QgQRrx2RE6pF4Fz9hjhyjYYeD+xISLK2YN+BciSMsWbUc+cpTRA0DQFXxU1VMWsY2LJB/IhxXgO6Roze+5cq1Ivx5pVzh64lDVGEQzztzyegXmDcm0FdgCjpwPWEHL1fZXUABb0x7MTOv4O/mug7f+nWc9GLM3ldGlK2G/yUzMtgAZtRL2s7+NqaqEJP3TrZykJot7I65WLx0FYUxyKk8EBSCfwJOfnnrL3ZOGjfA4yWBpUN5JgqUVpOkDAAAAAV1oNmv0nKkvuGgJvZ6P3X6D3TgKRzgOmA6bC91BK+1xgNdth+QAJ8VltRC8NcSfVQLoFpZKbgWuyQYfoaloku9WOMoZE7OMZzYyvWO6nmLjzv3M29EpXRLcdExgGiBwXkPcSVm0LAdqOL2SE36cIYtAfObn1npkZyEQmxggX9iskWQIB97Z76yEJr4NuZOmfy2cPW6r8EGgN9kse/NfdjqMbNUDgAmNGD5igL4uiyzysYNZ3h4OEmyxDYSBpQnLOzeAxTQvPN2nlml8UjxFmj6/OwOF68Vb9tnqpR7A9rntm5sy8htrSB+VzBlRipofo/dy92eyXJTnsluOKsCMC24ySg7MGumkaNXkWrQ5pEDN1vl+RKxrw2OVyV/1vR7mucfgtD2bTXtnEgVUBcckEZzveRaHXWDnUwLkNxLMyXqU4TlIUe/blgaBQCIqh6PxSwFQrS4SUQjh3R++C4Cq/6ZCC8Nqd+ayiUAAFbahqnYDvIxK/cDm7O8TM648Yxce8hwx84H0WNUrcMVIomINKlkdmyJBIll5x8Kx2aEtlkJ8K0JiZBHKJtbq7S202IkUo9UqSwFAhUIs4YE9INp7ygKE/2x6G6KC6vQckvRJmnPnk+UTj5oPaaeMm78uAiff3vNPyyPLnGZRdO+qbggXPrrauQG0QHULSSznrDNarlbQnz0QPI0ZTq25BNJZcS7PH95u183zeJIU7yUC7z1H8xh7E8uqArsKk7mZKTlYcbQKjT91WAquVCg/EtQJZloUilmYjS9iS7yUyxk0GN3jIMXkuVrvKCZbdlD9+rri+Btjm249VzkeOY2/Zb81PWhY8VZjjfn/Fw/BwtfYFvrAis3ZJcJRonwR5TasMdt1ChxRKlWW5T9zMuBa3iXk0kO4vpaqxhGhq2sow1WfjtWIb+Ir7qvBkbhc+nmX+VRwDAsZRWypL2298rJg1RpDTDT5o5bQb5Mqx8U/kbDZia7js09QX4FzgRbPWU3ks6vQ9TPiZ+qbpsvB9twFiXlichYOrZ+uOWfdv/+XG+CeM1K1X847Yh69tMyaO9SYEHkMYAAAQ7OJzTi7QK0ZPi4gwf0JBcHFFiuZAkHG4+uuM8lbM2T+kAYDW+9OuVQccfTKdHUYUfgtao0G5zQzgQcczK7eRphvLcgOoQ02IKOhh+3JljVAjJGK1SPawn/w3UkQSAL5kg7Pe7qlRUhKGRfJBpKOiCWFV0CqsuljmgAEQFopZ2udT5i5twsC2T9zLz/yRaACYaYpBfqddwYMOLVgIWetoPZNeCtIDO9dErYEBR+7eVD9/55ukwqnBjb8VcFCRKlCHfhYM/egQXqZhveS0VOFXpN+r19v+wOn4sE/LxZ0WM0dAp+r85P4dTgGLVIDXEBfCOnthj/zeHs9D57jfLoWERbkwjF3bZgBvPZPL7KwL7yVT3+Se6vSrm+gVJ1gzQD4GDwqq5vVcfb8mFU3FAtqMtHBHVZy05EfSg0XLMq9a0bipcbJqwshrlqKx1lFShhxJb8hOHiIGtm3Hpvctqrn8sjXjHAAAp7J+2spIl9QHuyjT3WVpPjCrFK5Y6L5IqnyxQCOCk7rFR28RH9Xfphv0+4yRqCgv5R1Ujrv9g8tB3P9bRtRHITmz5zDZhPQXC8dkb/N1vxoYyQBzkE4YB4C1uPZfQ/oWniL1YjUKSurgOnWDYL5xZAaxb+kyoYklAgO+l2cMOlqTDbcBYWxZDEuNrpTuabCzkMImBNb+J83EtrzLyG60tgYfC+MCb7StvJBfqEmSy9DnnHiUVgYeUuE9a2CH0Gp0IHkChO7QTrvzsJxB4KQ6+7p6Rs/fhfVjjzcAWc7XI5KYP9Lw/yGURvDtTDBQcbIsZn/hIKXCZt05IzvzB17qP8AjyaV2AV0k0XLZC2FMqFFY1cx7ZbrexZBEMc2iaH0if4tI1knSdvNoPau3D/JkheNIZpjpcloO+AFbYSkku0CqW+tx4VyS2eSTVQ5LVCUG/DBD7YIpazRjAxJGMJ8P/mOH/wGn0AhNBP7OfjaWkAAkBZOCalw/a5MBRkm2XtnwLLrzUDTzvfLhS+a9YjA6UcVL99QiGc3HFa439mwzkKDw7SSJffAd1fkdsk7Eka6gUp4AoUmzow72VLQ6F8a8jmpUkh9ftD4sR+ij7Zk1bMGhakDL2i/e4Cz3u76tmItbgbmEBGctOL5/7VI0DyugrLeautmzEZxGeOpjV7+Z384IttGZjBAbSmCkN3JeDAIvmufQ2SxUCF3hqlbdYgRn11KhqwxTMoh1HZhMXh8HFOnNk5mEAVKlxfqYZ+d02OYEqjiegJLMl76DKvmPriNVqGD7hETPGB2T83h7Wgh74hARNXbtYIFDLY6JxtodwqlTgQ/h31xjEq63F28gAblXfZa+FFa6X2pLb9Rl2KwY30Q0USex0G+qnfZG0J5JWVhiUtgHqhvEKW+MoN4NzrbOIrsLZ9LAs+vgbmoOt06bXYwsrxC6jz5E2kfd+nqO2br159O5dbQZOHRSGx6D3IIbEfWVd+sBEtrmVTB90Un22/wLsEv7wAADPsRGN4SnI9L9ccs/4xjs3zDWBb7IfXl185TiF12WokLQdGfYV2h0QlNm113t5u4g4dFZF+dhCsSyPkR7Rqr3iKZ+son3Xe7ZuRFPFMOyPvUUzaebq6ZBgq5hX0ySf4GWMbFFhCYnVwtEPRibaJtoDrRWPQ5PlKc1jz5df1921FEBq7UvMFBjU8HWEqTBBg07gHbyUC7YgdycV+ZDBy7BpBX8KSu6elh6tjVHFzTgQYen8p6/t8OFBpAJPYDqZXHsVKmhu9nHBV6YS8L/CZhl3v2YA+t2tyxEhy2ffK/Ds5ir2x4PHUt23MtGd6yHarK41HpdnJ9s/vTMGW0VgMyOSjc7F0bIgnF7z/JEsE7Yo8JsHXyLTy5ZXzK80Hz8nsWQpEDmpza3kHPmZCSQonS0O1vVP+/14FrVl2pNhihB2rv5sl9KweYNzgsdmcFz4YKQyHEoVTXF7fs2PbZ7TdJrfR9QT0nijvzTYSL760wyIZRSasdmbbM7bu9XcLh+0t5n4Zs+IFDndPjs2qx6aNBdAHL/ggnrMdf9lUlbBCSKBPMCXM/kzW8JJFSp/LcsBv42xX6jUKRiaYjO2jYWGfIvANF/eqeaH7xjpvfeLva3y59uHNE0ngABE2W7ndkna/zpxs7BiauMEOT9pBxSA9Q3XvKOXPAcYhYOcK0yEx43MkilhZX6rOUqVhTGzZZonxO6+jjCEvmBfvuQll5Hwdj902f9IukQV6x59rjy67cfQ59Rx1NE11v5LVrSiJ7Tb6EgJ2mdeorT+XMyC5hJuEtsbCGSSs7ib0mor01MF0I7dM7Q/VfUXqI9DomSAD7MEWeLBY2zzkzXXMyM80PdYY9tgJcrn38FUxrPEEf6kT13Yhy3t0uXbSKCzyby4o57L8EyFLBdwn/ATtpMCU1OLYLz2RZc2t3yTFbnrk2/LsLHEbPb5DirHdlpkM1EXcbiu/kzXBi8uTSMkRa66h2av7vf3Qjekb+Vcg98fkwWQbmJLNgs5Q/ymPhvNvsF7Pj7KW/37mFRWZaAZ6+dgilgPQPoWXkhljQfXSCwqeYGjlsYrZF23pIur03/pDh4KDM0eDDjM5VySq0x0+f8KRPVXCiRyeqhFuOcMMX8SKfs9AEdbZyxC5+EkaIY74QG6z3AEe36uOQHVJTaqbI4MZuxfuUsMtw5g7KYqQN+QQz0NHQZCXpXn0cIwcaauEolzg3YWCWh3AACuO4rImf7CBFk+5232h/4XC0EaT/QjsPysEuIyA0YO3eSRU/foWVAr89gGjFGwsqME2iVzsbfjHCqyPr7XB5SS0Zs9sG9Xg5ip+5KgDs9Vw/2wD+L3Bq8dRnlz6UfHHpLgwXe+H6/DMw6zOPGIhKHOTcT88OiYEoPF7KZWkZkcSBFcKEkjwhlJ30j2b+vbB6EY6j/fv9+tTflYSRZfpeBkX84RYvHkdwST35823elWQ7I5ZrkEC0bcdIOfejT3K3K+A/rdYlJutFqV2v16ApsBIDYtHKkvkqGGtWozxRhmV7MFgZ8I9V/GCzNhYCvyds7nZz9vz8t1cN/1rh3ENRTgqGvK7TPTle8f1xob/w7ni151wH9m9aPc4fMMP4p9OcUmSoG3tbUO66sH8KboilOETvUnTNZvFMrt882uLNa1+Bp8xW+Nb2w3hh5uh7SjdfSIVeKH8w5lydG1V9WHCvYI04Jcri4YlMuk+HNHj6BRRdNtKn9oySqvSvG7C0kqdxng0ovk/7Ou3zu5AAJCagvhWRyYNxsnzClfyYjbTdXvzgRJ96PwGUAAETxQj5C4DkEAzs0dNsqfEBMbMY6ggtZJMwGN1ga920tzwLE2W5Edh3NrmR0f6cmUm3xWKNbbjWg4CtElI91R/GqkLLp1gvYdh96rAZpAqSsmyDrDNLGs/m+/DgnGPWowOlRHbsudqndLS+34RBOVEj3ky5dt8LidYGX2Mxir148gs+C7e8ksdT3R80plZLX9fjyMxnl5ZY97MTA3+jn0kK3ahU6YyVNHecFhzmRD3hoRcvchQRzxZExThVgdHxtDAoi6zr57q7c69511ZBJxhCMTEJHUNj7kT41I2OuBEmkv1Ygq5/QJUxIGujslrbegUbKS8/PmA5FoZZuTCg/gYNWFgyTwZwlS+dWl5PlH6h+RphVNpEa8W8NvT40Ac2dZkBX/7apOjuxEoSQbx7OXA136TUX/6pWF5yVP9AXHUdXG2dQysjf5P6+nOxiSVDx1QduPxUaN7egAOyWWkaFKyBDbMAmHmI8C/YaO25N/P0fP2AK8qKqU3c7h9dfU/PFCLQIWZHvK4Z2Um68guqprEoxknBgp+Wep10BrC7XzfwvRAAEVXFIBy6G3JBtURAT96fC+OjFNXne41ZA0Ig2wLo1wMxq/nAQDGgFq7mH4JcZmUWgE2IKhuaSw878vshWXEjTAOfXZypvjcpdqidwaQzL+u/nbWWCSOsBJHjFC4wC+3w8iz6th/QsmCXveldEuV1SWyGN4Lldl/S08RezMlfmeO3x4nQJaaQA1hm6LwV7n7l+XNdxzOtvS2eKDq/+7pcX2jS+FtkHYpgJP3+NwgnlG3C9yKwuTznBLMU4HxUvknvNwUk2vNxKfSeEQ8No2PhZitlW82NVuGtzReZlWKMlnE9/2/wxrpu1kMa/KPzoARtSQZ5NdbxyrFGECnNeFuP5+oez9eh/pR+qgQ7SEd88VduAFobYye/qBMby/OaSYHNLapjDPJZmqCvwgofQvSxVFwEd2n+RDM/eR0KhupGROInssnia5FDB4ACuxJMIBNjldiQhduoz7Z+mAI8ctihsNSnUJgvWaYCp9yhslhnVd9+5ixQULF/oF5eNakHmPjYAFfHKJZ9jCWbrdKR+Xfk/fvGWG75WXYHQVsBn8ABK4x8qm3HLobWbrdqQyl1WrLACkFBjgMYuSCBAHktHf3oiirT+5F/xkqIUnRAwKhLsbzrZWhq4K7HhYc3N3LfBRPCd2saNam+UC7SvhCjk8E1cKr0eJnpi2eavROQJB43SQxCzbHFkhhLZwcJmxpTkGJJ7Q3dhUG7ypR/rMjucoxHOCNIk0qHYXIFjgDYRF+rphagrFE14TKCMiajyhhYGo4evwIRAzkjitfRP2hASbx0bYBhVLvz6JHa/ojfOrtf68lHRcc855RChNUdmCmHut3KozNXLcopAF01ZQWThsUsuSuQN/gmkiS1T4W7Yvi/3SAHVdyBR0BXPHmkUXt8+g0GwgRiO1fWrPUTn7RwgCAQaAQ0hCPrSdkWaKusxsdwVLSrroFZAAh1tpfnlH8PTmfHk6pg5w5gXjgUzewFDaQB72XGoqqBv0mQfaK37Gi7bNTY1mDkOohZ3xVh4S4Qh5UavxxMW3u5Q3gy1UzEWD6p37ZRiWBWWHg7Ka0T8E6qQhAyTmjPxlq7MFZywFlOKRJODjETIHyfAVgP2pdyeDLs+99TzXNABqRo3MuA47B6C7Jaob7L4cCMTLTtoJ5+VKHMN4NnZrWbglCvMFVG7k3Fjj3iieDjLxZaTrMespUYj0dw0EWAcphk1ocT6yOeLmnGPqCLD64bcn3yAoBdDv2hztymi9xOlZI5DVCL6UC9s8n5J3M5gCfdwetm6PjaXRd0eZDFRHXJt1GfICu17hKK+rhOeU/TQbqWZXWagjWUc4I8iZFoF+wmA6whN7aOJ7jVy6SUUXpvVOpoWOjxYIdez00HKVwIQe3Jwew8wcA2eOnhZd4FV5Hu2fPni4kgAKY32UvrCV4HyD+OcPXEAorhXoth4knzXzxi3R+f/1W0+rIDbPblzzynf4EuywQ+y78iG/xdr2d+Yb/EQPDKyBJQLMbp7/Rde5h8/mj0jcxgYi4sPPWWJq5YguQlHjbq1yfGQ7RwNpcfBHTw15HyXK8U5E7k4vuDyGz79K0SMpfAyrs2qvfIhmgHDuttEUH8fgpdNrCOkBlfoyY8uj4T8RQj6is4UICvf5nw10HjIbbxOPsCqV+sTeGktuXFcJj0MT5PuJ36AgCewQ939DORHts8c/2PyHKbHL2VVRRVWJQWWx20xEAeIX+svfxOiPOyMvsIKR277wph/kp9Jwjq9gd0+CFokPX1iHDjCp6IyVvm3KADOUf8MWJcCjczkKOt1otUx8ze7BPAOlr6zU98NQPseEsDoO4Ef0L8fb11ZEYdbDLiGFbXNnQV4ygn0G+fONXqNBfK4zV321mwrFN96oonN8ZdPZZcCrM+rL4uDKOgAC7aBGm0/ViK29EiugJwe+Mcuhtc3aJHcINqAiN9Q+nNRBqi62wSnMwcuMv1i2HX1erQJoabLpHTCjXN9uCXEABXg/Axx2MfQgliy4HPFXWlvTGbY68/irXzUettlPjqGz3Fm9y7CvJE58jDnTReo3+0hd72XwPZTCFgZQ6JOCiQqMsKf/QKAPzB1/aU/AdD0wAzBxPMxaO1kIje9SqXDQg0XT/7feGQ7WUbbRMi0E208hGOObbZRxt9fSEgrXQAQUTS448nNGDmVW9p72lhvx6rD55112ddWLS9KAISsSmXIgkxVbyd0op6Ze/Z/v2r4eYCkfrW+V3i9NKpz9JmVIpWVXUsGSlTe0vEI5UEQDU7HJpnFGcxqzmR4FP8qur2sbGmwM83dRzk8QAWCrQnRDHU3X471il04QOqLJug/D3TizqAXI72ZiICjjUaKAErslTI03QaMJNCg4JY+lLnd7t5D1YkMAgxJBHg9RYVhDCfdDdKGZt9sLbVi0+H2vPsquqboQatykkGqnG7RS6Mhyurvae1FFrFRqpSoLfzo42y7/ovgy+v68Hen6o9MxveDgGdfAAdn5crvNSIqtDczfO+vJRC7cWJxLMOHvloxG1AG/QRFIK5mqrHc8vxl1Fc2jcCGZ8RDyx72t8Q0RB7SLyktmy+0qzKwQmROqmvG4Doz+NI7a/aEoizEVcmlOeQaAuvy+5gSXxrZZ+TgPk9Kk7+gEKm4Am5PVoiM0cTT/5YYLliZEtk9WDmklBdDKxTnnxSjSGUM+BEdc7sahXx9E+dgdSX+vfLueXdVAdhJs13aM3XZ3NkLYDeGfaJRHt3Dfy6V8+/TpTjdvjEcuT3EvwGs5TzuEeusXUktSNS5tR9/MfLyRZUpX5OJtDCWaJWYTvHKRv+EMvZJGehz5twdixhvfJOAQtKmYG/Dfjm0nDM+ManPY94XqJejlVmOs4TGe2JVDuPw3vJ9LZdO+wCAW2sMwBhD8OTLoGhD4NHxf2N/m6Rs+8kvhka2YCpUMeO6JxGz59pc5h1dbtd9/KAXTptewa6Gd0mHbwgiYdzEWDlLEsjynrT0SUiuSC1+PUJ6lPjJjHLy4ZYvkVbh3+RaZr5/LQncXa0jeesI7ICfD7/AieKqmvSe60MspAdajk5heK++xXvC8z/9+LGSRJz7RearYFUpe0o67OKUr0RdJHyj2LujjeCnazjs/3Q3gR1YsS4QdxKQT+cxiQqGwEybUAwflYkb+U4/OEeI+tAb3yfX5E7ZduUTo4btKKt0YovFvg64EhI+FGiUzFiEhd/HV75I95KIYFQmAm5vM/uS/C5qhdlrzAxx38y6lhr6sng8i+eTac752LT0kCb5zRivQpN6zRF+L6/EyyfUQGiKXscKYRdmc//MUp2wDrOX8HQvAu0Ii5TWOULv31HA/W6W39wHeAseI8crNsX/s47vJxzDemvhwpdDpXM0fj8/B/hDJfJ1FW9fj/smL1IHvE+fMRBWC38qsn+VxXVAbmostdA4ZB90pQWECVCCBAH3sWrd/tLSUn1tzEJD0lT0b3xB1n7DIZGIiizVY81Q45otTHuBdunyTNkUVxQkRKMKky8KRH4vxU/EYu5TQsxwvRfC2mqDo+YK87dQx/jCcWKSO2WXQDHdy0DWSjHmE05zY0BxfJy6wPjZKIYcp/Bndvvt6KrxjTfl63SIo2HDDmqYSOKpReCIDgs3pZ9vjC+vBHYZ3OL5jP8FULYvC23vQDj3EE7eEAtBbMoZqpCNbfrvlNXOJLb5EjWDuIcJO+aqL0wjxez7PIlvcEPiWnBB0QM9JzHba4VWrc1jjIUa3PRpczYv9a0KCG5gvWGiivVOeIIlrsTvTNecuPkWNhumJvYHtmzsbhLKqZrzi86uQc+JxCp9/qf22V1RyGDQ6oKJ1Lsr8BBdTK237PKR/XcjLapmbLdZRfe1pdmJHDBHkRycZ/f6icRS9f8gg3H2GVwuEfrgSBbxTHVbMBM2IRLSBh/XWEwPYpZcSaUe8mz/MHYLCLvdZ7+ijmArrnjkg0ukq+b9xgNll8lgFXvnIhQbtkhcAgzP5KqbDa406rdMAHTmFqY/5Fq+7t0scD/rEOyx6pXKjfeRYHPMAAQcn5Q7ya28Iz53m59S/HG68+qKeDK81dMaMWeyregUeUcbwrAR36n4GAZVFEAAxUVj5FZtwB6jd58LxCHedtomP5GH+mIac1KGD1z9bDgXjv9j6pGI17ooL7wqIsstHL8Z4pltkcbVh34YRnrn30vGAxLvXWqerKbLBjU4WEYpCw1sNk//X6xgS+wzBLDycTS/JyW3rEeR3bL+6+NtmUNe8NBrV0KWDSDSyUvcOwFAdrgKCkAao5fNbjpJTID+rn+uYZ4xL7ssGSugWesH+eU2b/OlkMc2MnZuucyxgOue7OUN4DygP+A73+CfB1dLYGewZEY9ZlICei4Ae2uhEl+cvWaZQePdgV9rN6UAMlsiaQd6m6oAoF3VamUxJ7fJvQLiwSP48chnHp26i9b0nilN6ZF9Nf1XsZpXwXce8iQJFdKF80VrlFwOTYoLT1tUfSm7xNe/UIAmLpvm8uFOZpTNlFL2VBMrOdp5eSxMX/JUAEKrvHdybNPNyIKSrokun+SgPI3y5DZkSZdUV7KGYUJn2AhTKeE0Opzi3rU8vasW4G8wXJx5hBGX+1BJ+PmbpmBazEnyQ02uhbErJl84nmMQwwlqdC1Z8sBFCp738pQE7r4UxcYBz/qlZzBPJ5m7/NmCqArHcTuPaz+5y7ITLNyhvEbQN9oE8UcQCYA4ETYr2omk1wAQk0kGrXzI9JlHfl2IUOujoEedvVcxi+l4WmnK38rQnX2CnUwrMY1KxMJS70U5vbjxJVpQ3ieV+6osYY41dfa4jRc2v2AY6k5qq18bnAwx9efhfVib4mJ4F5TEwBqSD3Lv/OpLZrklL6bz2HzUBrrAEV8seklxvcJaH8gg1shmaZZbjByDgKUAJu34C2XsFaMWexE1nAPbWXJUAQgFlViAKwHntzzaldanUd2buqYBMlg9f5fnhi0Ds+SLnb+k3A2X7OvUGqsAbrPD4FvxMsPrr8GO0mJmsvBDwbMtV5b0Uvk9PCGv9VP6u8B/MkT+PsBk6z7oX3ICqsLwNLhVKdnMHLMsRnYAUtIrO7gXrvsDFzjYV3rSXoomiB41hI0xIp9euYIZTTL/ItUnnyQIM2q82Pt6+ydq+vHr48G3JQp2vJUNcTYo9zoxpAMUEXa9DZ/JpC+26tdsqLNVgYkNUQYP5LbhidGl1VxevFz00nJHb7BD5y5Hn83KYUwADkZrg30kiaW76MrJmH3BSO9ZoL1RQK83m+NZjRK/ysw/dnIH9TtgCdUKZ489j+cflB4GLTEWR07wUpUgSZZD8CyU0qDWI/V0vLphhlFdPd4uGKWsCWL2yB07K2OryPXRf49e51LLTRdII7iC+coLAPJ3OLrsaUiJwGtgtonkizPlnGr0uj5geRtZ50bXd4sLVlJq0PtY+10XVxo4MtXeGAAhhjX9rStJWcO+tYyU7CtlEcH7Yb7mq4nGoyPd92O8Wk0VscQG29NGEBSUXTVz//YrIqtxFGalZxcIuh61dV+aecB9Cv03xx34z306uNRrnbKRgl9ncq+ifC/lWpms2bLKGEEvzvSzK6lrtbT+b+e1RAcl7aPtpa3J1UnZUSkKBUqxB1QI+dmFWYQ6MlNVK/UY0T8Q0YBpqUSlUrTPWbS+8xQvxxgAQygUbbn+IetMWOTQcx+xPNemUU/n18c25KfBhtR4ojrOzn1/LBOTCEwipgzN54ZXexx1Y6yvtYyssOc+sXk6doGJMDhvTuhOMaTw4KcFfRq4DYVQJATMj9JeYnKsnldylrtJ2apJmHsDQ+flAFzR0ojnk8wMrnsyTYuT3+3uRYIMKfnV9nBW8hwK8xIlPOZ5jBZSqU9G7+GawLNLXr4+834XbZURRbaudfNoHYUP/tEfU2lNu5z7tsijVoNIxfHe0HCseXrDvFnNq0MaoyTxZFkl0bIzTgn6R0XYTJB651hI0BNqi2zpz8Bl8e7w+mMlwzuYC76TeSqOo4oP6SuQJK1q3EB/ZxFWyfJnYlrR75bCV4lAOD9qPVFdI3h22HrGOsiHN8pRpfvFCN40P5eEAhY8blls6GzYMCRzLwJxMA7fNiqRLOE3i2SmhMauSvoE8ASgiW/rAAJwJcS7HYO5PNSV8EPdO+RHC1Vcnh9aTpAYL5arfNCMOeQhwQ45a+BuWw9ERnk89iMfOIiRwrooDGW+paMfI8dvzqhWccmy5Zdn6ENj/OnzBGSV/bq5+FiPl8DN0kpok06STvJBpdnDvTWECa5t0+CqXLsnNQy2k3ZW4sseGA2a5xXYfSdOtr9VCm9qA7VrM8g8D4hDm28AXX2DDJPqnvjiS0cyXJQvDxMQsZFgto5iB45wEOrmZ4vgwLkSBs8HEMO6oiUXFNlagvyDHUAe5OoyIRQuB2PktDHxL3+mScblYF+EMv/4W/fZBSj8k0++jzyezHwDK4/uFvTZsFepyxcVOd4pCNcCO9zCU6u1HFz3zEm88/cfSTabX/wK72/YvJxdqUPQx0AleOtgqX+z22U0e7XRhWh80JjTydXq0fGbRXB9QBPWD1EqRg7FImeJ4GmN3bEbhdDaF/BUYu3twZeqkQGNW08uuB/IoN/B+didk0h+u0etmBJuL9lJ+NWsmk+/DJ9V/i43dTxHeSy+tfd7WjeNBHFwfLx2plXbPy+Dy6aDhmrbDCrNHIk1tuHXhWEu4QXZXensJSOLhXqjDME/pLNGWGc0UTpfiWZbp1OfHrG84hMJMZ421ffn48MvSdGglOmH7m71mN9fpj6LnMq7r8eM6IQ5VUSSZeRTD95df3JahDIYLcIS2NgMbvnSvr9fnvEb/TYZU+vFy+FM10HSIVak8n1w8yMeedv7FXzWdc2aBbD/DzG4CzExWPyuFjhJiL5yvpQcaF5awmsaM4RBnIXewt7q1au59MgeBhLhqc5rfIuyiyklk2BTBXwRmsIMAB2vYCmAAx+zFHhfWO/UBjI/lhbYARKPEaoz/bJ/9Gi3LSn1BdpoRZ6iIhvf4X5M10VNxNtlVm2/CyOgGE3RSylXWlVPBbth2Eps7nypQjji/Rzc8K1ps96v3hGLZBYk6ilHNrgOC7OGiEpfjaFvJ7O7TwWsZz+LK+v+neUZHFkI0qcYIxXU043CoND8mIkA7TciLiYzVSlEdZB/XMeB5aYHTty5GBbWr8gzh67uExqJRm1idp63/+fTUDbSLVz2nRT13l3ITebxwdDiyq8cudptgyp0EnjCWytLQ2U5necufxvfWkvt6wbQ6ExEUnDxmrJS7G4Mke/8VRmUdxFTSNgKhY9bRup/7Uw6fYHzJq2cAo5GGMCHXPsrF8jpxcKwZqqw4+bGUTGRFO/PynwHUGb3ReJKK/Harx12U1UfAlu0cOtibUK7MravkGIHJZjrZ9+A+4kO+gJp5AI70kz4B4gsmyj2mL5e1AramHyM7xt+yhHirG9g35A6xwefPNp8vCZ5KgyCZpAmxOsnwhUuygQI7F6Q0RW+uw16YqdmTszPMg2ogbCx0tTykfMwc0J4HN6rQfSfZilpJfw7SLGm1d8YScyeDVRzJClEn8BWzYZn09qFeOC0QvLMH7l6UPH6c2k1pHQgMiB44XaoyuXSSl1z1p/N3N4pOYqAfibPTQZGILKlpjXeXMVvl09lLDa5R95mC3nUc5NbbXqY8AwFPPwFOjkvBouYXXgLoiBSo0Hm/3haTFBUvfu0BY+Gkkk0FtPjL/hnwlEumTTZmYEd6ADhGG3lpU3nYZ8iekFMlkduVZmdn9u9x0CvUkTj6zlno9ZVhJav+be8fGweziWekAXJo/HL6Xt6wfvuULNhADPZZ0uRni8jGWdx/3m0IUYQqHMoR8Apd71bflAV6mZT0xcbgJlpsOK8rm3fKSDJprfJr9T5Yl5U2Ik2xB90gCt2rkFe45LtbbSqLhuLAeJfGqpt2shqbcBr4/513VI/6Vp5nnzTDnyn/0mxue9yDnIkK0EppZYP6dR3tQjswWhfnHcj4yck59bZM7srR5OPS4cUTNjcIrLubPSoebpE2ZRclOhOsVyob+UvfgvB7O9moKBJCKXvP4MLoEmHA4WQPbzTK7eQiGPsj+4LWqILS6Vb4VBAGm9tLtDW0no7HghA+kIq9nRTUhbhwe6wOuo5GPdueDQpINhunJgBixUA6MCQEzI+IUZVW+zdyIQ7DftnprO7wMO9TYZ0yijgVTqAMyuAZEb87rpicf0FmGEZ0YG1Ux7WJCCVCDxKaYS4QVMabLxUKTV7f3tf26CZ4Kgyk4CkkhxGddmuetHXMpMUrCpOJxDRwSU6kCZv0HVgUNquAdUlhfEXNCU7yKx0PDaT8ESODncMr6ZR0wC719R0Ht/zSZFQ69/eHFS0VFMZj+hgEGQ6lfGRCnsfc9pkAHqI+zVgADEpajrYl0oSHG6L61nq7RnPFjhLI9+UchAntMFqB+bOi+YpCsI0Y0VYoNHQkOpSCbDf9yCxHXkPQRTpivt4IKnSiXhe5ESuTcFWYHeIYKKT5h0WIqdKbYNJXXJ5jXduvfy9x9WtLeX/DeEMuAWzQhlp+LiDB/Qj/VsP1IhAKqt8KecoYuZG3D+QpWZYkOPl4lqfvDViVNwLSZK1Sb13sJWvaK+ThxzjYqWRTEijyT4yrKjSabd33SlwQgbcImm+WCrVKDLAuqkqydDf7j8NYYphIFYQ/eSKJIPxU/vdErusXrN5MQ5dE7G1pK6TeQ1iwD+u5FIwYfdOVkC1dTN939q/eXPuQOrAzXOiVBKc5kBDaq1EwPy1tvppBVR6iOaDNG73EXOHb6AGQUkZBCfVdsrtG7DElYWnN8CM/Oc05QQVBH5ZBYVZonRyxTdwSoiqb6z2NaYWDZQWiRQvuPRfoDc+ENC37DgleZ5SV3Wqa6cVugTES/kVyo97AG+3WzNiXgHCWQGC6PcANzRC4wYa21J+UbG//JKfBj3WXNEsE7HbRlq7M7RwFz6qXTbQ1fw2APJRph+tA9wxXG+3H1HYJKmSlP1C4IeByNSikv3LXrHXiFLZVILs3Z8YPwPHvFMc+aswYkCRcVUT/WqtCN74IB1WnZhCr6r2YAlB+mitOAcScwx8lBP2Ixdro4gTyc8wKk79r3auSzXqQcv3yq3SVq4Y1wuPKIh9CLIl8AyxjCy5v+5ZONUnxzeCfYclRCd1Wyf4djteMYMWbBtpPjlId1eiOgWsIl6mMe6MOLSOwvvG3W42nGlSk5yrvuNapXgkScPpZWRfELANdptaOcxJxxO+hKIlOL749Vb6P5TuvtSQnybpdL34lGejHCYr09ImajlluxHxJ8a5p3B7rA66jjnXmAXav5Kd0O6LeMq/LasFlwJ3Hc0R0w5W3z1in5m0twM3ylC9LoktSukT9UwgDTK4SALIRJEwAMRQNvBcVV4beHbwA2axA3oiAw0Wi6UkgzpzUZGQdTpccPUAaMm4bQrl4XKErg5RbOQS9dIsKqGWtUpI1gGwdZfjX+Co1HrzQFZF2m4rt8uJCEF8rHGSzIvL2DMK+XOpK6bdiBGhxpFd9YxFOqH2cH7/U/FJL9iRZAQQA3my4K980mk2mKjkdi7ezM0eUYiRDFEB9R+Oyv8ugyFrTYbNNSzNTq449bo34wCghYe9bHl4GiEeyhVKh8WKT48lpBI5EEDNr1krsp1GVFWmwIqSUemeuHgUyAAfqpAYawWO5ogK01/l27zov9TtUKFRGpXjB8aGYHps5zrQZuLDjgqz0ZddxCxczRBj887eMNrEW5IinQhzgVO/q1ta2ohvEVi1jfImgGohgVIfazr42o5bOYC62s9TDE9d8VJbmZHkN3KgsRLHySQt8F1C7rii2BFStcGgA36OzpnkIZHvRi9gV5Sy2awS/oXnysHsBFjRFOQavFEKTr+GVi7uooJEF8J1TMIr/tN9G1qu87fN0904kmtgaKZQK694dyR7J+2J3TiRYwFjIdXmxtjS9Htp6qXi+jrUKL1ZcoZId/WkgEXnDcZLCKg2Zn/P95PGr1DMq0jj0mjo0UKiHWGorHBrwyTFAr32bs+OL+Qt2KXbGUzhsrlDvLYCu6B6wADoUDcXkGeZ2K5v0kK1Y+rXPEMppMnZ5xpAMBWHLsz0G8oLNi8f4UJL9xm7HBuPs50TnYRKQy+lyqqzm6wDSag/XUysoEEmCVWFFvtX24fMvRkbHT9UxwrXIgzOJyP+nMvxYCUNo9vhS5z423Z6seRk7xNl7zYtXBAKozss7lNxRpCq2vexrCS+RUonDWWhf2DPaKHhTtpn+EktntbyOXQ21Sw/GdUoayB/j/07FUxcW6ZQOJGUG931vhtyF6AyTyo5sYIJR5smZo0DrpDdo02Iwqoibj/gHb41dSQ48iAJUnDvYBbSV5brWV2jhmhhLCWOKL1sK6rHLx+CqfDOd+VkG7SNy5k/bHKWTnT0doEGckLK/KF3ltAGP/5xZIl2eXixEskCYazm/dCwBMRvGLNogz+u6F43N6mrUEfnrvaw6Jo48SAfkbF3MFfDo6aw9qQsQVZuS1WB4xQs3FE0bvFy1L5lCPK/gk4rDEYsmPAWcNGYQjGqAw6UqyBDSytrrqHxmnfN+X4u2H1fuo6napqIE9LmiwcfLAfAecVIiVokLm7oqiXVcDcobrsQj5uQQkAz60oMJqzXCSnZi79K6r03vtTRMWT2FJcXahZWY+oWbIrEmykk5hsKOH5RMdbjsnhUoitg+/XUMMtcaVuAqad19csEEM9/NvK5lG+1+sRdQe8N5wxJCn+XHG7TPoxVmmg557VDOCaxfb+Ld0D4tjtaCldfUHiZ+rG4NGcNKRTyKJocjUqBQkn8HGYgt26tihNAqSlEo0S4OhS2nq0FBdeZV2TbO7FAWjIYO04jG8IjafSwKIOrAjZIwO91fFc/eMv/PdCgIQFMNbHc15Z94d/+a+akr4JDwMhD747BRmQ04YljrH621HaZIYgbaJmUYfBQ4n7xh74k5tkV3sND+2FbPYx+fn6EI9k4Gi8TjcsiMA4VEGSJWFeXlmQbcjLU4Eoq46mwd38HDuVAFh3x5yp241V/Oe43nnDAZ05BLwRghNA5tCDxwC1B9caqdl3FNGoSo77Zy+MsQ0xDV+7zu4BW+PPg4n5eYGORv5/6uE/vhN/V+H/rmZRKw+9SxZHNsiZisgmwOl1cl4QqREYG7ZiyNR2IS4qR4AEm3o3JwKl0+1alGuc5kYz7UcaNWVs2L1HwrHBo9w9Tmo86gCmP0C6cN5OPfrrWhYk04WAs006gMBEAnKHv66QnaTJBPmWJh/6HQgPnpQMOza368vgGgqFces8Z7T3Z9uWizdcU3ugXBGFK9bZg3G0dA3q92oOnDM8XblGDOPBvxnaANVplSLqaf3KJyNm3kNInhduhWNjE/gNw17xUtlazk196NtoZOI2/uAoVrW74wg7RnBozm52uSnnLLxnqXt738s91aH0+rprj1M8C/3tEb+0aljpbrRW04KwB8z1wAAdkgifXH7+uxbv2TIrTMQAHXGbAhhztHOIlQ1O0+FDjsgNDURU02sMSyQSfTvywUDkwUV49eLsS5ImFDe69t6p6sH/3Sg1sj5HhVohR8DRH5PCob8KSI31yvStY5r6GtoIH/UFMJ3y34+6I5e2kTS2/TO6hDoGCSrEWm7iBEOn4j6J465qPc2w50vadTGZIWLqQCG1G1q7WlxxGqjAoWh080N/PSL8rVvkKgXzHUfVtz5n9X3vrmcOkRcporyYgU39uAFAVhsHfMK/6yFWUwEUA6FV7gtXIzimkD+6z1xBenGC/bo5NUIrO1oemrv3eVYAU6tm8ybZuQHtfojB2JNoPjLdb18YvCBTsjuU+Jy4R7m7d4QAOcLzVWtdU1d3kNcM05JsEZdzt+cK8w+PFOHjcqO/GbE4uixF1Qgdbp3dWIbXxMaJ2iRrvGEXPAstEJahXvUeqPZRsf8uP8QP20A5NEziLpdhcbAvkArv5cHqONcrMUFO8KsIOeHTe9FJsjUP91kJ2Nz8dmTNKnvozKOggNYJkUk6y0LQdFculn6DqWyjMylFXtZbG3A/CD+/MS187rEL/q4AzSrSW6s3XRzxHfK5hunUYdzo3HinM767r6NLvHcxzrkad/Xfx0LoEF41X/X3NeW0fZ7Kaahi6S08YeM73mvwpHEBwBeqHh7vM7TOSD23gjrJ8DcnL/ISycAaUn8ckcsXU+kUY4/qnUVK1ILpAK06I8uvMK/O9OxKbuwkiV5zRdnoWaEJuLxPZd/TKG8YjXkfruNP7payWKK0hmwo2DCO6rDTsEaummRv+MZVBeWeOOEOAmK/BYnw2mtuy/cVtyVOgqnfYAAzL5KIDeT/tP8C8iCvjc6TTyR76klzt81m/LmLjb7KXWMaDVQyp/vAD35+rf1Nd83G3+CeUf0QoCw9RX0QNMUX82WkWiCExLm2i+z5ALceB22eBZ+c4kn3ZfAEpG2NbXEdA4PCAe6Jj2Nh+p2y8ftiepWuUPdUULMG+xB198Ju2xwEwpErBColS/qD9JuAqjIr2K4vOkQmoggFuX5XiSQaeFcDJgnzQfFK3m5DhVYZWoKBzGUggYjnBKaBC3mHCYC8KyZoUI8CCxYd81RjqJHBSJy/rrvMjtwPF2FfIHHyeJNdDkl2GVGTiM4qu/12sj9iym0zzmIXmrQdqqS/D9Wf0FP0uYdx18HPMRuJkTinsm++YH94cn2Rzpyf8k5PsjlywfSCA8o1QHlGqA8o43KmCik4FBHpvKA30wiPmsB/IHC+QvzUl/qCSzr8pNNh37KZYpJI7bT49hYEaR0gbxYaO+lbG4r1oIKUsSAZDukIejsCNnUsAU5JqrGvcDMcB4rYU+mCdUAnHjeWIXTLNP/ljluzNo8byxC6ZZp/8sct2ZsgwitmOc029C5LIGL+E/qhG30aYw2Qm6hBlmrssZPBy+22mk+fK0qF3U0aEhXVjlHiLueXp1O2S9OwiDincR1Zyuxm4ZuPxMhzzXbP/+xXxERQJTAumjcA2uAbuYErrm+pPDNocLm0zvjQz55dRXliTGekUV3GsEgXWrDX0VatwIsGIgU8+2tnKp1eqrmqFZEa6z6hduGozHDiiApC5P/AyQnQJClPxAAQNyX0caAU0scdO1bgQKTUnC0AAAAAAAC9wGm9unOYVCR9ozkfhAAP7cvI8LC79TQX1zDcL5VRXYrcvLexNpKlzgDNTgMi/nAPsfUouRNW21d2gx8DcBNc4xMiDwfOiViKUyKnf3bJyLUiZibXDseMghz6FE6jvzs/l7h4WAAArxzmi4Bkuk7Es2c2NMS8LBhdKVNzndZk5mecMzoh6mB+7iKWa2zO71RQmyO96kOHyEEPDR//pd2S6BtArE9+tRgSOddO0Jjpe/OAkjCHbho8YTwSSKqtWOztAQrJVMB5TFku0EuBZwiJ99O5D03rzERV9v9ee4mVgvIf1dBqzZoTWDUnaLLPLBMd23Xgcq04azv/O/fkdGsXaA74gcqviq8aKXEpuOYycmjPqWeEsOL0GeFyuS083rvkBc8k+uorEZQZUpC6NUX25JIADnbFvVnaLcFt9o7CAWaNuAlq6ti5U9uyzoMi7tjiymf7hs4lB3Du9+lewNucGjGIkpnWjb7bODdS92VoMoHW7SDhjBwxg4YwcMYOGMF4COb76VwTKolN8vsN+FOULnisZZBuumn9dXf6YGd/vw0vrZ0od+BKdDEATE5F8Nki7WPzaahmJmJjJZB6uN5F+AX8YvrdaGBRgK47O4J49AGA+NO7vTbP+sOBReEZ3/nPHR4hvQc8Jsax21wbAbpms3fXf3vs9Ph2sI8U+lL9IDP1rh2kC2Rmj3QxYWejsJtoqHvfQsVMv170/QgmeQ9fQ0fj+er0gcBFunmzP+RIhAAAEVYSUa6AAAARXhpZgAASUkqAAgAAAAGABIBAwABAAAAAQAAABoBBQABAAAAVgAAABsBBQABAAAAXgAAACgBAwABAAAAAgAAABMCAwABAAAAAQAAAGmHBAABAAAAZgAAAAAAAABIAAAAAQAAAEgAAAABAAAABgAAkAcABAAAADAyMTABkQcABAAAAAECAwAAoAcABAAAADAxMDABoAMAAQAAAP//AAACoAQAAQAAAFwDAAADoAQAAQAAAH4CAAAAAAAA;" vertex="1" parent="1">
          <mxGeometry x="10" y="253.75" width="100" height="77.5" as="geometry" />
        </mxCell>
        <mxCell id="ZQ0ltY4m0GD8ktAkjm9W-39" style="edgeStyle=orthogonalEdgeStyle;rounded=0;orthogonalLoop=1;jettySize=auto;html=1;entryX=0;entryY=0.5;entryDx=0;entryDy=0;" edge="1" parent="1" source="ZQ0ltY4m0GD8ktAkjm9W-37" target="ZQ0ltY4m0GD8ktAkjm9W-32">
          <mxGeometry relative="1" as="geometry" />
        </mxCell>
        <mxCell id="ZQ0ltY4m0GD8ktAkjm9W-55" value="based framework" style="edgeLabel;html=1;align=center;verticalAlign=middle;resizable=0;points=[];fontSize=9;" vertex="1" connectable="0" parent="ZQ0ltY4m0GD8ktAkjm9W-39">
          <mxGeometry x="-0.2684" y="1" relative="1" as="geometry">
            <mxPoint x="7" y="1" as="offset" />
          </mxGeometry>
        </mxCell>
        <mxCell id="ZQ0ltY4m0GD8ktAkjm9W-37" value="Vue" style="label;whiteSpace=wrap;html=1;align=center;verticalAlign=bottom;spacingLeft=0;spacingBottom=4;imageAlign=center;imageVerticalAlign=top;image=data:image/webp,UklGRqwVAABXRUJQVlA4WAoAAAAYAAAAjwEAjwEAQUxQSFIKAAAB8IX8//zE/f/d8zKQgEwoASvkQMiAIN3C0MWyOd0ryIAgjNC9Hlg2mW7SvbVsMt0EBwQZutehiwxdLHa3rDkRHBByIEMOgnQJyAt1iEMS83wvLsnr9XzeH4/uETEB+Nf///r/Hxh/Z3g9YLMDhtfvMjVefJv5vNQymOTFHLbXYcPrJNDi81LZY6s9FV78FgD38mI+t9Xnhtd7ASCa46W2z077arzkov+Hbl7MSTudNLx2Y+sZXsyAjQYMrzPYtr3MyynPPt4pXsrt2+EFXsxR+xw1vL6AHSaKvGymbJPa5KWY2AkGeDFZ22QNrwPYsTfPi9lvl/2G13lvZ7iEmF/s8gsxl2C3U7yYh2zykOF1CrtOlXg5HbdH/DQvpdTu8Dgv5rg9jhteH0cd43lezF5b7DW85uP1QB8xOVvkiOlDfed4MQftcNDwOoc6Z6q8+Hbwealm6oUJXsxhGxw2vE6g7kmfl0oyfMkKL36yfhjixXwVvq8Mr0NoYDTHi7kgbBcYXhejjcC1xBTCViDmGjT2Q17MHeG6w/D6IRqcLvNSioYpWuKlnG4URnkxr4fpdcPrKBqe+JmXzVR4Upu8/NzcONzCi8mGJ2t4vQUBjGR5MdeF5TrDazYSBHQSUwxLkZhOBPNNXszj4Xjc8PomAppa5+V0PAzx07ysp4KCh3kxx8Nw3PD6MAIby/NizgreWYbXfCw46CUmF7wcMb0I8pe8mINBO2h4/QKBPrvKi+8Fy/N5qZ4dLIzzYo4E64jhdRwBT67wspkMUnKTl5Vk0HAnL+bbIH1reL0TgY8u8mIuDs7FhtfFpuDhCmIKwSkQcwXCOM2LORSUQ4bXaYQyvcFLKRqMaImXjXQ48Cwv5lgwjhlen0FIm5d52dwbhL2bvCw3hwU38GJOBOGE4fUGhDaS5cUcaNwBw2s2Eh6cX+Ol2LgiL7XzEeZXeTFPN+ppw+urCHXrGi+VPY3ZU+FlrTVcGObFfNqYTw2vwwh5bIkXc04jzjG8LsXChh5iTjbiJDE9CP8sL+bm+t1seJ2FBTsqvJzy6uWd4qXSYQOM8WKO1OuI4XUMVjyjyMvmmfU5c5OXYsIOGOTFZOuTNbwOwpLeAi9mfz32G14XPFugi5hf6lEgpgv2fJcXc2h3hwyv78KibSVeTsd3Ez/NS6nNJhjhxRzbzTHD6wisGi/wYvbubK/htRC3C/qJObGzE8T0w7KR73gxB3ZywPD6HaybqfHi78TnpZaxDyZ5MYe3O2x4nYSFW3xeKnu22lPhxW+xEe7lxXy+1eeG13th5WiOl9q+/9tX4yUXtRO6eTEn/++k4bUbtp7hxQwAA4bXGVi7vczLKc87xUu53V54gRdz9Kjh9QVYPFHkZXOTl2LCZhjghdkBWN2b15d5z264RF8uge2ntGUK1k+VdKWUsh8e15XH4cB4XlPycRegT1P64MY5PZmDIzNVLalmXIEJLZmAM5O+jvhJd2BIR4bg0GhOQ3JRl+BaDbkGbv1QPz6EY9Nl7SinXYNR7RiFcxM/68bPCffgFt24BQ6OZDUjG3EROjWjE25+Uy/ehKNT61qxnnIVHtaKh+HsWF4n8jF3oVcneuHyLzXiCzj97Ko+VM92G8b1YRyOT65ow0rSdbhTG+6E86OLurDY5D5coQtXgMFpTZgGhekNPdhIc4Bn9eAZkNi8rAXLzSzgBi24ATRGsjqQjfCA82saUDsfTL6qAa+CytY1+a21coFh+Q2DzNiS9JZibKBHej3gc1Z2syC0oyK5SgcjGJPcGCg9oyi3YoITDMptEKR6C1Jb8FhBl9S6wOu7MnsXxLaVJFZqYwYjEhsBtfGCvApxbtAvr36QG/lOWt+B3kxNVrUMP5iU1SQIbvEl5bcwhHsldS8ojubklItyhG45dYPlGSnNgOb2sozK7TzhBRm9AKITRQkVE0xhQEIDoNqbl8+8xxUukc8lYHtKOlOgO1WSTSnFFx6XzeMgPJ6XTD7OGPok0wfO5+QyB9IzValUM6xhQioToD3py8RP8oYhmQyB+GhOIrkoc7hWIteA+w/l8SHIT5elUU6zh1FpjIL+xM+y+DnBH26RxS0QYCQriWxEAuiURCdk+KYc3oQQU+tSWE9JAQ9L4WGIMZaXQT4mB/TKoBeS/FICX0CUZ1f5q54tC4zzNw5hJlfYW0lKA3eydyfEGV3kbrFJHriCuysg0WnmpiHS9AZvG2mZ4FnenoFQm5dZW26WCm5g7QaINZLlLBuRC86vMVY7H5J9lbFXIdrWNb7WWmWDYb6GIdzYEltLMemgh60eyHeWq1kIuKPCVKVDQhhjagwiThR5KiZkhEGeBiFkb4GlBU9K6GKpC3J+l6N3Iei2EkOlNklhhKERiDpe4KcQlxX6+emHtL9j5zuIO1PjppaRFya5mYTAW3xm/BaJ4V5m7oXIozleclGZoZuXbkh9hpUZiL29zEm5XW54gZMXIPhEkZFiQnIYYGQAovfm+Zj3ZIdL+LgE0p9iYwriT5W4KKXkh8e5eBwKGM8zkY9rAPqY6IMOzvEwByXMVFmoZrQAEyxMQA2TPgd+Ug8wxMEQFDGaYyAX1QRcw8A10MUP3fchlDFddl05rQ0Ydd0o1DHxs9t+TugDbnHbLVDISNZl2YhGoNNlndDJN931JpQyte6q9ZRW4GFXPQy1jOXdlI/pBXrd1AvN/MJFX0A1z666p3q2bmDcPeNQzuSKa1aS2oE7XXMn1LNp0S2LTfqBK9xyBTR02iXTUNH0hjs20jqCZ9zxDJS0edkVy81aghtccQPUNJJ1QzaiJzi/5oLa+dDUV13wKlS1dc1+a626gmH7DUNZY0u2W4ppC3ps1wN9nbXbLBS2o2KzSofGYMxmY1DZRNFexYTOYNBeg1Bab8FWC57WoMtWXdDbd+30LhS3rWSjUpvmYMRGI1DdeME+hbjuoN8+/dDe72zzHdQ3U7NLLaM/mLTLJBS4xbeJ36JBuNcm90KFozl75KI6hG57dEOLZ2wxAzVuL9uh3K5HeMEOL0CRE0UbFBOahAEbDECVvfnwzXu6hEvCdwm0eSpsU1DnVClcpZQ+4fFwPQ6FjufDlI9rFPrC1AedngvPHJQ6Uw1LNaNVmAjLBNQ66YfDT+oVhsIxBMWO5sKQi2oWrgnDNdDtD4P3IZQ7XQ5aOa1dGA3aKNQ78XOwfk7oF24J1i1Q8Eg2SNmIhqEzSJ3Q8TeD8yaUPLUelPWUluHhoDwMNY/lg5GP6Rl6g9ELTf8iCF9A1c+uNq56tq5hvHHjUPbkSqNWktqGOxt1J9S9abExi036hisacwU0froR01D59Eb9NtI6h2fq9wyUvnm5XsvNWocb6nUD1D6SrU82onc4v1aP2vnQ/Ffr8SpUv3Vtd2utuofh3Q1D+WNLu1mKaR96dtMD/Z/d2Sx+B+yo7KTS8XsAxnYyht8FE8XtionfBzC43SB+J/QWtlrwfi9A11Zd+P3w3f97F78jtpWMKbX9noARY0bwu2K8UIj/voD+fvzr/3/9/+8hAVZQOCByCgAAEFoAnQEqkAGQAT5tNphIpCMioSTWWNCADYllbuFyfkv+Le2vM+47+x/uOu2eA/rH7neIdmr7vxAuD/9D0IPC/0b86e4f0Gfv/2AP4Z/bP339//oM/6HoA8+X03fv/7AHSEc/P7J/94/8/UAf/P1AP//1s/U7/B/hPcF7ou272P/3fHSvwv7+A+kCnmO/T/C700YMzGuqIsrZpQW9A8V348lkVixNqVv6n4zXv//cHatZMKqYzXvbZ99WRWLIrVFGDw6EJ29ZKNyI4jWsMClu6hFwYKk5idUitFEgY4ZujuJILoUY2IcXvnzV+Nx+ZBPMk+UCgs4VKnzVZ7XO1UMsLKng/ncW061HVO5kllL/RHesx9AwhYc1QOMag5F5mzIQySCOsg4d7LTwoTHdslO8vKi3Q8eYyLo+kWas1Pdrmdk6bkBUBxJjXKMVMkch6OuIXCDS0/lKRcwkDC402Q42aPaFluqhHDSDf4rIslbahGjDHzyW8VfRC8yy6cy6FT0DAKR02B78MeBakjK1kSQ2iecXSpBvHOq9ttU0WQutT6+m4Gjj99iwJg0qamLzOiBgdvVZWY11RAmKqpa6EFlLZMDIJPhA8hV5GPCgWFOKKHygt4yg16vZ+xUsVfHATZUDicwWx2cNPghRZWyymY2cgXkRd1hMyH5gkK00K8uWQgN34KxCLK2aSnsUaiusVEeGz3Xvd6b8oFQ/ELA0olvQPGaDr212BVAX9//H0QMgLdGuqIsrZW+D8ome43gVF3f9bK3oHjNJ/dq16BGYCouxCekKH8aVvQPGZ/CJScuN4FK7vwViEWVs0oLegX2w8nGcLGoFt3jatmlBb0Dxmg69tVIQLdGuqIsrZpQW8aR2mmChjeMIyKB4zSgt6B4zSXcPGRxR11RFlbNKC3oHitRxivXt2+6wl+FA8ZpQW9A8ZpQW0KOFiw3IyxpW9A8ZpQW9A8ZpQW9A8ZUAAP5Bhqh+RSU+azzncuABZfio//6Ze+q/ruISvyb5qgESm+mu9oKb9ObZDZghRkDabFMc56KvIqSwawKfoWz+USHf4vdnGQBtPGk7/3xLzBDxW55TTi64mMwAZe8LTZJr4mOUnR6KJL5QVQa6xhpU3//pl4Gmwf7Eh9+L57CPvmp/k27YnrcLfXy33ghTyeCQL3D+B0JQtQc8XGff3Gzc+mX2waSY2imvArDwMlWWuOubqAX8MoiZ4P6cvhL8MkbDMsD4vU5vi3z67UY5CUAL79WnYQLKMSTAh+z2rOAHQshqv1YGxFwCyHBdMHzJgmWDPxoGnDgGg7SPMBhPjfo5e+qfOOYpOXIa2UmtRM4MSKeLiyJPHvZPa2bgQdMi2jHuX/qjpi21scCu+4uYt4INH4g8KLNMmn3nr8gK0ELkzUr6rpzA9wCFSbeahPeLmFwemoK7LLKUZ90Ed3F6MI1LBodtD7GZQk9n9CQtGLw6e3elwtzwbkJxdduPoTNijZ1EkAghEFMOIbniyvWEHdCLSnUznIRRfXUjzA/kmDFmbhdFtfgTXSlk1/5i/An//jJJIiVrfzBWwuxaQQYocnb1LwCiFkm28Rku9VeOgwv1nQGkFce0/6AKkdWLit4DrUBN3d/qKbxteRDNKTTAgqQNaRsyBlr/IUtVyjzcuOv1uh2lN9uO2T+nEuemM6kxIbUIYIk3a2MsIIC8kJtYjtzRBCcOWwzrTUTKJ2HIR7PtbYMP8UeruU0G/IWDIjQLVfPGh9czaePNqMFq7Po9EvOZc5hQP0epI0IYK7FDpA6It1KQ9hPl29g1aQhqLEYuDHvTJJzRP+xiZKRdi67NvcAevkoNwi8Zs+MBElK4/8txRd9VD/6PCQAgowSMS7DDcsfGkggvQyxp12bubaqdjEOnQT6pu4iX6zA5GWU51aypAm/YN+YUMI/6LoM+R7RtXzV/ENVOB0mri0xS6L6TDEEbIZdSKiX47Q0lsmXgvb/B4G9Y9ul462Ur4crfPSsE94X6aCVN6hpdaUpr9nDHjt3gc3d4ZDeSmVeNM4w5RjnxykHKRRaUbHEJgRdwgQ0PwiAx6+WIpmW+Kg1rLtwIS92cS/Jy+htwKJHNIq4bWW8iSKRHRpaGaMVFUi0CQo9ZYeGDT5B09As57XbZZxlMN5BT3nA7FRo4jCZRHxki/Za47Y0hvpajAxkw0qFVzv4hxU3xO6F4HotRK1xPovIVhnIeLCgrLA33HxGJmroIccI3eNUCiq0BRoEeoBgB6SuZyXuxoDazIwFj3tZq1tRyi0N/2qia7U9CYGmbTt6vx8t9k942+GI581xbmhOOJcPE4msE3Fj1/YLME+59WH/j6ZycVri2JrnQqxxBpqpMPzlNtwN8G8FM3vMjrwRZZWEhMx2IglnZgFOMv2nV1OPETwIkiKWUG/X3vDEb4XUFAOl4DwEmDAgNy4JPuSCttz0F+ENFnACDTSbWlUKfkMMSw5B53E2whQxMSVtiPhot+QFfIrDWvh5d9mL61nXc4+xtarsBlbHMTJYw5lBSi7//CLpSSeRSacJDuOQHYqNHE+EWWv5JxVeKoFnEexMErLvt9aQR6g5IoISDhIKFSPYzDYrC+RX2eE/E8BrbM6+sPVKdnIjat2t3Ijza2v7kL8SyPopK0CBQldBB5/CtwdS9d2cMmnng+dwlJ/8ByqUBJw20htsbMZcT8iKY0AkTYW5c2l3ZJWkIQ3eKg1YuZwew6tKI1NMNajE7v73c+fmabYtfSIiC5dpptyynvrSazm0EwSdEdBNcIR9FTqg2d8VC+pzg4OKePXSuE1fuTbvLLqfIFFGD/JClH/yuCloIWWmvB/JnrCBX0OteJuSs49Ige4fTwKT4N+uHMNpoHuq0gkQw1EG1kq8R9OU5uv81fp36djJQA1nqSNdnskcIs/ZMzUkFQd65ZQ3pQppwlJNnT9RGs9lEIeJ+gHnzWg3sxju7UFasQ/BsqkjgS5Oaxzau3PJdigxmYdwPoOqUd4LXbej2Dl8eiVj4KIngObRf8nyF5wAkQURTGSgklYAehrE7pDRB0Fa6dQdkEH6PP74mYHJBF/ZUUTVn7r/N0rM/lygGznUTvMhsEQ7FYmkPeelN6Yh53Q33AFmZKSrUfbn9XGDec8W71/TDYwn9uEUf/JVCtOi/1R+Sv//GSSsczqVE79vBiRS+SNAABn4xrR1SJxsaOeDNfTrYL4YxaGbmfYU0EMet7zkjlcOvmcoAAUVNH1K2uSCEXESMU7WOSIwrJPJj/b9N8LfDtQo9r/zMRX3n02y6bAAWpn5DLxEJbgpEJWZZ7GdTgUGuYWsCJjeOuuiWuuw2RhU8cpjw8rOAAOaEatr3Mg65ArdLw5RJ+bhMei2MSpz95HnHRD6lrxCtelQAASr+DLmfbF5kwNNs/Dc1RFw6YDNKSg7Ww0L+PcdM8wwzlAAfC5zC/M/hrwx0e+rCRlGVCHn/8cGbqZzpW1wXOEvfwB3h7R0dKDJ/119KJoAADOHIyk+j9TZOtQgdJv+vU6PWrXZnOYHsmWXlI8lLje3YHpeQukAAO4p1XotUTs1sdMynrzgAAAAAAEVYSUa6AAAARXhpZgAASUkqAAgAAAAGABIBAwABAAAAAQAAABoBBQABAAAAVgAAABsBBQABAAAAXgAAACgBAwABAAAAAgAAABMCAwABAAAAAQAAAGmHBAABAAAAZgAAAAAAAABIAAAAAQAAAEgAAAABAAAABgAAkAcABAAAADAyMTABkQcABAAAAAECAwAAoAcABAAAADAxMDABoAMAAQAAAP//AAACoAQAAQAAAJABAAADoAQAAQAAAJABAAAAAAAA;" vertex="1" parent="1">
          <mxGeometry x="-150" y="258.75" width="70" height="67.5" as="geometry" />
        </mxCell>
        <mxCell id="ZQ0ltY4m0GD8ktAkjm9W-43" value="" style="shape=image;html=1;verticalLabelPosition=bottom;verticalAlign=top;imageAspect=1;aspect=fixed;image=data:image/webp,UklGRrASAABXRUJQVlA4WAoAAAAIAAAA/wEA/wEAVlA4INARAACwegCdASoAAgACPm02mkkkIyKhI7UIIIANiWdu/GPZyOmVhPzf5ReQdX7tn9f/YL8kukH3L8A/kHzPyEPT74E/if3f8ZvnT/kfUR+iPYA/hH8t/vv9+/FvuFeYP9eP2U97f04/5/1AP65/l//b2InoD/tV6ZX7kfCV+2X7YfAt+wf//6wD//9aP1M/xnat/jMgpEd+PfiXGIyBeVmoR6q/yO9ygA+sP65ew/8Z5vfy2s40APFRz4PW3sH9J30gA9AHlrG/GaON+M0cb8Zo434zRxvxmjjfjNHG/GaON+M0cb8Zo434zRxvxmjjfjNHG/GaON+M0cb8Zo434zRxvxmjjfjNHG/GaON+M0cb8Zo434zRxvxmjjfjNHG/GaON+M0cb8Zo434zRxvxmjjfjNHG/GaON+M0cb8Zo434zRxvxmjjfjNHG/GaON+M0cb8Zo434zRxvxmjjfjNHG/GaON+M0cb8Zo434zRxvxmjjfjNHG/GaON+M0cb8Zo434zRxvxmjjfjNHG/GaON+M0cb8ZlhqH2zO/jumbPeYficyfE2boJYKTGZAunhvxmjjfjNG8u7yRCKwDl6TnKd6oPha8sXLYzq5+YejjfjNHG/Ej3+zwVWnzNR5LYLKMhaR6/hKnMcNHG/GaON9fxJD3NZGjmG5Awv9M+fqk1bxxYTaU2Lx5qfa6utGs99eWsb8Zo43WCngaeFgra6yGGNcv2zedPMc7AImP9K3x5boaN5dLFDxixevZNc0RQrjK1RRUjdFdHG/GaON+M0UZudq5hvm3wFnOYelIjlJ4lca2geWsb8Zo434yE8FyjjtwpioCpiukXCqT0i4fSghBSRHG/GaON+MhPBco677Ukn+recX7m+zLQNB04Hxc9O/St8eW6GijNztXUOWxossTjfzAxfFNcBK/nCjAsTRxvxmjjEiETqMTR03alph6mEhLNkMJVk0/748t0Ic7y9JiJaGq+5kL9Jq0w28nSKd2kWAErzpny1l3WRLmVSLE6gyPZa9S77lQi2Jo431iN+1sngkMqyTph74zqQ0Ff9liP02smsXgu1Mkr5U2CaXaxJkFh6YABJTmAjg/5giCX3En/oV446HqJo3ZIlA5WO1rQkymNy95/v/e+H1U7HETSKSGN8bZe8zaZsfWsb8ZpLy6H0cx8CMopcv19xTc7gg1usldr/foS0CWJlh6pWp4BnmAlb48t0NlZtK2POcwwoNedkf1RvAyhO05p1jnPEas/N7db6U5KD1/DNnyOoQfV+/XCr3Fp+M0cb8Z8N8GvgeomjjfjNHG/GaON+M0cb8Zo434iAAA/v+jm7atuKmXX7emxLOTHOzf06erHgD/HgAAAAAAAAAAAAAAAAAAAAAAAAG7NTopEgGNEeHJOIpqfGQTXpMIh/fD/2Wc7k1yo4W0I318a9Y5KkxOEZU74Z6z5GnjtTsLPH53WxFwlObyKu5ChFSCI5HhtkuaqT+cK1JvjFsW3tKNy0nhUq8WktHg63KbfTreqc0/8g1AY6L21WJdCzHTTLwbE1ppuPqVVEEPWtqMDO1a7h5XNLsEyBsLkNSTqmaLCcLV9SbYEyrZgdbr0Y/OgBFLSdiGijfoqWRQqIzfFTFN5oCaq5/WfLatSTUDYoHesDgSc3CIK1GbaX5iUEcWDtPbEaFYo9aswgKe7TncQ+hTtHNPElF5BuMu9HShtD2Icr8snG5tfna7Z1u1qrlpssF2JGlZZBPr6pbm3R+lYpPhDpCPHRkeicDQ/iw+8Sypea4iVkMN3ORijp0cMhCKyYBYh/p8Z59ueNepNPU9JNUFB5iW2ISc7Sh9hIBEaGJHpTuD/3By7EP8QCkht2EK+3aHFUQmcJ3/FlAI0VEMWoPtsM6jWfgqFGDaeDDM0vbKoFH0XexgnVdN1YCK+k4q/tQxuMGPPFcx7TCAgXs5v40F+S6YfIrNbSazHL3NrmZG2FmyeTtjVz14zbVtLgFB5tuleDyBQELgXNPSgAW7xF9FUcwuIiChNov0y/NtH0K5MpzwZFbkuj4SX7D7utUb87pT6fpk5KAn8NThhKvcuVu/WIm11xhkDL98YzYz5GOsAVvseRT/rl/MwwvFkQFMEQRXBgAzZNP5dFhCz8zN7ifyY776YYnKH6O2f4nQFEiF+YPUlvYi8U9W/I/Ct5QOGoOJy4Zzn9LeHW7unBGjNXRkL7dPw9ayvehL5yDvLG8UkgkAVvqSzaWn8gNe5NT27BUsDxY8D3mnjk4fFYuSCX2scLwlN0Hjy/YMIqYoD1fZIR5n6/1pJqMD+NRAB6blo8xkGHsRyeQm/ATDyNejolUPJ4+OxhIXT2MII7WmXcdS1bmDA9Io01y4q16SbMA+wzHTSg8TGIU9na2je6XSSp4NfANDzycxCM7rZ1tp7SnsSxQWmn1d2FbJLeYyQr1VWEJfz7bNJVG+vUDWGJ7veWGPyh+1L9DUkRJWAXgWGqqCmNRN3Ja4Aq14laBirN5xs4HVewhcX/f1gMJuxH9/tu23e86+MsJtqaoeXp+tazUwjz42u+C+GP50Jqszq4nYKP/+VJzCOTJKqIxkX+N50AGGIdJmUbdr02QirLOfIG2EAJZ+euyoKxrx1cverhxNyqNvkvrEF2KehaEQFWhGoGhvd1OyqB2e2Z/mUAFchakGwBKIvCdo8bz2Ztq7JHBhLgAsg7MXe73m/hEvCi8BaEhmgUnHcfTCGqCZ3yXGJDB5IKk85lCfYkNvsLF1VPNIT/H8+ShVTWjcASYUh4D6b+5HSSvFJLh+j0a/NloS9U7AZ+CRymjbABln9y+hwFipWTBSmbQga1+NHn9BWvh5h8LzFfaLFs0pyQATLmyXjvGJWcVSQy2sqgM2/+oCVSBIGDSRIMHz214W1Rdt4s7ddUEBWPJ606gO+48P23fPJzcy31VL3bdUTdDnu8QpsQXPkN5ipFKZ/LHqjFY56gN8SO1v5Uvv5saopHnlXmv4njRN/D3fiNOgLSrF8jzd8iivmgS+iaMsnG9m54hBrlkEg2VYVwOj6rjc3X0MZ1rSf8bTk06idCbGR6KOJFuLYFR/RPecD8jiB3SD5Lj95yuaUkMnMIs6WCkd00Rogow7VOfwTvOpqK5GfZv2N0OnPt/3ipJTxVIvA9oxFxM4LGwdI4PQpkTYuVHvuPWfQTZsMAYZ/bEKD/GNjqAglgU8cduZmZ19s+fDliYn4jTkSSNbexJB5CcWQr0TPyoMoQhjZKBB3JjsvSMGVwZgBsU5O0OsxigeVVIJMyNbwVb7bd7dheDHTOxYd00dmuxcv6aQPriIVUWtGVOW/9zvcf9/uKywYMv5cLMEEVL1x3iiBvbjNG6rOQZAoJyIOQtIXVgz+5320ncLR8f8VtnOujt7Jn+EoDuZATSg2+L2IZmwXFSRiHNQJbxmqMZ2jT59KUcxx6wga//qOK5rtbawVaj3L3K/BGRdmMiwOLWfYH75jCqQkZVTINuZgnSa6aOu2TKlOu/ScrKh951AjfR/FXx0lv+fzcqGZ5bSEQPghgsPgpxusVfFX3agT7SIViqB+8AH1uMnZ6YhfN++y3OnmQ7JUQvsuEiMmDUsa84rc/zV345z2mvqSGXVpd3DZPiJEHNvRmtpSB/Lzzpf/eJbzmvA314bxJNRO1UE2gboKXFgmD3HaBXgXBqYpzp00O2eTdVaNkJLlmaWBf7w4OmV5cXA1narZ9+pAZt4reD2vvq7bHgwqf71Ybz0bMjrD73MSb3fQQNKT102qQx2woLrXpKbOLkrg4Pi1LZ4fJkOkioWWUgTZOUBp8BS2mZ1oRt9/v215s1eu/VPwo8vqNSnbCoD2rJLOITQ+83xyWfQjWDMiRAekWwO1I86P9/goH284r5qud5uhJalcoVXnqahnKz60bBZUU5TClN6ZP1bDbaU186L1MlxVDVWpZ+tWL8SyR7OxlShsugd8ESLWnTrt6QQ9tiYqt+MjOPc64Q1UHh2MkjpxHXPBb34Xdk4pnkyMGuNs32rRuK7vUsKAKK4eUoChnM7SM8g6fUKPaVA+e484Y7Rvc9jK4kuauBkAZaLPtLhQn6oY1Cc9db1XwMUDq9sQePs5CXzlWf6O6fWZHDxL+ZG2ADmGGY/gdXvLePJ8eZrDSdX1wNXhRf9uKSKDOjN0HBcYF4ekK4MW+zFx9bYHPaEz6itkkKtnad5+F8/PLK7lUwYev/sRW7um217dOEeBeAgOspPl1HlfpnyUPEQMyzQ8l2g7NRKfUJiqx/duaFsIpgduLJwz4GQ4rf1zKxPMvq+6/W6heHYV/TAmxm5Efta1B3XTthoY4l0KdfonLhaPdg+8iqou16ibKww//lrPcSDEDm2LdMByPABdq/idUCULhISd3Mp1px/oNoRfBjXTowEBLY4qk0xTdY5ArS8m4U4jsSO4lJ2o1+8NZiv5vH6yPTmXbXGU+vr6Y+7PlYpKip7UtrccH8lhhAHZ/Ap3YONzMO/uy+waNth/fxcmekTCE4VBONgeKeqmpFtJKShPPrYf/KZlSVPUT+Squ8uLzbt7N6VtfbYhr0uMhi3ipXKO2dQAAQhwxHK6TezULMiqkkLyyaWxUsCIjqsQ9aMdlwTLaxMgmLMinAGtCPf7Ef4lgSlqF/vH31mwA58kq3NQL9l/JyfO1ffFelT+9xzhZl57tYcMSUWtMV5v+Xp+HnPSduNFF8HVhyVa9VWWphEuFgVh4ImU0T13Q+wJLW3/P6wIiqu7i4ZRM0jtd9EHxnHoK2lpdnhSz1Dl8Gmn0h2YHBg5q/P3c7VxWIjfK/0i01EMfFx3rTUUk6tmQnDxq5Cv9+nTO3Qk/MerDQCDYe9WDev8j6LRwD/kKzkJpUUXPU+0r7CP08WzzAt1ppREbpZSggyp2WwzuevOWzuL4PK9+BAIQ/Mv83oIDevAsoojDzQzeoeqkY+pTUxd7MAIJn6IvnAtB5PNq4YXiQzSOCrfE8gGe61ieuHHAMVCa5h9x7VvtqhvcHaoY3/BxP3alvqNYo0L7sANzc4w1lSxLJhQwhe/poGyULoqMNHe9Qrmr9tQ97fw0YXyDAoy3TcV4db1CFBSv0rzy/SNfgLZWoXWh+vWtcT9QPB4k+O4e0ORM9qU9bKS3NgyQuDfL1YkOEgABOSgjJgfDvt8/vQ51m1IURA+xqHT+4AzPWdPRXeBCs59syirzNsTVUhM2FqIBbJUGPLWpq3QenVTyf8eTx0DwR7n8f3f0qLaAHWI35vHmw5JWFLT0lawsf3YQe3Fr4R9TG0jIeE1hPYmMIpoqrp9wIkyQkUYzJtM6K09EOL95WygU/ArT6xj1HU8Nnr8YOHEMbaI0tLKGG0Bcikiumt2FrNaRRHRgFdL7RzOFS9VFg/RI9+mqLCCr0b//pGzYQXe9KrBJjG7gZyneAARFRZbyIuGpSkMt/DHq8ZMBSe0bd9QPuSZSJpPxDD3biHSceQDs7t670cmeym7aXmIHtpyP7zDQUbK94t6yYoSb8/dE1p/FiN7dApjUwhJgXVTGcASZmKAMoruovW5nEoZHxkHqicKtMoy+o9wW1B7yxyfTB4UkqtUb5qNAkBOg9I7+K2Rjhsif1JJDA4TSQlWHjdtn3taa6IAONiAo4Zd6bQ8PZ28M0SZPGvR1RDiW075IBEg2X/0wH3xWYEZU2y9TzYSEQUnr/vpb2URI3b2ozYDFBar3CM6QkHuDP8bG1mCr6GJS6BLPkvwlEfb9cuCU8H4QaTio8rV0czOJ/jrky1UMbhmO9yXj6sc48Sz2EaGc3eAXetKj9OAKycEUdtltuGCvX6dpP/D+oPaNKH/fgdndpXssoy1qSJRbslgCez21hJq44tDG+YnHav91hCDbzn8eiT6kNQRsJTO47wymiyTQB7plFa2S7Sqcg4nqbHXZpvn3j7ZJ/oJdI8VWwbNqT4Z89MR9VZKVOU1qcHPgmAK93xfwPJEECixxWzvX2lKlBCZGQIGXEawF5BSTY3NdnzOcuzSFAxRl0OXt19+oL8nFcCFP1m2BIukhOASUKBh8ycvqVtl+9+S4WWCdJxgLD0jlIrxsVITUfmadedAAAAAAAAAABFWElGugAAAEV4aWYAAElJKgAIAAAABgASAQMAAQAAAAEAAAAaAQUAAQAAAFYAAAAbAQUAAQAAAF4AAAAoAQMAAQAAAAIAAAATAgMAAQAAAAEAAABphwQAAQAAAGYAAAAAAAAASAAAAAEAAABIAAAAAQAAAAYAAJAHAAQAAAAwMjEwAZEHAAQAAAABAgMAAKAHAAQAAAAwMTAwAaADAAEAAAD//wAAAqAEAAEAAAAAAgAAA6AEAAEAAAAAAgAAAAAAAA==;" vertex="1" parent="1">
          <mxGeometry x="-190" y="247.5" width="30" height="30" as="geometry" />
        </mxCell>
        <mxCell id="ZQ0ltY4m0GD8ktAkjm9W-44" value="" style="curved=1;endArrow=classic;html=1;rounded=0;entryX=1;entryY=0.5;entryDx=0;entryDy=0;exitX=0.005;exitY=0.63;exitDx=0;exitDy=0;exitPerimeter=0;" edge="1" parent="1" source="ZQ0ltY4m0GD8ktAkjm9W-10" target="ZQ0ltY4m0GD8ktAkjm9W-42">
          <mxGeometry width="50" height="50" relative="1" as="geometry">
            <mxPoint x="300" y="340" as="sourcePoint" />
            <mxPoint x="350" y="290" as="targetPoint" />
            <Array as="points">
              <mxPoint x="420" y="270" />
              <mxPoint x="380" y="270" />
            </Array>
          </mxGeometry>
        </mxCell>
        <mxCell id="ZQ0ltY4m0GD8ktAkjm9W-48" value="API response" style="edgeLabel;html=1;align=center;verticalAlign=middle;resizable=0;points=[];" vertex="1" connectable="0" parent="ZQ0ltY4m0GD8ktAkjm9W-44">
          <mxGeometry x="0.2654" y="4" relative="1" as="geometry">
            <mxPoint x="9" as="offset" />
          </mxGeometry>
        </mxCell>
        <mxCell id="ZQ0ltY4m0GD8ktAkjm9W-46" value="" style="curved=1;endArrow=classic;html=1;rounded=0;entryX=0.005;entryY=0.63;entryDx=0;entryDy=0;entryPerimeter=0;exitX=1;exitY=0.5;exitDx=0;exitDy=0;" edge="1" parent="1" source="ZQ0ltY4m0GD8ktAkjm9W-42" target="ZQ0ltY4m0GD8ktAkjm9W-10">
          <mxGeometry width="50" height="50" relative="1" as="geometry">
            <mxPoint x="352.5" y="381.25" as="sourcePoint" />
            <mxPoint x="402.5" y="331.25" as="targetPoint" />
            <Array as="points">
              <mxPoint x="370" y="360" />
              <mxPoint x="420" y="350" />
            </Array>
          </mxGeometry>
        </mxCell>
        <mxCell id="ZQ0ltY4m0GD8ktAkjm9W-47" value="API request" style="edgeLabel;html=1;align=center;verticalAlign=middle;resizable=0;points=[];" vertex="1" connectable="0" parent="ZQ0ltY4m0GD8ktAkjm9W-46">
          <mxGeometry x="0.1214" y="9" relative="1" as="geometry">
            <mxPoint x="13" y="1" as="offset" />
          </mxGeometry>
        </mxCell>
        <mxCell id="ZQ0ltY4m0GD8ktAkjm9W-51" value="Frontend" style="text;html=1;strokeColor=none;fillColor=none;align=center;verticalAlign=middle;whiteSpace=wrap;rounded=0;fontStyle=1;fontSize=20;" vertex="1" parent="1">
          <mxGeometry x="15" y="60" width="60" height="30" as="geometry" />
        </mxCell>
        <mxCell id="ZQ0ltY4m0GD8ktAkjm9W-54" style="edgeStyle=orthogonalEdgeStyle;rounded=0;orthogonalLoop=1;jettySize=auto;html=1;" edge="1" parent="1" source="ZQ0ltY4m0GD8ktAkjm9W-53" target="ZQ0ltY4m0GD8ktAkjm9W-32">
          <mxGeometry relative="1" as="geometry" />
        </mxCell>
        <mxCell id="ZQ0ltY4m0GD8ktAkjm9W-53" value="core" style="text;html=1;strokeColor=none;fillColor=none;align=center;verticalAlign=middle;whiteSpace=wrap;rounded=0;" vertex="1" parent="1">
          <mxGeometry x="30" y="370" width="60" height="30" as="geometry" />
        </mxCell>
        <mxCell id="ZQ0ltY4m0GD8ktAkjm9W-58" style="edgeStyle=orthogonalEdgeStyle;rounded=0;orthogonalLoop=1;jettySize=auto;html=1;" edge="1" parent="1" source="ZQ0ltY4m0GD8ktAkjm9W-56" target="ZQ0ltY4m0GD8ktAkjm9W-57">
          <mxGeometry relative="1" as="geometry" />
        </mxCell>
        <mxCell id="ZQ0ltY4m0GD8ktAkjm9W-59" value="navigates" style="edgeLabel;html=1;align=center;verticalAlign=middle;resizable=0;points=[];" vertex="1" connectable="0" parent="ZQ0ltY4m0GD8ktAkjm9W-58">
          <mxGeometry x="-0.0936" relative="1" as="geometry">
            <mxPoint as="offset" />
          </mxGeometry>
        </mxCell>
        <mxCell id="ZQ0ltY4m0GD8ktAkjm9W-56" value="user" style="shape=actor;whiteSpace=wrap;html=1;" vertex="1" parent="1">
          <mxGeometry x="-740" y="240" width="40" height="50" as="geometry" />
        </mxCell>
        <mxCell id="ZQ0ltY4m0GD8ktAkjm9W-57" value="" style="sketch=0;pointerEvents=1;shadow=0;dashed=0;html=1;strokeColor=none;fillColor=#434445;aspect=fixed;labelPosition=center;verticalLabelPosition=bottom;verticalAlign=top;align=center;outlineConnect=0;shape=mxgraph.vvd.web_browser;" vertex="1" parent="1">
          <mxGeometry x="-620" y="202.5" width="176.06" height="125" as="geometry" />
        </mxCell>
        <mxCell id="ZQ0ltY4m0GD8ktAkjm9W-61" value="Web Server" style="text;html=1;strokeColor=none;fillColor=none;align=center;verticalAlign=middle;whiteSpace=wrap;rounded=0;fontStyle=1;fontSize=20;" vertex="1" parent="1">
          <mxGeometry x="235" width="60" height="30" as="geometry" />
        </mxCell>
        <mxCell id="ZQ0ltY4m0GD8ktAkjm9W-64" value="&lt;i&gt;SEO,&lt;br&gt;Middleware,&lt;br&gt;Routing,&lt;br&gt;Handler,&lt;br&gt;Layouts&lt;/i&gt;" style="text;html=1;strokeColor=none;fillColor=none;align=center;verticalAlign=middle;whiteSpace=wrap;rounded=0;" vertex="1" parent="1">
          <mxGeometry x="30" y="187.5" width="60" height="30" as="geometry" />
        </mxCell>
        <mxCell id="ZQ0ltY4m0GD8ktAkjm9W-65" value="web browser" style="text;html=1;strokeColor=none;fillColor=none;align=center;verticalAlign=middle;whiteSpace=wrap;rounded=0;" vertex="1" parent="1">
          <mxGeometry x="-561.97" y="170" width="60" height="30" as="geometry" />
        </mxCell>
      </root>
    </mxGraphModel>
  </diagram>
</mxfile>
